<svg width="85" height="76" viewBox="0 0 85 76" fill="none" xmlns="http://www.w3.org/2000/svg">
<path d="M64.7456 36.88C71.4291 36.6739 81.0792 31.4537 78.6151 26.853C76.151 22.2522 70.6306 24.9196 66.1142 30.0568C66.7235 22.6297 63.4114 18.6049 59.6059 20.0442C55.8 21.4827 54.9453 28.8141 61.1845 34.3166L64.7456 36.88Z" fill="#FF366B"/>
<path opacity="0.3" d="M64.7456 36.88C71.4291 36.6739 81.0792 31.4537 78.6151 26.853C76.151 22.2522 70.6306 24.9196 66.1142 30.0568C66.7235 22.6297 63.4114 18.6049 59.6059 20.0442C55.8 21.4827 54.9453 28.8141 61.1845 34.3166L64.7456 36.88Z" fill="white"/>
<path opacity="0.4" d="M74.2437 29.6256C73.2404 31.5327 71.0284 32.9146 69.0919 33.7225C68.0992 34.1374 67.0754 34.4633 66.0292 34.7127C65.4989 34.839 64.9659 34.9515 64.4307 35.0526C63.9449 35.1444 63.4038 35.3124 62.9116 35.2274C62.6283 35.7769 61.9159 34.94 62.1365 34.4736C62.8778 32.9081 63.1617 31.1729 63.0095 29.4498C62.8545 27.6861 62.1874 26.1278 61.3768 24.5767C61.2296 24.2951 61.576 24.2114 61.7516 24.3864C63.1511 25.7766 63.7775 27.9431 63.9157 29.865C64.0196 31.3068 63.8271 32.7628 63.3578 34.1272C63.5975 34.0856 63.8403 34.055 64.0649 34.0098C64.6021 33.9005 65.1377 33.7828 65.6682 33.6471C66.7212 33.3783 67.7696 33.0771 68.7799 32.6737C69.7091 32.3026 70.636 31.88 71.4916 31.3604C72.3898 30.8147 73.1572 30.1133 73.9829 29.4724C74.0638 29.4111 74.3052 29.508 74.2437 29.6256Z" fill="#FF366B"/>
<path d="M64.9832 37.0509C60.8962 57.0102 39.8221 67.7054 24.9441 63.2074C17.5644 60.9765 9.95658 55.6914 6.85673 46.2319C3.82221 36.9705 24.2149 30.5065 27.6604 35.0925C34.0437 43.587 41.2804 45.2391 48.3788 43.1539C54.4443 41.3722 61.1851 34.3174 61.1851 34.3174C61.1851 34.3174 64.4684 33.891 64.9832 37.0509Z" fill="#FF366B"/>
<path opacity="0.5" d="M64.9832 37.0509C60.8962 57.0102 39.8221 67.7054 24.9441 63.2074C17.5644 60.9765 9.95658 55.6914 6.85673 46.2319C3.82221 36.9705 24.2149 30.5065 27.6604 35.0925C34.0437 43.587 41.2804 45.2391 48.3788 43.1539C54.4443 41.3722 61.1851 34.3174 61.1851 34.3174C61.1851 34.3174 64.4684 33.891 64.9832 37.0509Z" fill="white"/>
<path opacity="0.4" d="M42.5646 46.3786C42.5526 50.5132 41.0392 54.9586 37.8376 57.6735C37.7749 57.7261 37.5903 57.674 37.6342 57.5755C38.2969 56.0501 38.977 54.5129 39.4657 52.9219C40.0566 51.0006 40.3235 49.1174 40.3277 47.1045C40.3305 45.9797 40.234 44.7774 39.9048 43.67C40.7319 43.8321 41.5627 43.9274 42.3945 43.9576C42.514 44.7503 42.5666 45.5582 42.5646 46.3786Z" fill="#FF366B"/>
<path opacity="0.4" d="M33.2811 44.8428C31.4909 48.5698 28.211 51.9313 24.1531 53.0035C24.0732 53.0244 23.9297 52.8977 24.0106 52.8269C25.2661 51.7355 26.5406 50.6406 27.6667 49.4151C29.0274 47.9351 30.0782 46.3498 30.949 44.5347C31.6337 43.1061 32.2177 41.4565 32.1274 39.8515C32.8937 40.484 33.6676 41.039 34.4492 41.5166C34.2188 42.6626 33.7998 43.765 33.2811 44.8428Z" fill="#FF366B"/>
<path opacity="0.4" d="M49.6463 42.7088C50.3273 42.4361 51.0089 42.109 51.6828 41.7445C52.624 45.5777 52.3186 49.9607 50.1182 53.2742C50.073 53.3419 49.8814 53.3433 49.8954 53.2361C50.1087 51.5866 50.3345 49.9212 50.3629 48.2572C50.3962 46.3451 50.1471 44.5465 49.6463 42.7088Z" fill="#FF366B"/>
<path d="M28.206 38.9352C28.172 39.0957 28.1275 39.2545 28.0709 39.4089C27.9494 39.7441 27.7438 40.0323 27.6315 40.3653C27.1532 41.7763 26.1698 42.9553 24.7475 43.4732C22.4094 44.3247 20.676 43.2393 18.0477 47.2909C15.4194 51.3425 11.7641 52.1322 9.62232 49.623C9.42926 49.3966 9.17586 49.24 8.95887 49.0377C8.87332 48.9576 8.79025 48.8854 8.68541 48.8312C8.34661 48.6579 7.9653 48.553 7.61607 48.399C6.90606 48.0875 6.21722 47.6996 5.65882 47.1553C5.64167 47.1389 5.6259 47.1228 5.60875 47.1063C4.71467 46.2084 4.24282 44.7637 4.8303 43.6413C5.25043 42.8388 6.15113 42.2704 6.26567 41.3715C6.34023 40.7859 6.05145 40.2239 5.88831 39.6564C5.57679 38.5721 5.73626 37.3604 6.31986 36.3941C6.74141 35.6952 7.347 35.2118 8.04814 34.8152C8.53239 34.5413 8.97177 34.1905 9.48048 33.9602C9.83282 33.8001 10.2054 33.6922 10.5488 33.5118C10.8862 33.3351 11.1875 33.0996 11.4573 32.8318C11.9939 32.2992 12.4014 31.6558 12.8281 31.0358C13.4507 30.1312 14.2014 29.2114 15.2577 28.9135C16.555 28.5475 17.8928 29.2163 19.2263 29.4042C21.2594 29.6917 23.4321 28.8632 25.3357 29.6316C26.6572 30.1649 27.6276 31.4794 27.7476 32.8996C27.8292 33.8693 27.5457 34.8543 27.716 35.8118C27.8205 36.4024 28.0934 36.9518 28.2139 37.5397C28.3075 37.9998 28.3025 38.477 28.206 38.9352Z" fill="#FF366B"/>
<path opacity="0.8" d="M28.206 38.9352C28.172 39.0957 28.1275 39.2545 28.0709 39.4089C27.9494 39.7441 27.7438 40.0323 27.6315 40.3653C27.1532 41.7763 26.1698 42.9553 24.7475 43.4732C22.4094 44.3247 20.676 43.2393 18.0477 47.2909C15.4194 51.3425 11.7641 52.1322 9.62232 49.623C9.42926 49.3966 9.17586 49.24 8.95887 49.0377C8.87332 48.9576 8.79025 48.8854 8.68541 48.8312C8.34661 48.6579 7.9653 48.553 7.61607 48.399C6.90606 48.0875 6.21722 47.6996 5.65882 47.1553C5.64167 47.1389 5.6259 47.1228 5.60875 47.1063C4.71467 46.2084 4.24282 44.7637 4.8303 43.6413C5.25043 42.8388 6.15113 42.2704 6.26567 41.3715C6.34023 40.7859 6.05145 40.2239 5.88831 39.6564C5.57679 38.5721 5.73626 37.3604 6.31986 36.3941C6.74141 35.6952 7.347 35.2118 8.04814 34.8152C8.53239 34.5413 8.97177 34.1905 9.48048 33.9602C9.83282 33.8001 10.2054 33.6922 10.5488 33.5118C10.8862 33.3351 11.1875 33.0996 11.4573 32.8318C11.9939 32.2992 12.4014 31.6558 12.8281 31.0358C13.4507 30.1312 14.2014 29.2114 15.2577 28.9135C16.555 28.5475 17.8928 29.2163 19.2263 29.4042C21.2594 29.6917 23.4321 28.8632 25.3357 29.6316C26.6572 30.1649 27.6276 31.4794 27.7476 32.8996C27.8292 33.8693 27.5457 34.8543 27.716 35.8118C27.8205 36.4024 28.0934 36.9518 28.2139 37.5397C28.3075 37.9998 28.3025 38.477 28.206 38.9352Z" fill="white"/>
<path opacity="0.5" d="M23.9184 34.4416C23.9458 34.5913 23.9185 34.8087 23.7431 34.8555C23.2565 34.9842 22.715 34.649 22.2191 34.6155C21.741 34.5841 21.2373 34.6564 20.7811 34.7981C19.8185 35.0959 18.9601 35.6548 18.3574 36.4696C17.772 37.261 17.6076 38.1589 17.5897 39.1215C17.5795 39.6571 17.673 40.2029 17.8324 40.7129C18.1236 41.6418 18.3952 42.4949 18.4221 42.6074C18.4552 42.7455 18.3626 42.9233 18.2075 42.8178C17.5106 42.3481 16.8754 41.7782 16.1169 41.405C15.3655 41.0356 14.505 40.928 13.6826 41.0622C12.0535 41.3293 10.58 42.5206 10.4917 44.2494C10.4851 44.3896 10.3298 44.3278 10.2843 44.2442C9.79568 43.3473 10.1496 42.3319 10.7445 41.5617C11.3943 40.7203 12.3624 40.1526 13.3884 39.9086C14.3735 39.6744 15.413 39.7695 16.342 40.1683C16.5076 40.2391 16.6602 40.3214 16.8102 40.4089C16.6792 40.0046 16.5894 39.5775 16.5725 39.1677C16.5211 37.9166 16.9421 36.6664 17.6713 35.66C17.7418 35.5627 17.818 35.469 17.8956 35.3756C17.7757 35.3447 17.6559 35.3139 17.5346 35.2922C17.2081 35.2345 16.8769 35.1997 16.5455 35.1931C15.9084 35.1819 15.244 35.2848 14.6732 35.5802C14.1788 35.8357 13.7392 36.1996 13.444 36.6743C13.2878 36.9263 13.1598 37.1938 13.1056 37.4876C13.086 37.5971 13.0934 37.7639 12.9855 37.8348C12.9431 37.8632 12.7284 37.8366 12.7603 37.7948C12.6381 37.9532 12.6129 37.3771 12.6176 37.2721C12.6213 37.1959 12.6264 37.1201 12.635 37.0443C12.6532 36.8924 12.6816 36.74 12.7254 36.5934C12.8318 36.2393 13.0027 35.9137 13.2271 35.6199C13.6034 35.1282 14.085 34.7468 14.6487 34.4933C15.2452 34.2244 15.9199 34.1268 16.5714 34.1328C16.9204 34.1355 17.2688 34.1716 17.6126 34.2327C17.9559 34.2929 18.3188 34.3716 18.7313 34.556C19.2686 34.1239 19.8816 33.7826 20.5289 33.587C21.5232 33.2873 23.6675 33.0337 23.9184 34.4416Z" fill="#FF366B"/>
</svg>
