<svg width="666" height="429" viewBox="0 0 666 429" fill="none" xmlns="http://www.w3.org/2000/svg">
<path d="M270.95 18.4232C271.539 14.1462 265.502 10.6273 260.966 10.2613C258.803 10.0873 256.556 10.4173 254.506 9.70325C250.066 8.15525 248.292 2.41925 243.96 0.592252C240.721 -0.773748 236.992 0.442252 233.852 2.02225C230.712 3.60225 227.609 5.59125 224.101 5.81625C221.049 6.01125 217.736 4.88025 215.066 6.37025C213.076 7.48125 212.034 9.77325 210.201 11.1263C208.407 12.4493 206.067 12.7293 203.841 12.8503C201.615 12.9713 199.311 12.9932 197.284 13.9213C195.257 14.8493 193.58 16.9923 194.001 19.1813L270.95 18.4232Z" fill="#F5F5F5"/>
<path d="M221.056 105.261C221.917 99.0063 213.089 93.8603 206.455 93.3253C203.292 93.0703 200.006 93.5543 197.009 92.5093C190.516 90.2463 187.922 81.8573 181.586 79.1853C176.849 77.1873 171.396 78.9663 166.804 81.2773C162.212 83.5883 157.674 86.4973 152.544 86.8253C148.081 87.1113 143.236 85.4563 139.331 87.6363C136.422 89.2603 134.898 92.6133 132.216 94.5913C129.593 96.5263 126.17 96.9363 122.915 97.1133C119.66 97.2903 116.29 97.3233 113.326 98.6803C110.362 100.037 107.91 103.171 108.525 106.372L221.056 105.261Z" fill="#EBEBEB"/>
<path d="M120.371 47.8782C121.12 42.4372 113.44 37.9602 107.67 37.4952C104.918 37.2732 102.06 37.6942 99.453 36.7852C93.804 34.8162 91.548 27.5192 86.037 25.1942C81.917 23.4562 77.173 25.0032 73.178 27.0142C69.183 29.0242 65.236 31.5552 60.773 31.8402C56.891 32.0882 52.675 30.6492 49.279 32.5452C46.748 33.9582 45.422 36.8742 43.09 38.5952C40.808 40.2782 37.831 40.6352 34.999 40.7892C32.167 40.9432 29.236 40.9722 26.658 42.1522C24.08 43.3332 21.947 46.0592 22.482 48.8442L120.371 47.8782Z" fill="#F5F5F5"/>
<path d="M137.522 426.892H15.0569L14.5229 233.344H136.988L137.522 426.892Z" fill="#EBEBEB"/>
<path d="M136.989 233.344H75.756V426.892H136.989V233.344Z" fill="#E0E0E0"/>
<path d="M71.752 195.241H28.507V233.344H71.752V195.241Z" fill="#EBEBEB"/>
<path d="M71.753 195.241H61.446V233.344H71.753V195.241Z" fill="#E0E0E0"/>
<path d="M140.573 231.121H4.31799V233.343H140.573V231.121Z" fill="#E0E0E0"/>
<path d="M49.063 249.962H38.697V271.82H49.063V249.962Z" fill="white"/>
<path d="M75.756 280.398C75.756 280.629 62.048 280.815 45.141 280.815C28.229 280.815 14.5229 280.629 14.5229 280.398C14.5229 280.167 28.228 279.981 45.141 279.981C62.047 279.981 75.756 280.168 75.756 280.398Z" fill="#E0E0E0"/>
<path d="M110.829 249.962H100.463V271.82H110.829V249.962Z" fill="#F5F5F5"/>
<path d="M137.521 280.398C137.521 280.629 123.813 280.815 106.906 280.815C89.994 280.815 76.288 280.629 76.288 280.398C76.288 280.167 89.993 279.981 106.906 279.981C123.813 279.981 137.521 280.168 137.521 280.398Z" fill="#EBEBEB"/>
<path d="M110.829 293.358H100.463V315.216H110.829V293.358Z" fill="#F5F5F5"/>
<path d="M137.521 323.795C137.521 324.026 123.813 324.212 106.906 324.212C89.994 324.212 76.288 324.025 76.288 323.795C76.288 323.565 89.993 323.378 106.906 323.378C123.813 323.378 137.521 323.564 137.521 323.795Z" fill="#EBEBEB"/>
<path d="M110.829 338.064H100.463V359.922H110.829V338.064Z" fill="#F5F5F5"/>
<path d="M137.521 368.501C137.521 368.731 123.813 368.918 106.906 368.918C89.994 368.918 76.288 368.731 76.288 368.501C76.288 368.271 89.993 368.084 106.906 368.084C123.813 368.083 137.521 368.27 137.521 368.501Z" fill="#EBEBEB"/>
<path d="M110.829 382.77H100.463V404.628H110.829V382.77Z" fill="#F5F5F5"/>
<path d="M137.521 413.207C137.521 413.437 123.813 413.624 106.906 413.624C89.994 413.624 76.288 413.437 76.288 413.207C76.288 412.977 89.993 412.79 106.906 412.79C123.813 412.789 137.521 412.976 137.521 413.207Z" fill="#EBEBEB"/>
<path d="M49.063 294.021H38.697V315.879H49.063V294.021Z" fill="white"/>
<path d="M75.756 324.457C75.756 324.688 62.048 324.875 45.141 324.875C28.229 324.875 14.5229 324.688 14.5229 324.457C14.5229 324.227 28.228 324.04 45.141 324.04C62.047 324.04 75.756 324.227 75.756 324.457Z" fill="#E0E0E0"/>
<path d="M49.063 338.079H38.697V359.937H49.063V338.079Z" fill="white"/>
<path d="M75.756 368.516C75.756 368.746 62.048 368.933 45.141 368.933C28.229 368.933 14.5229 368.746 14.5229 368.516C14.5229 368.286 28.228 368.099 45.141 368.099C62.047 368.099 75.756 368.285 75.756 368.516Z" fill="#E0E0E0"/>
<path d="M49.063 382.138H38.697V403.996H49.063V382.138Z" fill="white"/>
<path d="M75.756 412.575C75.756 412.806 62.048 412.992 45.141 412.992C28.229 412.992 14.5229 412.805 14.5229 412.575C14.5229 412.345 28.228 412.158 45.141 412.158C62.047 412.158 75.756 412.345 75.756 412.575Z" fill="#E0E0E0"/>
<path d="M661.375 92.0632H555.912V426.3H661.375V92.0632Z" fill="#F5F5F5"/>
<path d="M661.376 92.0632H608.644V425.38H661.376V92.0632Z" fill="#EBEBEB"/>
<path d="M605.197 59.2493H567.955V92.0623H605.197V59.2493Z" fill="#F5F5F5"/>
<path d="M605.196 59.2493H596.32V92.0623H605.196V59.2493Z" fill="#EBEBEB"/>
<path d="M547.123 92.0632V90.1492H664.462V92.0632" fill="#E0E0E0"/>
<path d="M585.657 106.374H576.73V125.197H585.657V106.374Z" fill="#FAFAFA"/>
<path d="M608.644 132.585C608.644 132.784 596.838 132.944 582.279 132.944C567.715 132.944 555.912 132.783 555.912 132.585C555.912 132.386 567.715 132.226 582.279 132.226C596.838 132.225 608.644 132.386 608.644 132.585Z" fill="#E0E0E0"/>
<path d="M638.847 106.374H629.92V125.197H638.847V106.374Z" fill="#E0E0E0"/>
<path d="M661.834 132.585C661.834 132.784 650.029 132.944 635.469 132.944C620.905 132.944 609.102 132.783 609.102 132.585C609.102 132.386 620.905 132.226 635.469 132.226C650.029 132.225 661.834 132.386 661.834 132.585Z" fill="#E0E0E0"/>
<path d="M638.847 143.745H629.92V162.568H638.847V143.745Z" fill="#E0E0E0"/>
<path d="M661.834 169.957C661.834 170.155 650.029 170.316 635.469 170.316C620.905 170.316 609.102 170.155 609.102 169.957C609.102 169.758 620.905 169.598 635.469 169.598C650.029 169.597 661.834 169.758 661.834 169.957Z" fill="#E0E0E0"/>
<path d="M638.847 182.245H629.92V201.068H638.847V182.245Z" fill="#E0E0E0"/>
<path d="M661.834 208.456C661.834 208.655 650.029 208.815 635.469 208.815C620.905 208.815 609.102 208.654 609.102 208.456C609.102 208.257 620.905 208.097 635.469 208.097C650.029 208.097 661.834 208.257 661.834 208.456Z" fill="#E0E0E0"/>
<path d="M638.847 220.745H629.92V239.568H638.847V220.745Z" fill="#E0E0E0"/>
<path d="M661.834 246.955C661.834 247.154 650.029 247.315 635.469 247.315C620.905 247.315 609.102 247.154 609.102 246.955C609.102 246.757 620.905 246.596 635.469 246.596C650.029 246.596 661.834 246.757 661.834 246.955Z" fill="#E0E0E0"/>
<path d="M638.847 258.143H629.92V276.966H638.847V258.143Z" fill="#E0E0E0"/>
<path d="M661.834 284.354C661.834 284.553 650.029 284.714 635.469 284.714C620.905 284.714 609.102 284.553 609.102 284.354C609.102 284.156 620.905 283.995 635.469 283.995C650.029 283.995 661.834 284.155 661.834 284.354Z" fill="#E0E0E0"/>
<path d="M638.847 295.692H629.92V314.515H638.847V295.692Z" fill="#E0E0E0"/>
<path d="M638.847 333.733H629.92V352.556H638.847V333.733Z" fill="#E0E0E0"/>
<path d="M661.834 321.903C661.834 322.101 650.029 322.262 635.469 322.262C620.905 322.262 609.102 322.101 609.102 321.903C609.102 321.704 620.905 321.544 635.469 321.544C650.029 321.544 661.834 321.705 661.834 321.903Z" fill="#E0E0E0"/>
<path d="M585.657 144.316H576.73V163.139H585.657V144.316Z" fill="#FAFAFA"/>
<path d="M608.644 170.527C608.644 170.725 596.838 170.886 582.279 170.886C567.715 170.886 555.912 170.725 555.912 170.527C555.912 170.329 567.715 170.168 582.279 170.168C596.838 170.168 608.644 170.329 608.644 170.527Z" fill="#E0E0E0"/>
<path d="M585.657 182.258H576.73V201.081H585.657V182.258Z" fill="#FAFAFA"/>
<path d="M608.644 208.469C608.644 208.668 596.838 208.829 582.279 208.829C567.715 208.829 555.912 208.668 555.912 208.469C555.912 208.271 567.715 208.11 582.279 208.11C596.838 208.11 608.644 208.271 608.644 208.469Z" fill="#E0E0E0"/>
<path d="M585.657 220.201H576.73V239.024H585.657V220.201Z" fill="#FAFAFA"/>
<path d="M608.644 246.411C608.644 246.61 596.838 246.771 582.279 246.771C567.715 246.771 555.912 246.61 555.912 246.411C555.912 246.213 567.715 246.052 582.279 246.052C596.838 246.052 608.644 246.213 608.644 246.411Z" fill="#E0E0E0"/>
<path d="M585.657 258.143H576.73V276.966H585.657V258.143Z" fill="#FAFAFA"/>
<path d="M608.644 284.354C608.644 284.553 596.838 284.714 582.279 284.714C567.715 284.714 555.912 284.553 555.912 284.354C555.912 284.156 567.715 283.995 582.279 283.995C596.838 283.995 608.644 284.155 608.644 284.354Z" fill="#E0E0E0"/>
<path d="M585.657 296.085H576.73V314.908H585.657V296.085Z" fill="#FAFAFA"/>
<path d="M608.644 322.296C608.644 322.495 596.838 322.656 582.279 322.656C567.715 322.656 555.912 322.495 555.912 322.296C555.912 322.098 567.715 321.937 582.279 321.937C596.838 321.937 608.644 322.098 608.644 322.296Z" fill="#E0E0E0"/>
<path d="M585.657 334.027H576.73V352.85H585.657V334.027Z" fill="#FAFAFA"/>
<path d="M665.988 427.553C665.988 427.697 516.889 427.813 333.01 427.813C149.066 427.813 0 427.696 0 427.553C0 427.41 149.066 427.293 333.01 427.293C516.89 427.293 665.988 427.409 665.988 427.553Z" fill="#263238"/>
<path d="M540.851 427.553L395.642 427.467C378.178 427.458 364.026 413.295 364.029 395.831L364.1 31.8003C364.103 14.3263 378.275 0.166275 395.749 0.176275L540.959 0.261274C558.423 0.272274 572.574 14.4343 572.571 31.8973L572.5 395.929C572.497 413.403 558.326 427.564 540.851 427.553Z" fill="#455A64"/>
<path d="M541.868 11.0821L513.617 10.9521C509.829 10.9351 506.743 14.1321 506.727 18.0921L506.704 23.2161C506.688 27.1771 503.602 30.3741 499.814 30.3561L444.746 30.1021C440.958 30.0851 437.9 26.8591 437.917 22.8991L437.939 17.7751C437.955 13.8141 434.897 10.5891 431.108 10.5721L421.172 10.5261L396.445 10.4121C384.165 10.3561 374.166 20.2671 374.114 32.5481L372.607 389.111C372.555 401.386 382.46 411.379 394.734 411.436L540.156 412.107C552.435 412.163 562.435 402.252 562.487 389.972L563.994 33.4051C564.046 21.1311 554.141 11.1391 541.868 11.0821Z" fill="#F5F5F5"/>
<path d="M480.15 344.724C479.984 349.03 479.826 353.067 479.695 356.424H500.584L498.027 343.593L480.15 344.724Z" fill="#F5F5F5"/>
<path d="M395.254 350.095L395.436 356.425H477.609C477.748 352.87 477.902 348.926 478.059 344.857L395.254 350.095Z" fill="#F5F5F5"/>
<path d="M499.075 343.527L501.646 356.424H540.157L539.693 340.958L499.075 343.527Z" fill="#F5F5F5"/>
<path d="M482.235 163.236L489.518 121.016L470.445 119.603V163.236H482.235Z" fill="#EBEBEB"/>
<path d="M393.536 326.656L372.837 334.765L372.775 349.428L394.153 348.075L393.536 326.656Z" fill="#F5F5F5"/>
<path d="M393.441 323.358L392.31 284.036L392.294 284.037V270.169L373.102 272.202L372.851 331.401L393.433 323.338L393.441 323.358Z" fill="#EBEBEB"/>
<path d="M392.294 239.211L373.252 236.697L373.115 269.057L392.294 267.026V239.211Z" fill="#F5F5F5"/>
<path d="M534.226 270.754L533.424 282.023L510.935 284.449L512.675 293.365L538.206 291.441L537.823 278.654L539.859 270.185L534.226 270.754Z" fill="#F5F5F5"/>
<path d="M493.692 294.796L511.629 293.444L507.722 273.429L492.067 275.009L493.692 294.796Z" fill="#F5F5F5"/>
<path d="M493.862 296.873L495.233 313.564L497.666 336.453L498.664 341.465L539.63 338.874L538.269 293.526L493.862 296.873Z" fill="#EBEBEB"/>
<path d="M423.355 218.079L424.93 220.78L393.336 239.208V282.919L426.68 280.56L490.944 274.075L488.591 245.422L427.198 237.402L427.603 234.302L488.329 242.235L484.347 193.742L424.241 199.521L424.042 197.446L484.177 191.664L482.099 166.362H424.284L373.51 175.602L373.265 233.545L392.49 236.082L423.355 218.079ZM396.572 278.748C396.572 278.748 396.81 242.704 396.572 241.358L422.351 227.644L425.693 276.906L396.572 278.748Z" fill="#F5F5F5"/>
<path d="M532.121 270.966L508.764 273.324L510.534 282.396L531.469 280.138L532.121 270.966Z" fill="#F5F5F5"/>
<path d="M480.447 337.003C480.375 338.895 480.302 340.781 480.231 342.631L497.616 341.531L496.723 337.047L480.447 337.003Z" fill="#F5F5F5"/>
<path d="M443 163.236L446.066 149.35H469.403V119.525L396.424 114.12V142.124L373.629 147.28L373.523 172.421L424.002 163.236H443Z" fill="#EBEBEB"/>
<path d="M491.697 80.2471L491.075 77.6911L518.943 66.6621L500.816 30.2751C500.488 30.3241 500.156 30.3571 499.815 30.3551L469.018 30.2131L469.856 81.1391L491.697 80.2471Z" fill="#F5F5F5"/>
<path d="M533.931 60.7312L533.899 11.0452L513.617 10.9522C509.829 10.9352 506.743 14.1322 506.727 18.0912L506.704 23.2162C506.694 25.6602 505.513 27.8112 503.722 29.0972L521.861 65.5082L533.931 60.7312Z" fill="#EBEBEB"/>
<path d="M429.167 62.8631L426.817 10.5501L421.173 10.5241L399.131 10.4221L389.741 57.2031L429.167 62.8631ZM424.143 15.8521L424.894 58.4551L395.596 54.1681L402.012 15.8521H424.143Z" fill="#F5F5F5"/>
<path d="M430.231 63.0161L430.237 63.4621C430.287 67.5441 430.371 74.8921 430.432 82.7501L468.814 81.1821L467.975 30.2091L444.746 30.1021C440.958 30.0851 437.9 26.8601 437.917 22.8991L437.939 17.7751C437.955 13.8141 434.897 10.5891 431.108 10.5721L427.86 10.5571L430.217 63.0161H430.231Z" fill="#F5F5F5"/>
<path d="M386.641 56.7581L395.94 10.4331C383.895 10.6501 374.166 20.4361 374.115 32.5451L374.017 55.6391L374.115 54.9591L386.641 56.7581Z" fill="#F5F5F5"/>
<path d="M393.297 113.888L373.777 112.442L373.643 144.071L393.297 139.626V113.888Z" fill="#F5F5F5"/>
<path d="M386.435 57.7823L374.016 55.9993L373.799 107.218L376.472 107.417L386.435 57.7823Z" fill="#F5F5F5"/>
<path d="M425.864 322.761L426.191 281.639L393.351 283.962L394.51 324.248L425.864 322.761Z" fill="#F5F5F5"/>
<path d="M431.905 313.271L478.416 335.551C478.97 320.991 479.465 307.376 479.419 306.508L480.427 306.454L480.919 305.472C481.58 305.803 481.58 305.803 481.233 315.728C481.04 321.266 480.765 328.635 480.484 336.007H496.569L494.194 313.661L491.029 275.113L430.261 281.246L431.905 313.271Z" fill="#F5F5F5"/>
<path d="M545.911 245.024L545.386 239.603L489.636 245.401L491.982 273.97L540.117 269.112L545.911 245.024Z" fill="#F5F5F5"/>
<path d="M469.403 152.477H448.578L446.202 163.236H469.403V152.477Z" fill="#F5F5F5"/>
<path d="M537.302 156.108L485.145 152.5L483.019 164.822L485.215 191.564L540.223 186.275L537.302 156.108ZM487.063 164.799L489.862 157.023L535.164 159.888L537.786 182.135L488.596 187.968L487.063 164.799Z" fill="#F5F5F5"/>
<path d="M542.714 212.004L540.424 188.35L485.386 193.642L487.453 218.813L542.714 212.004Z" fill="#F5F5F5"/>
<path d="M394.213 350.16L372.86 351.511L372.772 350.121L372.746 356.424H394.393L394.213 350.16Z" fill="#F5F5F5"/>
<path d="M563.611 48.9863L563.925 49.7803L563.994 33.4053C564.045 21.1323 554.141 11.1393 541.868 11.0823L534.941 11.0503L534.973 60.3193L563.611 48.9863Z" fill="#EBEBEB"/>
<path d="M478.372 336.686L430.896 313.942L429.223 281.351L427.234 281.552L426.897 323.755L394.539 325.29L394.566 326.231L394.573 326.25L394.567 326.253L395.193 348.011L478.139 342.764C478.217 340.745 478.295 338.711 478.372 336.686ZM396.572 327.972L441.863 324.793L471.329 338.464L396.572 342.51V327.972Z" fill="#F5F5F5"/>
<path d="M550.117 103.706L552.059 92.1862C535.035 86.1102 533.856 68.3572 533.907 62.9822L522.793 67.3802L539.525 100.969L550.117 103.706Z" fill="#F5F5F5"/>
<path d="M489.38 242.285L512.527 239.877L507.965 219.435L487.709 221.931L489.38 242.285Z" fill="#F5F5F5"/>
<path d="M539.315 123.752L496.081 123.744L492.493 123.479L487.61 151.788L538.927 155.338L537.735 143.03L542.786 124.848L539.315 123.752Z" fill="#F5F5F5"/>
<path d="M536.325 116.155L536.866 102.642L519.875 68.5352L493.529 78.9612L502.586 116.154L536.325 116.155ZM518.849 72.6842L534.419 102.305L532.17 111.536L505.529 110.533L498.869 82.5162L518.849 72.6842Z" fill="#F5F5F5"/>
<path d="M543.052 279.195L543.849 305.736L562.579 304.682L562.638 305.723L543.88 306.778L544.834 338.544L562.543 337.424L562.675 339.504L544.896 340.629L545.37 356.424H562.629L563.003 267.85L545.352 269.631L543.052 279.195Z" fill="#F5F5F5"/>
<path d="M429.2 63.9213L389.535 58.2273L379.615 107.649L429.375 111.335C429.574 103.726 429.4 80.3873 429.2 63.9213Z" fill="#EBEBEB"/>
<path d="M494.44 116.155H500.441L491.948 81.2793L469.873 82.1813L470.403 114.374L494.44 116.155Z" fill="#F5F5F5"/>
<path d="M372.638 381.796L372.607 389.109C372.606 389.335 372.632 389.553 372.638 389.778V381.796Z" fill="#F5F5F5"/>
<path d="M430.391 111.41L469.36 114.297L468.832 82.2241L430.441 83.7931C430.521 94.6391 430.553 106.208 430.391 111.41Z" fill="#F5F5F5"/>
<path d="M543.015 215.116L509.004 219.307L513.571 239.769L545.084 236.49L543.015 215.116Z" fill="#F5F5F5"/>
<path d="M552.235 91.1422L554.414 78.2142L563.802 78.9442L563.92 51.1052L534.961 62.5662C534.371 82.1552 546.676 89.0442 552.235 91.1422Z" fill="#EBEBEB"/>
<path d="M541.085 141.106L542.267 153.317L563.481 154.785L563.588 129.641L545.827 124.032L541.085 141.106Z" fill="#F5F5F5"/>
<path d="M551.182 245.392L545.611 268.558L563.009 266.802L563.112 242.509C557.773 241.103 553.114 239.958 550.61 239.475L551.182 245.392Z" fill="#F5F5F5"/>
<path d="M539.439 116.55L563.611 124.183L563.669 110.437L539.929 104.303L539.439 116.55Z" fill="#F5F5F5"/>
<path d="M550.301 236.295C552.249 236.589 555.941 237.373 563.124 239.261L563.349 186.145L545.611 187.851L550.301 236.295Z" fill="#F5F5F5"/>
<path d="M545.409 185.776L563.358 184.05L563.468 157.919L542.572 156.473L545.409 185.776Z" fill="#F5F5F5"/>
<path d="M554.238 91.8002C557.64 92.8352 560.805 93.6352 563.737 94.2222L563.793 81.0342L556.152 80.4392L554.238 91.8002Z" fill="#F5F5F5"/>
<path d="M552.144 104.23L563.683 107.212L563.734 95.2942C560.749 94.6962 557.528 93.8842 554.065 92.8352L552.144 104.23Z" fill="#F5F5F5"/>
<path d="M562.675 339.504L562.543 337.423L544.834 338.543L543.88 306.777L562.638 305.722L562.579 304.682L543.848 305.736L543.051 279.195L545.351 269.631L563.002 267.85L563.007 266.803L545.609 268.559L551.18 245.393L550.607 239.477C553.11 239.959 557.769 241.105 563.109 242.511L563.122 239.262C555.939 237.374 552.247 236.589 550.299 236.296L545.609 187.853L563.347 186.147L563.356 184.052L545.408 185.778L542.571 156.475L563.467 157.921L563.48 154.788L542.266 153.32L541.084 141.109L545.827 124.035L563.587 129.644L563.61 124.187L539.438 116.554L539.928 104.307L563.668 110.441L563.681 107.216L552.142 104.234L554.062 92.8392C557.525 93.8882 560.746 94.7002 563.731 95.2982L563.736 94.2262C560.804 93.6382 557.639 92.8382 554.237 91.8042L556.151 80.4432L563.792 81.0382L563.8 78.9482L554.412 78.2182L552.233 91.1462C546.674 89.0482 534.369 82.1592 534.958 62.5692L563.917 51.1082L563.923 49.7832L563.609 48.9892L534.971 60.3222L534.939 11.0532L533.897 11.0482L533.929 60.7342L521.859 65.5112L503.722 29.0972C502.872 29.7082 501.883 30.1172 500.816 30.2752L518.943 66.6622L491.075 77.6912L491.697 80.2472L469.857 81.1392L469.019 30.2132L467.976 30.2082L468.815 81.1812L430.433 82.7492C430.372 74.8912 430.288 67.5432 430.238 63.4612L430.232 63.0152L430.218 63.0132L427.861 10.5542L426.818 10.5492L429.168 62.8622L389.742 57.2022L399.132 10.4212L396.447 10.4092C396.276 10.4082 396.11 10.4292 395.94 10.4322L386.641 56.7572L374.115 54.9592L374.017 55.6392L374.016 55.9982L386.436 57.7812L376.473 107.415L373.799 107.217L373.777 112.441L393.297 113.887V139.625L373.643 144.07L373.629 147.279L396.423 142.123V114.118L469.402 119.524V149.349H446.065L442.999 163.234H424.001L373.522 172.42L373.509 175.6L424.283 166.36H482.099L484.177 191.662L424.042 197.444L424.241 199.519L484.347 193.74L488.329 242.233L427.603 234.3L427.198 237.4L488.591 245.42L490.944 274.073L426.68 280.558L393.336 282.917V239.206L424.93 220.778L423.355 218.077L392.49 236.079L373.265 233.542L373.252 236.694L392.294 239.208V267.023L373.115 269.055L373.102 272.2L392.294 270.167V284.037L392.31 284.036L393.442 323.358L393.434 323.338L372.852 331.401L372.838 334.764L393.537 326.655L394.153 348.075L372.775 349.427L372.772 350.12L372.86 351.51L394.213 350.159L394.393 356.423H395.436L395.254 350.093L478.059 344.855C477.902 348.923 477.748 352.868 477.609 356.423H479.695C479.826 353.066 479.984 349.028 480.15 344.723L498.026 343.592L500.583 356.423H501.645L499.075 343.526L539.692 340.957L540.156 356.423H545.37M480.231 342.631C480.302 340.781 480.375 338.895 480.447 337.003L496.722 337.047L497.615 341.531L480.231 342.631ZM498.664 341.465L497.665 336.454L495.232 313.564L493.861 296.874L538.268 293.527L539.629 338.874L498.664 341.465ZM508.764 273.324L532.121 270.967L531.469 280.138L510.534 282.396L508.764 273.324ZM507.722 273.429L511.629 293.444L493.692 294.796L492.067 275.009L507.722 273.429ZM538.206 291.441L512.675 293.365L510.935 284.449L533.425 282.023L534.227 270.754L539.86 270.185L537.823 278.654L538.206 291.441ZM507.965 219.435L512.526 239.878L489.379 242.286L487.708 221.932L507.965 219.435ZM513.571 239.769L509.005 219.307L543.016 215.116L545.085 236.49L513.571 239.769ZM536.996 152.953L485.679 149.402L490.562 121.093L494.15 121.359L537.384 121.366L540.855 122.462L535.804 140.644L536.996 152.953ZM533.907 62.9822C533.857 68.3562 535.035 86.1102 552.059 92.1862L550.117 103.706L539.525 100.969L522.793 67.3802L533.907 62.9822ZM519.875 68.5352L536.866 102.642L536.325 116.155H502.586L493.529 78.9622L519.875 68.5352ZM491.948 81.2792L500.441 116.155H494.44L470.403 114.374L469.873 82.1812L491.948 81.2792ZM468.831 82.2242L469.359 114.297L430.39 111.41C430.553 106.208 430.52 94.6382 430.439 83.7922L468.831 82.2242ZM389.535 58.2272L429.2 63.9212C429.4 80.3872 429.574 103.726 429.375 111.335L379.615 107.649L389.535 58.2272ZM489.518 121.016L482.235 163.236H470.445V119.603L489.518 121.016ZM448.578 152.477H469.403V163.236H446.202L448.578 152.477ZM483.019 164.822L485.145 152.5L537.302 156.108L540.223 186.275L485.215 191.564L483.019 164.822ZM540.424 188.35L542.714 212.004L487.453 218.813L485.386 193.642L540.424 188.35ZM489.636 245.401L545.386 239.602L545.911 245.023L540.117 269.111L491.982 273.969L489.636 245.401ZM494.195 313.661L496.57 336.007H480.485C480.765 328.635 481.041 321.266 481.234 315.728C481.581 305.803 481.581 305.803 480.92 305.472L480.428 306.454L479.42 306.508C479.467 307.375 478.971 320.99 478.417 335.551L431.906 313.271L430.263 281.246L491.031 275.113L494.195 313.661ZM426.191 281.639L425.863 322.761L394.509 324.248L393.35 283.962L426.191 281.639ZM394.568 326.252L394.574 326.249L394.567 326.23L394.54 325.289L426.898 323.754L427.235 281.551L429.224 281.35L430.897 313.941L478.373 336.685C478.296 338.709 478.218 340.744 478.14 342.762L395.194 348.009L394.568 326.252Z" fill="white"/>
<path d="M441.863 324.793L396.572 327.972V342.511L471.33 338.465L441.863 324.793Z" fill="#E0E0E0"/>
<path d="M535.164 159.888L489.862 157.023L487.063 164.799L488.597 187.967L537.786 182.134L535.164 159.888Z" fill="#E0E0E0"/>
<path d="M425.782 61.1762L425.03 18.5742H402.9L396.484 56.8892L425.782 61.1762Z" fill="#E0E0E0"/>
<path d="M532.17 111.535L534.419 102.305L518.849 72.6843L498.869 82.5153L505.529 110.532L532.17 111.535Z" fill="#EBEBEB"/>
<path d="M396.572 241.358C396.81 242.704 396.572 278.748 396.572 278.748L425.693 276.906L422.351 227.644L396.572 241.358Z" fill="#E0E0E0"/>
<path d="M493.699 270.629L492.159 248.291L542.105 241.872V245.724L536.065 266.264L493.699 270.629Z" fill="#E0E0E0"/>
<path d="M540.262 327.536L539.635 312.968L495.729 315.102C494.575 315.155 493.432 314.914 492.41 314.397L430.138 282.945C428.697 282.218 427.75 280.764 427.667 279.151L419.19 114.759C419.149 113.972 419.449 113.204 420.013 112.653C420.577 112.1 421.357 111.824 422.139 111.875L448.828 113.852V84.6763H451.954V114.257C451.954 115.019 451.634 115.753 451.075 116.273C450.517 116.792 449.763 117.056 449 117.001L422.334 115.026L430.789 278.992C430.814 279.487 431.105 279.933 431.547 280.156L493.821 311.608C494.363 311.882 494.97 312.015 495.577 311.982L539.846 309.829C540.6 309.791 541.297 310.05 541.845 310.55C542.391 311.05 542.71 311.732 542.743 312.472L543.386 327.404L540.262 327.536Z" fill="white"/>
<path d="M292.803 121.851L285.455 108.902C288.705 103.626 290.584 97.4154 290.584 90.7634C290.584 71.6344 275.077 56.1274 255.948 56.1274C236.819 56.1274 221.312 71.6344 221.312 90.7634C221.312 109.892 236.819 125.399 255.948 125.399C263.935 125.399 271.285 122.688 277.145 118.146L277.133 118.162L292.803 121.851Z" fill="white"/>
<path d="M292.802 121.851C291.902 121.647 287.034 120.542 277.103 118.287C277.034 118.271 276.99 118.202 277.006 118.133C277.01 118.115 277.019 118.096 277.03 118.082L277.042 118.067L277.224 118.248C273.307 121.318 267.667 124.308 260.589 125.271C258.828 125.497 256.989 125.642 255.098 125.551C254.153 125.498 253.192 125.475 252.222 125.394C251.258 125.249 250.281 125.101 249.291 124.952C245.364 124.178 241.348 122.688 237.602 120.365C233.858 118.05 230.391 114.906 227.612 111.042C224.837 107.185 222.733 102.611 221.747 97.6413C220.771 92.6773 220.852 87.3573 222.155 82.2083C223.468 77.0763 225.92 72.0633 229.591 67.9393C233.306 63.7263 237.898 60.3543 242.959 58.3953C247.999 56.3953 253.374 55.6343 258.511 56.0073C263.65 56.3773 268.566 57.8523 272.784 60.2273C277.014 62.5833 280.582 65.7283 283.334 69.2413C286.095 72.7553 288.04 76.6313 289.243 80.4913C290.439 84.3683 290.761 88.2133 290.746 91.7723C290.541 98.9403 288.137 104.826 285.561 108.968L285.563 108.841C290.157 117.096 292.374 121.08 292.802 121.851C292.361 121.088 290.077 117.142 285.346 108.964C285.323 108.924 285.326 108.874 285.348 108.837C287.872 104.703 290.216 98.8573 290.386 91.7623C290.383 88.2393 290.05 84.4393 288.855 80.6113C287.652 76.8013 285.719 72.9803 282.984 69.5173C280.257 66.0563 276.73 62.9613 272.553 60.6453C268.389 58.3103 263.54 56.8653 258.475 56.5063C253.41 56.1453 248.116 56.9003 243.152 58.8733C238.167 60.8043 233.645 64.1293 229.985 68.2793C226.368 72.3413 223.952 77.2793 222.656 82.3333C221.369 87.4043 221.284 92.6493 222.24 97.5423C223.205 102.442 225.273 106.953 228.002 110.763C230.736 114.579 234.15 117.689 237.839 119.984C241.531 122.287 245.492 123.771 249.37 124.549C250.348 124.7 251.313 124.849 252.265 124.996C253.223 125.079 254.174 125.105 255.108 125.161C256.977 125.259 258.798 125.123 260.541 124.907C267.548 123.986 273.154 121.059 277.066 118.042C277.122 117.998 277.204 118.008 277.248 118.064C277.285 118.112 277.283 118.177 277.248 118.223L277.236 118.238L277.163 118.033C287.056 120.449 291.907 121.632 292.802 121.851Z" fill="#263238"/>
<path d="M241.509 91.3442L245.577 87.2752L253.425 94.2502L268.828 79.4282L272.606 83.4972L252.843 102.098L241.509 91.3442Z" fill="#263238"/>
<path d="M130.177 428.053H99.9631V311.916H100.963V427.053H130.176L403.937 426.582L397.494 282.466L465.756 276.114L491.439 273.521L488.755 243.805L484.679 191.12L542.046 184.851L540.377 155.393L518.644 150.128L518.88 149.157L541.333 154.596L543.099 185.742L485.752 192.008L489.752 243.722L492.524 274.418L465.852 277.109L398.535 283.374L404.982 427.58L130.177 428.053Z" fill="#BA68C8"/>
<path d="M535.177 125.466C535.177 115.325 526.044 107.325 515.58 109.296C508.998 110.535 503.754 115.928 502.601 122.547C501.88 126.684 502.731 130.576 504.612 133.788H504.603L504.65 133.85C505.28 134.914 506.068 135.676 506.865 136.794L516.396 149.462C517.582 151.039 519.942 151.038 521.128 149.462L530.5 137.003C530.5 137.003 532.249 134.91 532.884 133.834L532.918 133.789H532.911C534.342 131.343 535.177 128.505 535.177 125.466Z" fill="#BA68C8"/>
<path d="M518.762 135.416C513.351 135.416 508.964 131.014 508.964 125.585C508.964 120.155 513.351 115.754 518.762 115.754C524.174 115.754 528.56 120.155 528.56 125.585C528.56 131.014 524.173 135.416 518.762 135.416Z" fill="white"/>
<path d="M518.762 135.416C518.757 135.349 519.637 135.401 521.133 135.009C522.601 134.623 524.752 133.628 526.408 131.415C527.217 130.319 527.903 128.941 528.174 127.356C528.436 125.782 528.383 124.009 527.74 122.322C527.445 121.473 526.998 120.654 526.437 119.901C525.886 119.139 525.201 118.448 524.408 117.878C522.845 116.699 520.835 116.034 518.763 116.014C516.69 116.033 514.679 116.697 513.116 117.877C512.323 118.448 511.637 119.139 511.087 119.901C510.525 120.654 510.078 121.473 509.783 122.322C509.14 124.009 509.087 125.783 509.349 127.357C509.621 128.942 510.307 130.319 511.116 131.416C512.772 133.629 514.923 134.623 516.391 135.009C517.887 135.401 518.767 135.349 518.762 135.416C518.762 135.416 517.885 135.544 516.342 135.206C514.83 134.872 512.582 133.907 510.824 131.639C509.965 130.516 509.23 129.09 508.926 127.437C508.632 125.796 508.671 123.938 509.333 122.16C509.637 121.266 510.101 120.402 510.687 119.606C511.263 118.802 511.981 118.071 512.814 117.467C514.456 116.22 516.579 115.512 518.764 115.494C520.948 115.513 523.071 116.221 524.712 117.468C525.545 118.073 526.263 118.803 526.838 119.607C527.424 120.402 527.888 121.266 528.192 122.16C528.853 123.938 528.893 125.795 528.599 127.436C528.296 129.089 527.561 130.515 526.702 131.638C524.943 133.906 522.696 134.872 521.183 135.206C519.639 135.544 518.762 135.416 518.762 135.416Z" fill="#263238"/>
<path d="M521.921 126.713C521.921 127.836 521.033 128.485 519.332 128.485H515.984V121.991H519.146C520.764 121.991 521.596 122.668 521.596 123.68C521.596 124.329 521.264 124.83 520.737 125.109C521.458 125.34 521.921 125.897 521.921 126.713ZM517.473 123.123V124.654H518.962C519.693 124.654 520.09 124.394 520.09 123.884C520.09 123.374 519.693 123.123 518.962 123.123H517.473ZM520.414 126.555C520.414 126.008 519.998 125.748 519.222 125.748H517.474V127.353H519.222C519.998 127.353 520.414 127.112 520.414 126.555Z" fill="#263238"/>
<path d="M431.389 78.2012C431.389 66.5322 420.879 57.3273 408.84 59.5943C401.267 61.0203 395.232 67.2262 393.906 74.8412C393.077 79.6012 394.056 84.0802 396.22 87.7752H396.21L396.264 87.8462C396.988 89.0712 397.896 89.9473 398.812 91.2332L409.779 105.809C411.144 107.623 413.859 107.623 415.223 105.809L426.007 91.4732C426.007 91.4732 428.02 89.0643 428.75 87.8263L428.789 87.7743H428.781C430.429 84.9643 431.389 81.6992 431.389 78.2012Z" fill="#BA68C8"/>
<path d="M412.501 88.8424C406.661 88.8424 401.926 84.0914 401.926 78.2314C401.926 72.3714 406.661 67.6204 412.501 67.6204C418.342 67.6204 423.076 72.3714 423.076 78.2314C423.076 84.0914 418.342 88.8424 412.501 88.8424Z" fill="white"/>
<path d="M412.501 88.8423C412.496 88.7733 413.446 88.8313 415.062 88.4113C416.648 87.9963 418.973 86.9244 420.765 84.5334C421.64 83.3494 422.382 81.8604 422.677 80.1474C422.961 78.4464 422.904 76.5284 422.21 74.7044C421.891 73.7854 421.409 72.9003 420.802 72.0863C420.206 71.2623 419.465 70.5154 418.608 69.8974C416.919 68.6214 414.744 67.9033 412.504 67.8813C410.262 67.9023 408.087 68.6203 406.397 69.8963C405.539 70.5143 404.798 71.2614 404.202 72.0854C403.595 72.9004 403.112 73.7854 402.793 74.7044C402.098 76.5294 402.041 78.4464 402.326 80.1484C402.621 81.8614 403.363 83.3503 404.238 84.5343C406.03 86.9253 408.355 87.9963 409.941 88.4113C411.556 88.8313 412.506 88.7733 412.501 88.8423C412.501 88.8423 411.555 88.9743 409.89 88.6073C408.26 88.2443 405.838 87.2013 403.943 84.7563C403.018 83.5453 402.226 82.0073 401.9 80.2263C401.584 78.4573 401.627 76.4564 402.34 74.5404C402.668 73.5764 403.168 72.6464 403.8 71.7894C404.42 70.9224 405.194 70.1364 406.092 69.4854C407.861 68.1424 410.148 67.3794 412.502 67.3604C414.855 67.3814 417.141 68.1434 418.91 69.4864C419.807 70.1374 420.581 70.9244 421.201 71.7904C421.833 72.6474 422.333 73.5774 422.661 74.5414C423.374 76.4564 423.417 78.4573 423.101 80.2263C422.775 82.0073 421.984 83.5443 421.058 84.7563C419.164 87.2023 416.742 88.2454 415.111 88.6084C413.447 88.9744 412.501 88.8423 412.501 88.8423Z" fill="#263238"/>
<path d="M414.101 79.3453H410.858L410.239 80.8473H408.583L411.696 73.8403H413.293L416.417 80.8473H414.721L414.101 79.3453ZM413.592 78.1143L412.485 75.4313L411.377 78.1143H413.592Z" fill="#263238"/>
<path d="M483.434 165.322H422.589L421.839 115.423L410.633 112.84V104.303H411.633V112.044L422.828 114.624L423.574 164.322H482.604L485.262 150.155L518.748 149.143L518.777 150.143L486.096 151.13L483.434 165.322Z" fill="#BA68C8"/>
<path d="M481.286 251.791C481.286 241.65 472.153 233.65 461.689 235.621C455.108 236.86 449.863 242.253 448.71 248.872C447.989 253.009 448.84 256.901 450.721 260.113H450.712L450.758 260.175C451.388 261.239 452.176 262 452.973 263.119L462.504 275.787C463.69 277.364 466.05 277.363 467.236 275.787L476.608 263.328C476.608 263.328 478.357 261.235 478.992 260.159L479.026 260.114H479.019C480.451 257.668 481.286 254.83 481.286 251.791Z" fill="#BA68C8"/>
<path d="M464.871 261.741C470.282 261.741 474.669 257.34 474.669 251.91C474.669 246.481 470.282 242.079 464.871 242.079C459.46 242.079 455.073 246.481 455.073 251.91C455.073 257.34 459.46 261.741 464.871 261.741Z" fill="white"/>
<path d="M464.871 261.741C464.866 261.674 465.746 261.726 467.242 261.334C468.71 260.947 470.861 259.953 472.517 257.74C473.326 256.644 474.012 255.266 474.283 253.681C474.545 252.107 474.492 250.334 473.849 248.647C473.554 247.798 473.107 246.979 472.546 246.226C471.995 245.464 471.31 244.773 470.517 244.203C468.955 243.024 466.944 242.359 464.872 242.339C462.799 242.358 460.788 243.023 459.225 244.202C458.432 244.773 457.747 245.464 457.195 246.226C456.633 246.979 456.187 247.798 455.891 248.648C455.248 250.335 455.195 252.109 455.457 253.683C455.729 255.268 456.414 256.645 457.224 257.742C458.88 259.955 461.031 260.949 462.499 261.335C463.996 261.726 464.876 261.674 464.871 261.741C464.871 261.741 463.994 261.869 462.45 261.531C460.938 261.197 458.69 260.232 456.932 257.964C456.073 256.841 455.338 255.415 455.034 253.762C454.74 252.121 454.779 250.263 455.441 248.485C455.745 247.591 456.209 246.727 456.795 245.931C457.371 245.127 458.089 244.397 458.922 243.792C460.564 242.545 462.687 241.837 464.872 241.819C467.056 241.838 469.179 242.546 470.82 243.793C471.653 244.398 472.371 245.128 472.946 245.932C473.532 246.727 473.996 247.591 474.3 248.485C474.961 250.263 475.001 252.12 474.707 253.761C474.404 255.414 473.669 256.84 472.81 257.963C471.051 260.231 468.804 261.196 467.291 261.531C465.748 261.869 464.871 261.741 464.871 261.741Z" fill="#263238"/>
<path d="M461.687 251.563C461.687 249.605 463.185 248.205 465.201 248.205C466.32 248.205 467.254 248.613 467.864 249.355L466.903 250.246C466.469 249.745 465.923 249.485 465.275 249.485C464.064 249.485 463.204 250.338 463.204 251.563C463.204 252.788 464.064 253.641 465.275 253.641C465.922 253.641 466.468 253.381 466.903 252.87L467.864 253.761C467.254 254.513 466.32 254.921 465.192 254.921C463.185 254.921 461.687 253.521 461.687 251.563Z" fill="#263238"/>
<path d="M149.138 239.969C149.138 209.899 122.055 186.176 91.0281 192.02C71.5121 195.695 55.9611 211.687 52.5421 231.312C50.4051 243.58 52.9291 255.12 58.5061 264.644H58.4791L58.6171 264.828C60.4841 267.984 62.8221 270.241 65.1851 273.557L93.4471 311.121C96.9631 315.796 103.961 315.795 107.477 311.121L135.268 274.177C135.268 274.177 140.455 267.97 142.338 264.779L142.438 264.646H142.418C146.663 257.396 149.138 248.982 149.138 239.969Z" fill="#BA68C8"/>
<path d="M100.463 269.474C116.509 269.474 129.516 256.423 129.516 240.323C129.516 224.224 116.509 211.172 100.463 211.172C84.4175 211.172 71.41 224.224 71.41 240.323C71.41 256.423 84.4175 269.474 100.463 269.474Z" fill="white"/>
<path d="M100.463 269.474C100.463 269.474 100.623 269.448 100.934 269.424C101.267 269.401 101.726 269.369 102.315 269.328C102.62 269.309 102.959 269.287 103.331 269.264C103.703 269.222 104.106 269.142 104.545 269.075C105.422 268.935 106.438 268.799 107.543 268.461C109.787 267.942 112.438 266.885 115.243 265.217C118.037 263.537 120.953 261.118 123.424 257.83C125.872 254.552 127.953 250.42 128.79 245.654C128.958 244.46 129.202 243.252 129.208 242.002C129.229 241.379 129.289 240.752 129.279 240.119C129.246 239.487 129.213 238.85 129.18 238.208C129.158 237.888 129.159 237.564 129.118 237.243L128.97 236.28C128.864 235.637 128.787 234.984 128.656 234.338C128.308 233.064 128.053 231.743 127.53 230.488C127.116 229.193 126.481 227.973 125.881 226.722C125.555 226.11 125.168 225.527 124.811 224.923C124.469 224.308 124.047 223.742 123.615 223.179C122.811 222.005 121.809 220.975 120.84 219.9C119.769 218.927 118.721 217.904 117.503 217.065C115.124 215.34 112.476 213.839 109.565 212.926C106.672 211.981 103.597 211.472 100.467 211.43C97.3371 211.471 94.2601 211.979 91.3661 212.924C88.4541 213.836 85.8051 215.338 83.4251 217.063C82.2071 217.902 81.1591 218.925 80.0871 219.898C79.1181 220.974 78.1151 222.003 77.3111 223.177C76.8791 223.741 76.4571 224.306 76.1151 224.921C75.7591 225.525 75.3721 226.109 75.0451 226.72C74.4451 227.972 73.8091 229.191 73.3951 230.487C72.8711 231.742 72.6161 233.063 72.2691 234.337C72.1371 234.983 72.0611 235.637 71.9551 236.28L71.8071 237.243C71.7661 237.564 71.7671 237.888 71.7451 238.208C71.7121 238.85 71.6791 239.487 71.6461 240.119C71.6361 240.751 71.6961 241.379 71.7171 242.002C71.7231 243.253 71.9671 244.46 72.1361 245.655C72.9731 250.421 75.0551 254.553 77.5031 257.831C79.9751 261.119 82.8901 263.538 85.6841 265.218C88.4891 266.885 91.1401 267.942 93.3831 268.461C94.4881 268.799 95.5041 268.935 96.3811 269.075C96.8201 269.142 97.2231 269.222 97.5951 269.264C97.9671 269.287 98.3061 269.309 98.6111 269.328C99.2001 269.369 99.6581 269.401 99.9911 269.424C100.303 269.448 100.463 269.474 100.463 269.474C100.463 269.474 100.303 269.484 99.9911 269.477C99.6561 269.466 99.1961 269.452 98.6051 269.433C98.2981 269.421 97.9571 269.408 97.5831 269.394C97.2091 269.361 96.8021 269.288 96.3601 269.229C95.4761 269.104 94.4511 268.983 93.3341 268.658C91.0671 268.165 88.3831 267.129 85.5351 265.468C82.6991 263.795 79.7321 261.369 77.2101 258.054C74.7121 254.749 72.5811 250.569 71.7121 245.735C71.5361 244.524 71.2851 243.298 71.2731 242.029C71.2491 241.397 71.1861 240.76 71.1941 240.118C71.2251 239.476 71.2571 238.829 71.2881 238.177C71.3091 237.852 71.3081 237.523 71.3481 237.197L71.4951 236.218C71.6011 235.565 71.6771 234.901 71.8091 234.243C72.1571 232.947 72.4151 231.604 72.9431 230.326C73.3611 229.008 74.0031 227.766 74.6121 226.492C74.9431 225.869 75.3341 225.275 75.6961 224.66C76.0431 224.034 76.4711 223.458 76.9091 222.884C77.7251 221.689 78.7431 220.639 79.7281 219.544C80.8161 218.552 81.8831 217.51 83.1201 216.655C85.5401 214.897 88.2351 213.366 91.2001 212.435C94.1471 211.471 97.2791 210.953 100.465 210.912C103.65 210.953 106.782 211.473 109.727 212.437C112.69 213.369 115.385 214.898 117.804 216.657C119.041 217.512 120.108 218.554 121.195 219.546C122.18 220.641 123.197 221.691 124.013 222.886C124.451 223.46 124.878 224.037 125.226 224.662C125.588 225.277 125.979 225.871 126.31 226.494C126.919 227.768 127.56 229.01 127.979 230.327C128.507 231.604 128.765 232.948 129.113 234.243C129.245 234.9 129.322 235.564 129.427 236.218L129.574 237.197C129.615 237.523 129.613 237.852 129.635 238.177C129.667 238.829 129.698 239.476 129.729 240.118C129.737 240.76 129.674 241.397 129.651 242.029C129.639 243.299 129.389 244.524 129.212 245.735C128.344 250.569 126.213 254.75 123.715 258.054C121.193 261.369 118.226 263.796 115.39 265.468C112.542 267.129 109.857 268.165 107.59 268.658C106.473 268.983 105.448 269.104 104.564 269.229C104.122 269.288 103.716 269.36 103.341 269.394C102.967 269.408 102.626 269.421 102.318 269.433C101.727 269.452 101.267 269.467 100.932 269.477C100.622 269.484 100.463 269.474 100.463 269.474Z" fill="#263238"/>
<path d="M92.2301 229.663H100.95C107.229 229.663 111.534 233.459 111.534 239.292C111.534 245.124 107.229 248.921 100.95 248.921H92.2301V229.663ZM100.73 245.262C104.542 245.262 107.037 242.979 107.037 239.292C107.037 235.605 104.542 233.322 100.73 233.322H96.6721V245.261H100.73V245.262Z" fill="#263238"/>
<path d="M58.4839 371.806C61.1059 372.795 63.1119 375.076 64.1879 377.664C65.2649 380.252 65.4909 383.125 65.3119 385.922C64.9649 391.334 62.1729 396.916 59.0909 401.378C54.3649 397.645 52.9849 390.796 52.5029 387.278C51.7409 381.716 53.7409 371.204 58.4839 371.806Z" fill="#455A64"/>
<path d="M64.7939 410.002C63.9199 406.996 65.0219 403.597 67.2549 401.403C69.4879 399.208 72.7069 398.169 75.8369 398.254C77.2839 398.294 78.8629 398.638 79.7459 399.784C80.5719 400.856 80.5609 402.409 79.9939 403.638C79.4259 404.867 78.3859 405.815 77.2769 406.59C73.4699 409.246 69.2989 411.117 64.7939 410.002Z" fill="#455A64"/>
<path d="M59.79 426.788C59.762 426.783 59.805 426.388 59.897 425.676C60.001 424.892 60.137 423.878 60.299 422.66C60.677 420.138 61.146 416.529 62.916 412.961C64.661 409.403 67.217 406.721 69.411 405.344C70.5 404.641 71.462 404.207 72.144 403.971C72.48 403.839 72.757 403.782 72.939 403.727C73.123 403.679 73.221 403.66 73.225 403.673C73.261 403.759 71.673 404.126 69.566 405.574C67.451 406.984 64.985 409.636 63.268 413.134C61.532 416.628 61.021 420.189 60.573 422.701C60.36 423.967 60.187 424.993 60.048 425.698C59.909 426.405 59.815 426.793 59.79 426.788Z" fill="#263238"/>
<path d="M57.668 379.946C57.681 379.945 57.708 380.11 57.747 380.426C57.786 380.783 57.836 381.242 57.897 381.809C58.021 383.011 58.177 384.752 58.351 386.905C58.702 391.21 59.103 397.166 59.398 403.75C59.691 410.337 59.821 416.305 59.855 420.625C59.873 422.785 59.872 424.533 59.856 425.741C59.845 426.311 59.836 426.773 59.829 427.132C59.819 427.45 59.807 427.617 59.793 427.617C59.779 427.617 59.765 427.45 59.75 427.133C59.738 426.774 59.722 426.313 59.703 425.743C59.672 424.487 59.629 422.753 59.577 420.631C59.472 416.314 59.297 410.352 59.005 403.769C58.71 397.189 58.353 391.235 58.074 386.926C57.937 384.808 57.825 383.077 57.744 381.823C57.713 381.253 57.687 380.793 57.667 380.434C57.655 380.115 57.655 379.947 57.668 379.946Z" fill="#263238"/>
<path d="M57.113 413.662C55.763 407.201 51.086 401.529 45.001 398.971C43.451 398.32 41.45 397.943 40.261 399.13C39.069 400.319 39.448 402.331 40.134 403.868C42.991 410.264 50.034 414.534 57.027 414.109" fill="#455A64"/>
<path d="M45.986 404.04C45.997 404.015 46.345 404.149 46.968 404.412C47.281 404.542 47.663 404.703 48.083 404.938C48.503 405.172 49.007 405.397 49.509 405.738C50.021 406.063 50.59 406.407 51.15 406.852C51.735 407.263 52.309 407.766 52.909 408.3C54.082 409.396 55.273 410.715 56.311 412.256C57.334 413.807 58.099 415.412 58.653 416.92C58.906 417.683 59.15 418.407 59.294 419.108C59.482 419.798 59.571 420.458 59.662 421.058C59.775 421.655 59.773 422.207 59.817 422.686C59.863 423.166 59.852 423.58 59.841 423.919C59.825 424.596 59.803 424.968 59.776 424.967C59.687 424.968 59.768 423.467 59.388 421.1C59.281 420.511 59.177 419.863 58.979 419.187C58.824 418.5 58.572 417.791 58.314 417.044C57.751 415.568 56.991 413.998 55.986 412.474C54.966 410.961 53.805 409.658 52.664 408.565C52.079 408.033 51.522 407.528 50.954 407.111C50.411 406.662 49.858 406.309 49.362 405.973C47.345 404.673 45.95 404.118 45.986 404.04Z" fill="#263238"/>
<path d="M360.506 103.262L360.968 140.461C361.047 146.787 359.87 156.095 349.863 155.763C341.202 154.82 338.905 146.622 338.837 140.718C338.805 137.918 338.773 135.583 338.751 135.295C338.751 135.295 329.27 134.522 328.47 125.158C328.083 120.633 328.046 111.247 328.11 102.756C328.179 93.6374 335.251 86.1044 344.346 85.4404L345.25 85.3744C355.043 85.2314 360.635 93.4694 360.506 103.262Z" fill="#FFBE9D"/>
<path d="M338.751 135.295C338.751 135.295 344.684 135.21 350.691 130.796C350.691 130.796 348.214 137.859 338.8 137.698L338.751 135.295Z" fill="#EB996E"/>
<path d="M344.12 106.594C344.306 106.783 345.387 105.913 346.957 105.871C348.523 105.805 349.697 106.599 349.862 106.397C349.943 106.307 349.749 105.961 349.238 105.602C348.734 105.244 347.883 104.907 346.906 104.94C345.929 104.975 345.117 105.367 344.655 105.759C344.182 106.152 344.028 106.509 344.12 106.594Z" fill="#263238"/>
<path d="M344.778 110.294C344.803 110.964 345.392 111.496 346.092 111.482C346.791 111.468 347.339 110.915 347.314 110.245C347.289 109.575 346.7 109.043 346.001 109.056C345.3 109.07 344.752 109.624 344.778 110.294Z" fill="#263238"/>
<path d="M340.189 117.507C340.19 117.425 339.283 117.335 337.819 117.256C337.448 117.245 337.095 117.197 337.015 116.951C336.909 116.692 337.034 116.284 337.181 115.843C337.462 114.928 337.755 113.968 338.064 112.963C339.283 108.865 340.137 105.507 339.972 105.459C339.806 105.411 338.684 108.694 337.465 112.792C337.173 113.802 336.894 114.765 336.629 115.685C336.521 116.113 336.316 116.605 336.544 117.143C336.663 117.41 336.948 117.59 337.188 117.636C337.429 117.691 337.636 117.68 337.819 117.677C339.284 117.649 340.19 117.589 340.189 117.507Z" fill="#263238"/>
<path d="M344.787 100.695C344.938 101.043 346.195 100.781 347.698 100.858C349.203 100.903 350.438 101.267 350.613 100.932C350.69 100.772 350.456 100.452 349.945 100.141C349.438 99.8312 348.645 99.5592 347.743 99.5212C346.841 99.4852 346.032 99.6922 345.506 99.9602C344.976 100.229 344.721 100.529 344.787 100.695Z" fill="#263238"/>
<path d="M329.887 103.602C330.052 103.886 331.276 103.571 332.759 103.525C334.243 103.452 335.474 103.669 335.631 103.373C335.7 103.232 335.455 102.977 334.938 102.752C334.425 102.527 333.633 102.355 332.743 102.389C331.854 102.425 331.067 102.661 330.561 102.926C330.052 103.193 329.814 103.467 329.887 103.602Z" fill="#263238"/>
<path d="M360.248 110.258C360.403 110.177 366.549 107.883 366.812 114.306C367.075 120.729 360.573 119.668 360.554 119.484C360.535 119.3 360.248 110.258 360.248 110.258Z" fill="#FFBE9D"/>
<path d="M362.416 116.97C362.443 116.948 362.531 117.044 362.724 117.123C362.912 117.2 363.232 117.245 363.561 117.106C364.229 116.829 364.756 115.728 364.74 114.57C364.732 113.985 364.587 113.433 364.361 112.981C364.145 112.519 363.828 112.203 363.484 112.157C363.141 112.092 362.907 112.307 362.836 112.491C362.757 112.674 362.803 112.801 362.77 112.813C362.753 112.83 362.628 112.711 362.669 112.444C362.69 112.315 362.759 112.161 362.905 112.031C363.054 111.9 363.278 111.826 363.517 111.842C364.014 111.856 364.478 112.293 364.727 112.79C365.003 113.288 365.18 113.907 365.189 114.564C365.201 115.86 364.588 117.098 363.67 117.405C363.223 117.541 362.841 117.421 362.64 117.277C362.434 117.125 362.394 116.982 362.416 116.97Z" fill="#EB996E"/>
<path d="M341.705 121.954C341.635 121.792 342.893 121.415 343.778 120.235C344.22 119.654 344.475 119.02 344.667 118.558C344.854 118.092 344.996 117.799 345.066 117.82C345.131 117.84 345.115 118.156 345.012 118.663C344.904 119.164 344.686 119.882 344.185 120.542C343.692 121.209 343.03 121.607 342.544 121.798C342.054 121.997 341.722 122.009 341.705 121.954Z" fill="#263238"/>
<path d="M315.675 94.3503C315.777 93.9733 316.051 93.6633 316.387 93.4643C317.12 93.0313 317.965 93.0893 318.781 93.0763C321.266 93.0363 323.733 92.2773 325.823 90.9353C326.802 89.5243 327.904 88.1973 329.1 86.9643C331.939 84.0373 334.274 82.0453 336.69 81.0733C339.815 79.8153 345.041 79.3053 348.299 80.1603C351.557 81.0153 354.483 83.6583 354.936 86.9963C356.763 85.4513 359.507 85.4643 361.732 86.3593L361.788 86.3353C364.267 87.2183 365.675 89.8373 366.406 92.3643C367.137 94.8913 367.449 97.5943 368.788 99.8593C369.068 100.333 369.4 100.9 369.156 101.393C368.967 101.774 368.483 101.931 368.062 101.87C367.641 101.808 367.268 101.575 366.908 101.348C367.185 102.01 367.461 102.672 367.737 103.334C366.84 103.49 365.912 103.418 365.041 103.154C364.514 105.518 363.887 108.217 363.278 109.819C362.242 109.816 361.294 109.89 360.655 110.465C359.787 111.246 359.399 112.714 357.956 112.156C357.222 111.872 356.552 110.332 356.306 109.584C354.676 104.621 354.134 99.3043 354.723 94.1143C353.697 93.0203 352.457 92.1253 351.096 91.4963L351.207 91.5963C348.59 90.6873 345.63 89.7933 343.147 91.0213C341.221 91.9743 340.089 93.9733 338.649 95.5683C335.92 98.5913 332.239 100.233 328.17 100.408C328.032 103.045 328.253 106.772 328.115 109.408L325.897 105.184L325.895 105.205C325.713 104.896 325.563 104.584 325.418 104.272L325.368 104.177V104.165C325.137 103.663 324.918 103.161 324.626 102.665C324.617 102.673 324.609 102.68 324.601 102.688C323.172 103.948 321.067 102.021 322.194 100.485C322.417 100.18 322.685 99.9093 322.99 99.6853C322.337 100.298 321.364 100.592 320.507 100.329C319.651 100.066 318.986 99.2003 319.061 98.3073C319.112 97.6983 319.547 97.1533 320.097 96.9123C318.943 97.0013 317.763 96.7503 316.757 96.1763C316.098 95.7993 315.451 95.1803 315.675 94.3503Z" fill="#263238"/>
<path d="M351.989 88.0723C351.97 88.0963 352.381 88.3203 352.929 88.9313C353.471 89.5403 354.079 90.5993 354.367 92.0413C354.514 92.7583 354.607 93.5593 354.606 94.4223C354.61 95.2853 354.54 96.2083 354.474 97.1823C354.411 98.1563 354.341 99.1843 354.404 100.254C354.435 100.788 354.499 101.331 354.615 101.874C354.733 102.408 354.873 102.987 355.276 103.446C355.597 103.82 356.133 103.986 356.598 103.89C357.066 103.807 357.482 103.558 357.787 103.218C358.39 102.515 358.54 101.622 358.69 100.836L358.493 100.86C358.814 101.567 359.144 102.265 359.633 102.822C360.113 103.383 360.779 103.754 361.455 103.814C361.792 103.844 362.131 103.79 362.421 103.645C362.716 103.501 362.931 103.257 363.077 102.999C363.217 102.736 363.29 102.447 363.276 102.169C363.26 101.891 363.152 101.627 362.975 101.44L362.876 101.529C363.598 102.352 364.361 102.794 364.888 103.039C365.154 103.162 365.367 103.235 365.512 103.281C365.657 103.324 365.734 103.342 365.735 103.336C365.737 103.33 365.664 103.3 365.524 103.246C365.384 103.189 365.177 103.105 364.919 102.974C364.407 102.712 363.669 102.259 362.977 101.442L362.878 101.531C363.193 101.865 363.211 102.451 362.94 102.923C362.803 103.155 362.606 103.373 362.347 103.495C362.089 103.622 361.779 103.669 361.472 103.638C360.851 103.576 360.23 103.228 359.781 102.695C359.32 102.162 359.001 101.482 358.683 100.775L358.548 100.475L358.486 100.799C358.336 101.584 358.176 102.441 357.626 103.075C357.353 103.38 356.971 103.605 356.561 103.676C356.15 103.755 355.717 103.62 355.437 103.3C355.085 102.903 354.941 102.355 354.827 101.829C354.713 101.299 354.649 100.767 354.617 100.242C354.553 99.1903 354.617 98.1693 354.675 97.1963C354.735 96.2233 354.798 95.2953 354.787 94.4213C354.78 93.5473 354.677 92.7353 354.517 92.0093C354.206 90.5493 353.563 89.4763 352.991 88.8753C352.415 88.2693 351.989 88.0723 351.989 88.0723Z" fill="#455A64"/>
<path d="M323.01 97.1864C323.008 97.1894 323.033 97.2114 323.085 97.2504C323.148 97.2964 323.225 97.3524 323.319 97.4214C323.421 97.4974 323.551 97.5874 323.716 97.6754C323.878 97.7684 324.062 97.8814 324.286 97.9754C325.156 98.3884 326.551 98.7994 328.295 98.6964C330.023 98.5994 332.097 97.9874 333.949 96.6084C335.82 95.2624 337.463 93.2804 338.806 91.0104C339.487 89.8764 340.042 88.7134 340.655 87.6394C341.263 86.5644 341.935 85.5714 342.748 84.7874C343.552 83.9994 344.485 83.4164 345.447 83.1494C345.926 83.0064 346.41 82.9744 346.87 82.9854C347.332 83.0104 347.77 83.1034 348.173 83.2354C348.98 83.5064 349.632 83.9524 350.126 84.4114C350.622 84.8744 350.955 85.3634 351.183 85.7824C351.609 86.6434 351.633 87.1964 351.666 87.1874C351.67 87.1864 351.667 87.1534 351.659 87.0894C351.647 87.0114 351.632 86.9174 351.615 86.8024C351.569 86.5514 351.461 86.1874 351.259 85.7444C351.038 85.3114 350.71 84.8054 350.21 84.3224C349.713 83.8444 349.051 83.3774 348.223 83.0884C347.809 82.9474 347.358 82.8454 346.878 82.8154C346.401 82.7994 345.894 82.8294 345.397 82.9734C344.398 83.2434 343.432 83.8394 342.606 84.6414C341.769 85.4404 341.082 86.4504 340.467 87.5324C339.847 88.6144 339.292 89.7744 338.616 90.8974C337.283 93.1504 335.665 95.1104 333.829 96.4444C332.011 97.8104 329.986 98.4234 328.284 98.5404C326.569 98.6614 325.19 98.2804 324.319 97.8964C323.444 97.5064 323.027 97.1594 323.01 97.1864Z" fill="#455A64"/>
<path d="M322.158 93.0703C322.15 93.0833 322.27 93.1653 322.494 93.3043C322.716 93.4473 323.056 93.6223 323.489 93.8093C323.921 94.0003 324.457 94.1773 325.064 94.3263C325.674 94.4643 326.356 94.5663 327.078 94.5933C327.801 94.6123 328.488 94.5543 329.106 94.4553C329.722 94.3453 330.268 94.2023 330.711 94.0403C331.155 93.8813 331.506 93.7283 331.736 93.5993C331.969 93.4753 332.093 93.4013 332.086 93.3873C332.068 93.3503 331.55 93.6163 330.663 93.8923C330.22 94.0333 329.68 94.1583 329.075 94.2553C328.468 94.3413 327.794 94.3923 327.086 94.3733C326.379 94.3463 325.71 94.2523 325.109 94.1283C324.511 93.9933 323.98 93.8333 323.547 93.6643C322.678 93.3333 322.178 93.0343 322.158 93.0703Z" fill="#455A64"/>
<path d="M329.817 107.184C330.003 107.373 331.084 106.503 332.654 106.461C334.22 106.396 335.394 107.189 335.559 106.987C335.64 106.897 335.447 106.551 334.935 106.192C334.431 105.834 333.58 105.497 332.602 105.53C331.625 105.565 330.813 105.957 330.351 106.349C329.879 106.743 329.726 107.1 329.817 107.184Z" fill="#263238"/>
<path d="M330.818 110.294C330.843 110.964 331.431 111.495 332.132 111.482C332.831 111.469 333.379 110.916 333.354 110.245C333.329 109.575 332.74 109.043 332.041 109.056C331.34 109.07 330.792 109.624 330.818 110.294Z" fill="#263238"/>
<path d="M308.027 322.745C306.097 325.369 310.917 352.879 314.444 349.867L310.831 355.643L297.437 356.764L288.3 328.92L308.027 322.745Z" fill="#FFBE9D"/>
<path d="M323.298 232.795C323.298 232.795 273.963 261.06 271.434 273.918C271.434 273.918 269.374 279.522 271.693 287.111C274.012 294.699 292.816 349.011 292.816 349.011L312.522 342.466L309.127 321.521L301.414 290.485L299.095 287.323C299.095 287.323 301.625 287.323 303.732 286.058C305.84 284.793 337.712 265.315 337.712 265.315L345.679 240.527L323.298 232.795Z" fill="#263238"/>
<path d="M296.725 355.305L297.055 356.422C297.055 356.422 280.425 369.684 281.299 373.331L318.783 361.883L314.464 349.565C309.679 353.848 303.935 355.921 296.725 355.305Z" fill="#455A64"/>
<g opacity="0.6">
<path d="M318.783 361.883L317.744 358.92L282.198 370.977C282.198 370.977 280.751 372.213 281.298 373.331L318.783 361.883Z" fill="white"/>
</g>
<path d="M296.955 356.567C297.017 356.748 297.958 356.552 299.038 356.865C300.126 357.15 300.833 357.801 300.979 357.677C301.137 357.59 300.53 356.579 299.215 356.223C297.904 355.854 296.864 356.411 296.955 356.567Z" fill="#263238"/>
<path d="M293.52 359.393C293.532 359.583 294.42 359.652 295.278 360.237C296.153 360.796 296.566 361.585 296.745 361.522C296.926 361.498 296.725 360.388 295.644 359.681C294.571 358.965 293.471 359.218 293.52 359.393Z" fill="#263238"/>
<path d="M292.724 364.781C292.902 364.769 292.878 363.777 292.102 362.918C291.332 362.053 290.348 361.922 290.317 362.098C290.26 362.28 290.98 362.648 291.606 363.363C292.249 364.063 292.537 364.818 292.724 364.781Z" fill="#263238"/>
<path d="M287.943 279.245C287.962 279.191 288.763 279.405 289.984 279.949C291.204 280.49 292.829 281.399 294.434 282.666C296.037 283.937 297.296 285.308 298.105 286.37C298.916 287.433 299.309 288.162 299.261 288.193C299.137 288.29 297.307 285.524 294.137 283.042C290.991 280.531 287.878 279.389 287.943 279.245Z" fill="#455A64"/>
<path d="M291.153 273.919C291.193 273.879 291.893 274.481 292.879 275.6C293.865 276.716 295.109 278.373 296.215 280.366C297.318 282.362 298.062 284.296 298.485 285.724C298.91 287.153 299.049 288.066 298.993 288.079C298.92 288.097 298.664 287.217 298.162 285.831C297.662 284.445 296.88 282.564 295.795 280.599C294.705 278.637 293.526 276.976 292.617 275.817C291.709 274.656 291.099 273.971 291.153 273.919Z" fill="#455A64"/>
<g opacity="0.3">
<path d="M337.533 263.326C337.257 262.492 336.777 261.735 336.526 260.894C336.287 260.093 336.249 259.209 335.786 258.514C335.298 257.781 334.436 257.407 333.619 257.078C329.292 255.334 324.887 253.784 320.422 252.435L317.215 254.339C317.349 256.535 318.702 258.518 320.432 259.876C322.162 261.234 324.248 262.053 326.325 262.775C328.403 263.497 330.524 264.149 332.438 265.235C333.211 265.674 333.961 266.188 334.821 266.415C335.681 266.642 336.707 266.514 337.28 265.833C337.845 265.161 337.81 264.16 337.533 263.326Z" fill="black"/>
</g>
<path d="M347.289 279.784L354.059 257.145H348.124L342.3 278.422L347.289 279.784Z" fill="#E0E0E0"/>
<path d="M416.914 357.133C416.787 357.095 420.702 343.571 425.658 326.929C430.615 310.282 434.736 296.822 434.863 296.859C434.99 296.897 431.076 310.418 426.118 327.066C421.163 343.708 417.041 357.171 416.914 357.133Z" fill="#263238"/>
<path d="M416.914 357.133C416.782 357.116 418.428 343.133 420.588 325.905C422.749 308.67 424.608 294.717 424.739 294.734C424.871 294.75 423.226 308.731 421.064 325.965C418.904 343.193 417.046 357.15 416.914 357.133Z" fill="#263238"/>
<path d="M416.914 357.133C416.782 357.14 415.924 343.087 414.999 325.747C414.074 308.403 413.431 294.34 413.563 294.333C413.695 294.326 414.553 308.377 415.478 325.722C416.404 343.061 417.047 357.126 416.914 357.133Z" fill="#263238"/>
<path d="M416.914 357.133C416.785 357.162 413.588 343.45 409.776 326.51C405.962 309.564 402.976 295.808 403.105 295.778C403.234 295.749 406.43 309.458 410.244 326.404C414.057 343.344 417.044 357.104 416.914 357.133Z" fill="#263238"/>
<path d="M416.914 357.133C416.791 357.183 411.346 344.199 404.754 328.136C398.159 312.067 392.914 299.004 393.037 298.954C393.16 298.904 398.603 311.885 405.198 327.954C411.791 344.017 417.037 357.083 416.914 357.133Z" fill="#263238"/>
<path d="M416.914 357.133C416.801 357.203 409.261 345.313 400.075 330.578C390.885 315.838 383.529 303.837 383.642 303.766C383.754 303.696 391.293 315.584 400.483 330.324C409.669 345.059 417.027 357.063 416.914 357.133Z" fill="#263238"/>
<path d="M416.914 357.134C416.815 357.222 407.392 346.76 395.87 333.769C384.344 320.774 375.084 310.171 375.183 310.083C375.282 309.995 384.703 320.455 396.229 333.45C407.752 346.441 417.014 357.046 416.914 357.134Z" fill="#263238"/>
<path d="M416.914 357.133C416.831 357.236 405.791 348.498 392.259 337.618C378.722 326.734 367.819 317.83 367.902 317.727C367.985 317.624 379.023 326.36 392.56 337.244C406.092 348.124 416.997 357.03 416.914 357.133Z" fill="#263238"/>
<path d="M416.914 357.133C416.849 357.249 404.503 350.48 389.341 342.016C374.174 333.55 361.935 326.594 362 326.479C362.065 326.363 374.408 333.131 389.575 341.597C404.737 350.061 416.979 357.017 416.914 357.133Z" fill="#263238"/>
<path d="M416.914 357.133C416.87 357.258 403.565 352.65 387.202 346.842C370.833 341.032 357.603 336.222 357.647 336.097C357.691 335.972 370.993 340.579 387.362 346.389C403.726 352.197 416.959 357.008 416.914 357.133Z" fill="#263238"/>
<path d="M416.914 357.134C416.891 357.265 403.004 354.947 385.899 351.958C368.788 348.968 354.941 346.439 354.964 346.308C354.987 346.177 368.872 348.495 385.982 351.485C403.086 354.474 416.937 357.003 416.914 357.134Z" fill="#263238"/>
<path d="M416.914 357.133C416.913 357.266 402.834 357.304 385.47 357.218C368.1 357.132 354.025 356.955 354.025 356.823C354.026 356.69 368.102 356.652 385.472 356.738C402.836 356.823 416.915 357 416.914 357.133Z" fill="#263238"/>
<path d="M416.914 357.134C416.936 357.265 403.06 359.657 385.927 362.478C368.788 365.299 354.881 367.479 354.859 367.348C354.837 367.217 368.709 364.825 385.849 362.004C402.983 359.184 416.893 357.003 416.914 357.134Z" fill="#263238"/>
<path d="M416.914 357.133C416.957 357.258 403.678 361.938 387.258 367.584C370.832 373.232 357.486 377.707 357.442 377.582C357.399 377.457 370.675 372.778 387.101 367.13C403.522 361.484 416.871 357.008 416.914 357.133Z" fill="#263238"/>
<path d="M416.914 357.134C416.978 357.25 404.668 364.086 389.423 372.399C374.173 380.715 361.763 387.36 361.7 387.244C361.637 387.128 373.943 380.294 389.193 371.978C404.438 363.664 416.851 357.018 416.914 357.134Z" fill="#263238"/>
<path d="M416.914 357.133C416.996 357.237 406.003 366.036 392.364 376.782C378.72 387.532 367.597 396.159 367.515 396.054C367.433 395.95 378.423 387.153 392.067 376.403C405.707 365.658 416.832 357.029 416.914 357.133Z" fill="#263238"/>
<path d="M416.914 357.133C417.012 357.222 407.646 367.735 395.997 380.611C384.343 393.492 374.82 403.858 374.722 403.769C374.624 403.68 383.988 393.17 395.641 380.289C407.29 367.413 416.816 357.044 416.914 357.133Z" fill="#263238"/>
<path d="M416.914 357.134C417.026 357.205 409.55 369.137 400.218 383.78C390.883 398.429 383.228 410.242 383.116 410.171C383.004 410.1 390.479 398.171 399.813 383.522C409.145 368.879 416.803 357.063 416.914 357.134Z" fill="#263238"/>
<path d="M416.914 357.133C417.036 357.185 411.662 370.198 404.911 386.196C398.158 402.199 392.587 415.126 392.464 415.075C392.342 415.023 397.715 402.013 404.468 386.01C411.219 370.011 416.792 357.082 416.914 357.133Z" fill="#263238"/>
<path d="M416.914 357.133C417.043 357.163 413.921 370.892 409.941 387.794C405.96 404.701 402.63 418.378 402.5 418.348C402.371 418.318 405.492 404.591 409.473 387.684C413.454 370.783 416.785 357.103 416.914 357.133Z" fill="#263238"/>
<path d="M416.914 357.134C417.046 357.142 416.265 371.2 415.168 388.529C414.071 405.864 413.075 419.905 412.943 419.897C412.811 419.889 413.592 405.834 414.689 388.499C415.786 371.17 416.782 357.126 416.914 357.134Z" fill="#263238"/>
<path d="M416.914 357.134C417.046 357.12 418.627 371.111 420.445 388.379C422.263 405.653 423.63 419.663 423.498 419.677C423.366 419.691 421.786 405.703 419.967 388.429C418.15 371.161 416.783 357.148 416.914 357.134Z" fill="#263238"/>
<path d="M416.914 357.133C417.042 357.097 420.941 370.626 425.621 387.347C430.303 404.074 433.994 417.658 433.867 417.693C433.739 417.729 429.841 404.203 425.159 387.476C420.478 370.756 416.787 357.169 416.914 357.133Z" fill="#263238"/>
<path d="M416.914 357.133C417.034 357.076 423.141 369.763 430.553 385.465C437.967 401.173 443.879 413.948 443.759 414.004C443.639 414.061 437.534 401.378 430.119 385.67C422.707 369.968 416.794 357.19 416.914 357.133Z" fill="#263238"/>
<path d="M416.914 357.133C417.023 357.057 425.166 368.543 435.1 382.785C445.037 397.031 453.002 408.638 452.894 408.714C452.785 408.79 444.644 397.306 434.707 383.06C424.772 368.818 416.806 357.209 416.914 357.133Z" fill="#263238"/>
<path d="M416.914 357.133C417.009 357.04 426.958 367.002 439.134 379.381C451.315 391.764 461.109 401.875 461.014 401.968C460.92 402.061 450.972 392.101 438.791 379.718C426.616 367.339 416.82 357.226 416.914 357.133Z" fill="#263238"/>
<path d="M416.914 357.133C416.992 357.026 428.467 365.183 442.543 375.351C456.623 385.523 467.97 393.852 467.893 393.96C467.815 394.067 456.342 385.912 442.262 375.74C428.187 365.572 416.837 357.241 416.914 357.133Z" fill="#263238"/>
<path d="M416.914 357.134C416.973 357.015 429.651 363.138 445.229 370.808C460.812 378.481 473.393 384.795 473.334 384.915C473.276 385.034 460.6 378.912 445.017 371.239C429.439 363.569 416.856 357.253 416.914 357.134Z" fill="#263238"/>
<path d="M416.914 357.133C416.952 357.006 430.476 360.921 447.117 365.878C463.764 370.836 477.224 374.956 477.186 375.084C477.148 375.211 463.627 371.296 446.98 366.338C430.339 361.382 416.876 357.26 416.914 357.133Z" fill="#263238"/>
<path d="M416.914 357.134C416.93 357.002 430.919 358.601 448.155 360.704C465.397 362.808 479.356 364.619 479.34 364.751C479.324 364.883 465.338 363.284 448.097 361.18C430.861 359.078 416.898 357.266 416.914 357.134Z" fill="#263238"/>
<path d="M416.914 357.133C416.908 357.001 430.967 356.237 448.311 355.427C465.662 354.617 479.728 354.068 479.734 354.2C479.74 354.333 465.684 355.096 448.334 355.906C430.989 356.716 416.921 357.265 416.914 357.133Z" fill="#263238"/>
<path d="M416.914 357.133C416.886 357.003 430.619 353.898 447.584 350.199C464.555 346.498 478.331 343.603 478.359 343.733C478.387 343.862 464.657 346.967 447.687 350.668C430.721 354.367 416.943 357.263 416.914 357.133Z" fill="#263238"/>
<path d="M416.914 357.134C416.865 357.011 429.885 351.652 445.992 345.166C462.105 338.678 475.202 333.521 475.252 333.644C475.301 333.767 462.284 339.123 446.172 345.611C430.064 352.097 416.964 357.257 416.914 357.134Z" fill="#263238"/>
<path d="M416.914 357.133C416.845 357.02 428.785 349.559 443.581 340.47C458.382 331.378 470.432 324.102 470.502 324.215C470.571 324.328 458.633 331.787 443.833 340.879C429.037 349.968 416.984 357.246 416.914 357.133Z" fill="#263238"/>
<path d="M416.914 357.134C416.827 357.034 427.351 347.681 440.418 336.246C453.489 324.807 464.153 315.617 464.24 315.717C464.327 315.817 453.805 325.168 440.734 336.607C427.667 348.043 417.002 357.234 416.914 357.134Z" fill="#263238"/>
<path d="M416.914 357.134C416.811 357.05 425.623 346.068 436.592 332.609C447.566 319.144 456.542 308.301 456.645 308.385C456.748 308.469 447.938 319.448 436.965 332.913C425.995 346.372 417.017 357.218 416.914 357.134Z" fill="#263238"/>
<path d="M416.914 357.134C416.799 357.069 423.649 344.768 432.213 329.663C440.78 314.553 447.816 302.361 447.931 302.426C448.046 302.491 441.197 314.789 432.63 329.9C424.067 345.005 417.03 357.199 416.914 357.134Z" fill="#263238"/>
<path d="M332.556 374.649C336.41 365.222 331.892 354.456 322.466 350.603C313.039 346.749 302.274 351.267 298.42 360.693C294.566 370.12 299.084 380.885 308.51 384.739C317.937 388.593 328.702 384.075 332.556 374.649Z" fill="#263238"/>
<path d="M185.637 357.133C185.51 357.095 189.425 343.571 194.381 326.929C199.339 310.282 203.459 296.822 203.586 296.859C203.713 296.897 199.798 310.418 194.841 327.066C189.886 343.708 185.764 357.171 185.637 357.133Z" fill="#263238"/>
<path d="M185.637 357.133C185.505 357.116 187.151 343.133 189.311 325.905C191.472 308.67 193.33 294.717 193.462 294.734C193.594 294.75 191.949 308.731 189.788 325.965C187.627 343.193 185.769 357.15 185.637 357.133Z" fill="#263238"/>
<path d="M185.637 357.133C185.505 357.14 184.647 343.087 183.722 325.747C182.797 308.403 182.154 294.34 182.287 294.333C182.419 294.326 183.277 308.377 184.202 325.722C185.127 343.061 185.77 357.126 185.637 357.133Z" fill="#263238"/>
<path d="M185.637 357.133C185.508 357.162 182.311 343.45 178.499 326.51C174.685 309.564 171.7 295.808 171.829 295.778C171.958 295.749 175.154 309.458 178.968 326.404C182.78 343.344 185.767 357.104 185.637 357.133Z" fill="#263238"/>
<path d="M185.637 357.133C185.514 357.183 180.069 344.199 173.477 328.136C166.882 312.067 161.637 299.004 161.76 298.954C161.883 298.904 167.326 311.885 173.921 327.954C180.514 344.017 185.76 357.083 185.637 357.133Z" fill="#263238"/>
<path d="M185.637 357.133C185.524 357.203 177.984 345.313 168.798 330.578C159.608 315.838 152.252 303.837 152.364 303.766C152.477 303.696 160.015 315.584 169.205 330.324C178.392 345.059 185.75 357.063 185.637 357.133Z" fill="#263238"/>
<path d="M185.637 357.134C185.538 357.222 176.115 346.76 164.594 333.769C153.068 320.774 143.809 310.171 143.908 310.083C144.007 309.995 153.428 320.455 164.953 333.45C176.475 346.441 185.736 357.046 185.637 357.134Z" fill="#263238"/>
<path d="M185.637 357.133C185.554 357.236 174.514 348.498 160.982 337.618C147.445 326.734 136.542 317.83 136.625 317.727C136.708 317.624 147.746 326.36 161.283 337.244C174.815 348.124 185.72 357.03 185.637 357.133Z" fill="#263238"/>
<path d="M185.637 357.133C185.572 357.249 173.226 350.48 158.065 342.016C142.898 333.55 130.66 326.594 130.724 326.479C130.789 326.363 143.132 333.131 158.299 341.597C173.461 350.061 185.702 357.017 185.637 357.133Z" fill="#263238"/>
<path d="M185.637 357.133C185.593 357.258 172.288 352.65 155.924 346.842C139.555 341.032 126.325 336.222 126.369 336.097C126.413 335.972 139.715 340.579 156.084 346.389C172.449 352.197 185.682 357.008 185.637 357.133Z" fill="#263238"/>
<path d="M185.637 357.134C185.614 357.265 171.726 354.947 154.622 351.958C137.511 348.968 123.664 346.439 123.686 346.308C123.709 346.177 137.594 348.495 154.704 351.485C171.809 354.474 185.66 357.003 185.637 357.134Z" fill="#263238"/>
<path d="M185.637 357.133C185.636 357.266 171.557 357.304 154.194 357.218C136.825 357.132 122.749 356.955 122.75 356.823C122.751 356.69 136.827 356.652 154.196 356.738C171.559 356.823 185.638 357 185.637 357.133Z" fill="#263238"/>
<path d="M185.637 357.134C185.659 357.265 171.783 359.657 154.65 362.478C137.511 365.299 123.603 367.479 123.582 367.348C123.56 367.217 137.433 364.825 154.572 362.004C171.706 359.184 185.616 357.003 185.637 357.134Z" fill="#263238"/>
<path d="M185.637 357.133C185.68 357.258 172.401 361.938 155.981 367.584C139.555 373.232 126.209 377.707 126.166 377.582C126.123 377.457 139.399 372.778 155.825 367.13C172.245 361.484 185.594 357.008 185.637 357.133Z" fill="#263238"/>
<path d="M185.637 357.134C185.701 357.25 173.391 364.086 158.146 372.399C142.896 380.715 130.486 387.36 130.423 387.244C130.359 387.128 142.666 380.294 157.916 371.978C173.161 363.664 185.574 357.018 185.637 357.134Z" fill="#263238"/>
<path d="M185.637 357.133C185.719 357.237 174.726 366.036 161.087 376.782C147.443 387.532 136.32 396.159 136.238 396.054C136.156 395.95 147.146 387.153 160.79 376.403C174.429 365.658 185.555 357.029 185.637 357.133Z" fill="#263238"/>
<path d="M185.637 357.133C185.735 357.222 176.369 367.735 164.72 380.611C153.067 393.492 143.543 403.858 143.445 403.769C143.347 403.68 152.711 393.17 164.364 380.289C176.013 367.413 185.539 357.044 185.637 357.133Z" fill="#263238"/>
<path d="M185.637 357.134C185.749 357.205 178.273 369.137 168.942 383.78C159.607 398.429 151.952 410.242 151.84 410.171C151.728 410.1 159.202 398.171 168.537 383.522C177.869 368.879 185.525 357.063 185.637 357.134Z" fill="#263238"/>
<path d="M185.637 357.133C185.759 357.185 180.384 370.198 173.634 386.196C166.881 402.199 161.309 415.126 161.187 415.075C161.065 415.023 166.439 402.013 173.192 386.01C179.942 370.011 185.515 357.082 185.637 357.133Z" fill="#263238"/>
<path d="M185.637 357.133C185.766 357.163 182.644 370.892 178.664 387.794C174.683 404.701 171.352 418.378 171.223 418.348C171.094 418.318 174.215 404.591 178.196 387.684C182.177 370.783 185.508 357.103 185.637 357.133Z" fill="#263238"/>
<path d="M185.637 357.134C185.769 357.142 184.988 371.2 183.891 388.529C182.794 405.864 181.798 419.905 181.666 419.897C181.534 419.889 182.315 405.834 183.412 388.499C184.509 371.17 185.505 357.126 185.637 357.134Z" fill="#263238"/>
<path d="M185.637 357.134C185.769 357.12 187.35 371.111 189.168 388.379C190.987 405.653 192.354 419.663 192.222 419.677C192.09 419.691 190.51 405.703 188.691 388.429C186.873 371.161 185.505 357.148 185.637 357.134Z" fill="#263238"/>
<path d="M185.637 357.133C185.765 357.097 189.664 370.626 194.344 387.347C199.027 404.074 202.718 417.658 202.59 417.693C202.462 417.729 198.564 404.203 193.882 387.476C189.202 370.756 185.51 357.169 185.637 357.133Z" fill="#263238"/>
<path d="M185.637 357.133C185.757 357.076 191.864 369.763 199.276 385.465C206.691 401.173 212.602 413.948 212.482 414.004C212.362 414.061 206.256 401.378 198.841 385.67C191.43 369.969 185.517 357.19 185.637 357.133Z" fill="#263238"/>
<path d="M185.637 357.133C185.746 357.057 193.889 368.543 203.823 382.785C213.76 397.031 221.725 408.638 221.616 408.714C221.507 408.79 213.366 397.306 203.429 383.06C193.495 368.818 185.529 357.209 185.637 357.133Z" fill="#263238"/>
<path d="M185.637 357.133C185.731 357.04 195.681 367.002 207.857 379.381C220.037 391.764 229.832 401.875 229.737 401.968C229.642 402.061 219.695 392.101 207.514 379.718C195.339 367.339 185.543 357.226 185.637 357.133Z" fill="#263238"/>
<path d="M185.637 357.133C185.715 357.026 197.19 365.183 211.265 375.351C225.345 385.523 236.692 393.852 236.615 393.96C236.537 394.067 225.064 385.912 210.984 375.74C196.909 365.572 185.56 357.241 185.637 357.133Z" fill="#263238"/>
<path d="M185.637 357.134C185.696 357.015 198.374 363.138 213.952 370.808C229.536 378.481 242.117 384.795 242.058 384.915C241.999 385.034 229.323 378.912 213.74 371.239C198.163 363.569 185.579 357.253 185.637 357.134Z" fill="#263238"/>
<path d="M185.637 357.133C185.675 357.006 199.199 360.921 215.841 365.878C232.488 370.836 245.948 374.956 245.911 375.084C245.873 375.211 232.351 371.296 215.704 366.338C199.062 361.382 185.599 357.26 185.637 357.133Z" fill="#263238"/>
<path d="M185.637 357.134C185.653 357.002 199.642 358.601 216.878 360.704C234.12 362.808 248.08 364.619 248.064 364.751C248.048 364.883 234.062 363.284 216.82 361.18C199.584 359.078 185.621 357.266 185.637 357.134Z" fill="#263238"/>
<path d="M185.637 357.133C185.631 357.001 199.69 356.237 217.035 355.427C234.386 354.617 248.452 354.068 248.458 354.2C248.464 354.333 234.408 355.096 217.057 355.906C199.712 356.716 185.643 357.265 185.637 357.133Z" fill="#263238"/>
<path d="M185.637 357.133C185.609 357.003 199.342 353.898 216.307 350.199C233.278 346.498 247.054 343.603 247.082 343.733C247.11 343.862 233.38 346.967 216.409 350.668C199.445 354.367 185.665 357.263 185.637 357.133Z" fill="#263238"/>
<path d="M185.637 357.134C185.587 357.011 198.608 351.652 214.715 345.166C230.828 338.678 243.925 333.521 243.975 333.644C244.024 333.767 231.007 339.123 214.894 345.611C198.787 352.097 185.687 357.257 185.637 357.134Z" fill="#263238"/>
<path d="M185.637 357.133C185.568 357.02 197.508 349.559 212.304 340.47C227.105 331.378 239.155 324.102 239.225 324.215C239.294 324.328 227.356 331.787 212.556 340.879C197.76 349.968 185.707 357.246 185.637 357.133Z" fill="#263238"/>
<path d="M185.637 357.134C185.55 357.034 196.074 347.681 209.14 336.246C222.211 324.807 232.874 315.617 232.962 315.717C233.049 315.817 222.527 325.168 209.456 336.607C196.39 348.043 185.724 357.234 185.637 357.134Z" fill="#263238"/>
<path d="M185.637 357.134C185.534 357.05 194.346 346.068 205.316 332.609C216.29 319.144 225.266 308.301 225.369 308.385C225.472 308.469 216.662 319.448 205.688 332.913C194.718 346.372 185.74 357.218 185.637 357.134Z" fill="#263238"/>
<path d="M185.637 357.134C185.522 357.069 192.372 344.768 200.936 329.663C209.503 314.553 216.539 302.361 216.654 302.426C216.769 302.491 209.92 314.789 201.353 329.9C192.79 345.005 185.753 357.199 185.637 357.134Z" fill="#263238"/>
<path d="M114.218 357.133C114.218 396.577 146.194 428.553 185.637 428.553C225.082 428.553 257.057 396.577 257.057 357.133C257.057 317.689 225.081 285.712 185.637 285.712C146.194 285.712 114.218 317.689 114.218 357.133ZM120.248 357.133C120.248 321.019 149.524 291.743 185.638 291.743C221.751 291.743 251.029 321.019 251.029 357.133C251.029 393.247 221.751 422.523 185.638 422.523C149.524 422.523 120.248 393.247 120.248 357.133Z" fill="#263238"/>
<path d="M120.248 357.133C120.248 393.247 149.524 422.523 185.638 422.523C221.751 422.523 251.029 393.247 251.029 357.133C251.029 321.019 221.751 291.743 185.638 291.743C149.524 291.743 120.248 321.019 120.248 357.133ZM122.759 357.133C122.759 322.407 150.91 294.256 185.637 294.256C220.363 294.256 248.514 322.407 248.514 357.133C248.514 391.859 220.363 420.01 185.637 420.01C150.91 420.01 122.759 391.859 122.759 357.133Z" fill="#E0E0E0"/>
<path d="M345.493 357.133C345.493 396.577 377.469 428.553 416.914 428.553C456.358 428.553 488.334 396.577 488.334 357.133C488.334 317.689 456.359 285.712 416.914 285.712C377.47 285.712 345.493 317.689 345.493 357.133ZM351.523 357.133C351.523 321.019 380.8 291.743 416.914 291.743C453.027 291.743 482.304 321.019 482.304 357.133C482.304 393.247 453.028 422.523 416.914 422.523C380.801 422.523 351.523 393.247 351.523 357.133Z" fill="#263238"/>
<path d="M351.523 357.133C351.523 393.247 380.8 422.523 416.914 422.523C453.027 422.523 482.304 393.247 482.304 357.133C482.304 321.019 453.028 291.743 416.914 291.743C380.801 291.743 351.523 321.019 351.523 357.133ZM354.036 357.133C354.036 322.407 382.188 294.256 416.914 294.256C451.64 294.256 479.791 322.407 479.791 357.133C479.791 391.859 451.64 420.01 416.914 420.01C382.188 420.01 354.036 391.859 354.036 357.133Z" fill="#E0E0E0"/>
<path d="M387.178 351.72H383.116V363.371H387.178V351.72Z" fill="#455A64"/>
<path d="M320.764 372.409L303.245 394.102L300.074 393.319L317.576 369.595L320.764 372.409Z" fill="#263238"/>
<path d="M292.144 397.672L310.235 397.696L310.241 392.594L292.15 392.57L292.144 397.672Z" fill="#263238"/>
<path d="M343.456 284.741L341.523 286.736L414.835 357.762L416.768 355.766L343.456 284.741Z" fill="#455A64"/>
<path d="M494.006 339.327C494.006 339.327 478.165 279.668 418.977 279.668C359.789 279.668 338.597 326.408 338.597 363.372L343.813 362.24C343.813 362.24 340.966 284.714 419.203 284.714C472.495 284.714 489.433 341.326 489.433 341.326L494.006 339.327Z" fill="#455A64"/>
<path d="M295.547 366.108C295.547 366.108 298.991 348.883 313.093 346.615C327.194 344.348 383.641 346.615 383.641 346.615C383.641 346.615 389.456 346.852 389.456 354.201L348.697 355.667L332.102 362.24C332.102 362.24 328.06 350.433 313.093 354.201C301.833 357.035 301.782 366.109 301.782 366.109H295.547V366.108Z" fill="#263238"/>
<path d="M328.915 329.066V322.399C315.592 322.399 306.423 319.115 301.077 316.36C295.305 313.386 292.621 310.37 292.594 310.34L292.53 310.268L237.56 250.471L232.652 254.983L287.594 314.748C288.581 315.87 300.812 329.066 328.915 329.066Z" fill="#455A64"/>
<path d="M342.254 276.353L315.478 370.108L321.887 371.939L348.663 278.183L342.254 276.353Z" fill="#455A64"/>
<path d="M317.439 374.569L417.381 360.433L416.447 353.832L319.987 367.476L230.733 269.847L225.812 274.346L317.439 374.569Z" fill="#455A64"/>
<path d="M249.273 216.431H268.34C269.495 216.431 270.431 218.453 270.431 220.947C270.431 223.441 269.495 225.462 268.34 225.462L249.273 224.074C245.253 219.383 249.273 216.431 249.273 216.431Z" fill="#263238"/>
<path d="M260.813 382.923C260.813 382.923 272.991 345.395 251.028 314.133C229.065 282.871 199.243 280.371 187.425 278.783L187.111 283.774C187.111 283.774 218.437 285.843 236.615 303.766C254.794 321.689 265.349 349.467 257.865 379.55L260.813 382.923Z" fill="#455A64"/>
<path d="M187.7 359.97C201.621 349.002 213.643 323.406 214.147 322.322L214.269 322.024L238.971 252.009L233.462 249.036L208.039 319.646C207.075 321.674 195.753 345.139 183.573 354.735L187.7 359.97Z" fill="#455A64"/>
<path d="M355.127 296.009L373.128 273.508H451.071C451.838 273.508 452.46 272.886 452.46 272.119C452.46 271.352 451.838 270.73 451.071 270.73H371.793L353.123 294.067L355.127 296.009Z" fill="#455A64"/>
<path d="M431.106 271.875L416.105 356.876L418.841 357.359L433.842 272.358L431.106 271.875Z" fill="#455A64"/>
<path d="M402.501 357.741C402.501 350.924 408.028 345.396 414.846 345.396C421.664 345.396 427.191 350.923 427.191 357.741C427.191 364.56 421.664 370.087 414.846 370.087C408.028 370.087 402.501 364.559 402.501 357.741Z" fill="#263238"/>
<path d="M173.292 357.741C173.292 350.924 178.819 345.396 185.637 345.396C192.455 345.396 197.982 350.923 197.982 357.741C197.982 364.56 192.455 370.087 185.637 370.087C178.819 370.086 173.292 364.559 173.292 357.741Z" fill="#263238"/>
<path d="M300.074 377.749C300.155 377.667 301.184 379.482 304.098 381.637C305.545 382.711 307.495 383.794 309.912 384.65C312.323 385.525 315.188 386.158 318.39 386.611C321.599 387.037 325.113 387.561 328.915 387.553C332.716 387.582 336.774 387.268 341.025 386.777C349.532 385.796 358.844 384.361 368.563 382.558C378.287 380.76 387.505 378.804 395.881 376.991C400.066 376.077 404.044 375.207 407.768 374.394C411.476 373.559 414.898 372.574 417.773 371.11C419.204 370.376 420.497 369.537 421.604 368.607C422.709 367.676 423.611 366.636 424.334 365.586C425.788 363.483 426.488 361.324 426.695 359.547C426.917 357.758 426.653 356.348 426.371 355.448C426.096 354.54 425.848 354.097 425.882 354.082C425.89 354.078 425.947 354.19 426.052 354.411C426.148 354.636 426.336 354.955 426.463 355.419C426.778 356.318 427.077 357.745 426.88 359.567C426.698 361.378 426.013 363.582 424.555 365.736C423.83 366.812 422.921 367.878 421.801 368.839C420.681 369.797 419.375 370.657 417.928 371.412C415.023 372.916 411.572 373.928 407.857 374.782C404.134 375.609 400.159 376.493 395.975 377.424C387.602 379.261 378.383 381.232 368.65 383.031C358.922 384.836 349.597 386.259 341.074 387.218C336.813 387.697 332.734 387.999 328.91 387.952C325.078 387.942 321.547 387.395 318.339 386.947C315.128 386.47 312.244 385.809 309.819 384.902C307.388 384.014 305.43 382.895 303.986 381.787C302.534 380.686 301.562 379.647 300.952 378.913C300.671 378.549 300.451 378.264 300.287 378.052C300.139 377.857 300.067 377.754 300.074 377.749Z" fill="#263238"/>
<path d="M366.84 252.145C366.097 254.426 362.8 264.039 357.963 264.391C353.125 264.743 319.707 259.543 314.691 258.268C311.504 257.458 309.66 252.145 317.254 252.145C328.156 252.145 368.501 247.048 366.84 252.145Z" fill="#BA68C8"/>
<path d="M242.916 196.817C242.916 196.817 232.441 199.022 231.212 199.851C229.983 200.68 229.436 203.453 230.256 205.037C231.076 206.621 232.988 206.923 234.081 207.168C235.174 207.413 245.506 201.992 245.506 201.992C245.506 201.992 246.838 197.268 242.916 196.817Z" fill="#263238"/>
<path d="M256.993 229.953C255.213 229.743 250.357 229.55 248.886 228.525C247.635 227.653 246.968 226.127 246.791 224.612C246.639 223.301 246.808 221.98 247.02 220.674C248.403 220.833 249.302 220.966 249.302 220.966V216.451C249.302 216.451 242.19 215.794 236.255 216.487C234.629 215.223 233.213 213.705 231.827 212.188C230.837 211.105 229.776 209.714 230.268 208.349C230.502 207.699 231.051 207.212 231.515 206.69C231.979 206.168 232.391 205.506 232.26 204.83C232.129 204.153 231.007 203.346 230.5 203.829C229.525 204.742 228.54 205.667 227.834 206.788C227.128 207.908 226.722 209.264 227.014 210.545C227.337 211.965 228.442 213.078 229.501 214.11C230.541 215.125 231.581 216.139 232.621 217.153C230.581 217.712 229.033 218.567 228.53 219.85C226.591 224.806 232.056 233.263 237.864 236.222L234.114 249.554L238.7 251.702L243.518 235.699C243.63 235.327 243.433 234.931 243.069 234.797L239.376 233.432C239.376 233.432 230.541 225.658 231.657 222.084C232.21 220.315 236.539 220.024 240.77 220.181C240.441 221.558 240.174 222.952 240.21 224.363C240.258 226.286 241.617 228.792 243.11 230.004C244.154 230.852 245.358 231.626 246.576 231.926C250.248 232.831 254.117 233.249 257.878 232.847C259.534 232.67 259.54 230.249 257.886 230.057C257.604 230.022 257.306 229.99 256.993 229.953Z" fill="#E0E0E0"/>
<path d="M256.993 229.953C256.993 229.953 257.18 229.956 257.542 229.988C257.868 230.014 258.552 230.011 258.966 230.673C259.164 230.983 259.249 231.42 259.134 231.864C259.039 232.307 258.654 232.753 258.119 232.881C257.072 233.05 255.884 233.103 254.531 233.101C253.181 233.093 251.681 232.984 250.055 232.75C249.242 232.63 248.399 232.478 247.528 232.29C246.666 232.114 245.724 231.892 244.88 231.4C244.032 230.92 243.213 230.364 242.462 229.623C241.739 228.87 241.148 227.963 240.694 226.959C240.24 225.967 239.95 224.803 240.036 223.639C240.081 222.477 240.309 221.308 240.585 220.135L240.764 220.371C239.026 220.32 237.21 220.307 235.369 220.54C234.46 220.671 233.509 220.838 232.701 221.271C232.302 221.485 231.954 221.79 231.851 222.198C231.734 222.623 231.772 223.097 231.883 223.558C232.411 225.415 233.709 227.077 235.032 228.669C236.389 230.258 237.907 231.791 239.532 233.253L239.458 233.209C240.247 233.499 241.045 233.793 241.851 234.09C242.254 234.238 242.66 234.388 243.067 234.538C243.288 234.595 243.58 234.799 243.692 235.058C243.829 235.304 243.803 235.668 243.718 235.871C243.214 237.552 242.7 239.266 242.177 241.008C241.13 244.493 240.049 248.093 238.944 251.774L238.859 252.057L238.591 251.932C237.149 251.258 235.584 250.525 234.004 249.786L233.806 249.693L233.865 249.482C235.065 245.212 236.325 240.729 237.607 236.169L237.612 236.149L237.744 236.451C233.826 234.316 230.873 230.848 229.076 226.993C228.192 225.064 227.651 222.912 227.998 220.783C228.159 220.271 228.234 219.737 228.549 219.253C228.855 218.787 229.264 218.412 229.705 218.119C230.591 217.527 231.576 217.181 232.553 216.908L232.444 217.33C231.327 216.238 230.221 215.158 229.129 214.09C228.058 213.035 226.901 211.806 226.706 210.181C226.527 208.583 227.233 207.083 228.145 205.931C228.603 205.345 229.116 204.819 229.635 204.319C229.915 204.06 230.112 203.844 230.461 203.564C230.953 203.298 231.394 203.54 231.707 203.738C232.03 203.963 232.307 204.252 232.453 204.662C232.576 205.079 232.496 205.49 232.348 205.842C232.044 206.552 231.48 207.035 231.05 207.53C230.6 208.018 230.32 208.587 230.374 209.203C230.418 209.813 230.716 210.4 231.079 210.923C231.83 211.96 232.778 212.885 233.637 213.81C234.519 214.722 235.424 215.575 236.379 216.322L236.23 216.28C241.021 215.781 245.401 215.972 249.317 216.278L249.473 216.29L249.472 216.448C249.467 218.091 249.462 219.562 249.457 220.963L249.456 221.14L249.278 221.117C248.424 221.005 247.703 220.91 247.002 220.818L247.164 220.695C246.944 221.999 246.795 223.248 246.902 224.414C247.005 225.574 247.376 226.642 247.97 227.464C248.272 227.868 248.618 228.225 249.011 228.474C249.397 228.722 249.84 228.861 250.257 228.978C251.1 229.208 251.892 229.331 252.601 229.433C254.022 229.629 255.125 229.721 255.866 229.802C256.222 229.843 256.498 229.875 256.707 229.9C256.898 229.929 256.993 229.946 256.993 229.953C256.993 229.953 255.447 229.902 252.583 229.592C251.869 229.501 251.07 229.39 250.208 229.168C249.779 229.053 249.326 228.922 248.898 228.654C248.477 228.392 248.111 228.023 247.788 227.602C247.155 226.747 246.76 225.64 246.643 224.441C246.522 223.239 246.665 221.963 246.875 220.65L246.898 220.51L247.038 220.527C247.743 220.615 248.467 220.704 249.326 220.811L249.148 220.965C249.143 219.564 249.139 218.093 249.133 216.45L249.288 216.62C245.397 216.34 241.018 216.174 236.28 216.689L236.196 216.698L236.13 216.647C235.151 215.888 234.229 215.025 233.335 214.108C232.459 213.17 231.529 212.278 230.72 211.175C230.335 210.62 229.989 209.977 229.931 209.235C229.854 208.485 230.234 207.741 230.71 207.235C231.174 206.706 231.683 206.253 231.927 205.665C232.049 205.382 232.094 205.063 232.014 204.804C231.928 204.552 231.702 204.294 231.447 204.125C231.2 203.951 230.865 203.85 230.708 203.964C230.507 204.132 230.205 204.43 229.963 204.66C229.452 205.154 228.957 205.666 228.521 206.226C227.653 207.323 227.025 208.717 227.189 210.125C227.354 211.539 228.405 212.695 229.476 213.739C230.57 214.805 231.677 215.883 232.795 216.972L233.108 217.277L232.686 217.394C231.739 217.658 230.795 217.998 229.989 218.539C229.586 218.807 229.233 219.139 228.977 219.528C228.723 219.908 228.646 220.417 228.499 220.88C228.181 222.841 228.683 224.911 229.547 226.782C231.287 230.525 234.209 233.939 237.981 235.988L238.17 236.091L238.114 236.291L238.109 236.311C236.825 240.871 235.564 245.353 234.362 249.622L234.223 249.319C235.802 250.06 237.367 250.793 238.808 251.469L238.456 251.626C239.567 247.947 240.653 244.348 241.705 240.865C242.231 239.124 242.749 237.411 243.256 235.731C243.394 235.381 243.247 235.092 242.901 234.988C242.494 234.837 242.089 234.687 241.686 234.537C240.88 234.238 240.083 233.942 239.295 233.65L239.252 233.634L239.221 233.606C237.576 232.118 236.058 230.576 234.687 228.961C233.352 227.334 232.034 225.673 231.463 223.66C231.344 223.155 231.293 222.61 231.44 222.082C231.59 221.517 232.055 221.135 232.497 220.902C233.407 220.423 234.379 220.267 235.316 220.134C237.201 219.905 239.028 219.928 240.778 219.987L241.013 219.995L240.958 220.223C240.398 222.525 240.023 224.872 241.01 226.818C241.441 227.788 242.01 228.672 242.696 229.396C243.391 230.094 244.219 230.67 245.026 231.132C245.841 231.615 246.717 231.826 247.588 232.013C248.451 232.207 249.287 232.365 250.093 232.492C251.705 232.739 253.193 232.863 254.533 232.887C255.868 232.907 257.079 232.865 258.078 232.722C258.558 232.615 258.905 232.231 259.001 231.827C259.114 231.424 259.046 231.018 258.87 230.728C258.506 230.109 257.875 230.086 257.535 230.042C257.175 229.993 256.993 229.953 256.993 229.953Z" fill="#263238"/>
<path d="M358.56 388.529C358.56 388.529 356.621 413.971 356.663 415.198L351.7 419.45L339.117 416.638L338.731 388.529H358.56Z" fill="#FFBE9D"/>
<path d="M338.883 415.098L338.865 416.215C338.865 416.215 319.84 423.591 319.595 427.181L357.192 427.441L356.767 414.927C351.16 417.477 345.307 417.728 338.883 415.098Z" fill="#455A64"/>
<g opacity="0.6">
<path d="M357.192 427.441L357.09 424.431L321.093 425.284C321.093 425.284 319.414 426.001 319.595 427.181L357.192 427.441Z" fill="white"/>
</g>
<path d="M338.732 416.319C338.737 416.503 339.654 416.592 340.553 417.189C341.468 417.762 341.928 418.56 342.097 418.489C342.267 418.454 342 417.355 340.899 416.652C339.805 415.939 338.694 416.151 338.732 416.319Z" fill="#263238"/>
<path d="M334.778 417.923C334.735 418.101 335.528 418.418 336.146 419.199C336.787 419.961 336.939 420.802 337.121 420.795C337.293 420.825 337.428 419.751 336.641 418.794C335.862 417.832 334.783 417.748 334.778 417.923Z" fill="#263238"/>
<path d="M332.505 422.627C332.672 422.667 332.933 421.752 332.469 420.743C332.012 419.73 331.149 419.328 331.07 419.48C330.965 419.63 331.519 420.174 331.888 421.007C332.276 421.833 332.323 422.608 332.505 422.627Z" fill="#263238"/>
<path d="M327.171 248.722L331.279 262.663L333.485 284.044L335.705 344.788L337.774 346.996L338.324 411.981C338.324 411.981 344.925 411.981 348.583 411.981C354.026 411.981 357.648 411.981 357.648 411.981C357.648 411.981 365.188 359.41 364.412 346.22C363.636 333.031 364.463 319.546 364.463 319.546L374.239 276.394C374.239 276.394 379.119 256.838 379.251 246.337C379.374 236.545 378.476 230.134 378.476 230.134C378.476 230.134 345.791 237.342 338.291 235.273C330.791 233.204 324.534 229.659 324.534 229.659C324.534 229.659 321.596 227.421 320.479 230.733C320.066 231.958 320.964 234.498 320.964 234.498L327.171 248.722Z" fill="#263238"/>
<path d="M348.972 336.195C349.016 336.236 348.421 336.984 347.34 338.087C346.261 339.19 344.676 340.627 342.781 342.033C340.884 343.436 339.046 344.533 337.677 345.244C336.307 345.957 335.418 346.308 335.392 346.254C335.36 346.189 336.194 345.731 337.511 344.948C338.829 344.166 340.618 343.036 342.495 341.647C344.37 340.256 345.972 338.875 347.104 337.842C348.238 336.81 348.919 336.145 348.972 336.195Z" fill="#455A64"/>
<path d="M232.463 199.583C232.463 199.583 236.286 191.598 237.388 190.968C238.49 190.338 243.686 189.551 243.686 189.551C243.686 189.551 251.874 192.902 253.291 192.644C254.708 192.386 261.951 192.644 261.951 192.644L263.525 201.99H256.205C256.205 201.99 253.133 203.789 250.928 203.913C248.723 204.037 245.26 205.454 245.26 205.454C245.26 205.454 239.954 210.843 239.325 211C238.695 211.157 237.436 211 237.278 209.11C237.121 207.221 241.009 203.913 241.009 203.913C241.009 203.913 242.899 203.138 241.796 200.989C240.693 198.84 240.574 197.831 239.157 197.988C237.74 198.146 232.463 199.583 232.463 199.583Z" fill="#FFBE9D"/>
<path d="M389.402 156.525C388.368 151.525 382.513 143.007 380.444 141.455C378.375 139.903 362.677 136.073 362.677 136.073L360.972 132.839L360.248 135.073C360.159 135.475 355.745 144.595 343.131 143.73C339.419 143.476 338.847 141.158 338.847 141.158L338.3 144.503C338.3 144.503 324.247 150.478 321.978 151.643C318.982 153.182 296.018 187.365 296.018 187.365L259.576 192.13L258.659 207.072L297.271 208.568C302.492 208.909 307.452 207.17 311.349 203.68L324.389 189.918V191.012C324.345 197.001 322.384 225.46 322.384 225.46C319.246 235.785 331.117 237.518 340.139 241.72C340.139 241.72 346.716 244.647 355.767 246.493C371.493 249.701 380.522 240.45 380.522 240.45L381.393 235.319C381.394 235.322 390.436 161.525 389.402 156.525Z" fill="#BA68C8"/>
<g opacity="0.3">
<path d="M328.085 207.105L332.186 212.257C332.186 212.257 370.839 228.24 382.582 225.461V219.812L334.165 204.581L328.085 205.237V207.105Z" fill="black"/>
</g>
<path d="M371.082 147.933C371.082 147.933 367.223 160.014 367.223 165.813C367.223 171.612 368.644 188.284 370.036 191.329C371.428 194.373 372.848 196.206 372.848 196.206L370.702 198.288L335.254 193.966L334.165 209.519C334.165 209.519 373.601 221.193 377.371 221.193C381.14 221.193 388.969 220.758 391.868 218.873C394.768 216.988 396.797 209.16 396.797 202.346C396.797 195.532 394.158 149.14 380.724 141.334C374.141 137.509 371.082 147.933 371.082 147.933Z" fill="#BA68C8"/>
<path d="M386.552 200.964C386.483 201.013 385.96 200.211 384.841 199.189C383.736 198.169 381.955 196.976 379.724 196.413C377.491 195.851 375.357 196.058 373.901 196.432C372.432 196.801 371.591 197.259 371.553 197.184C371.539 197.157 371.732 197.014 372.112 196.806C372.491 196.596 373.067 196.337 373.81 196.105C375.283 195.635 377.508 195.359 379.841 195.947C382.174 196.536 384.002 197.832 385.076 198.944C385.621 199.501 386.004 200.001 386.239 200.366C386.475 200.73 386.577 200.948 386.552 200.964Z" fill="#263238"/>
<path d="M381.393 191.046C381.429 191.196 378.997 191.507 376.557 193.131C374.092 194.72 372.835 196.824 372.712 196.731C372.663 196.703 372.906 196.141 373.491 195.348C374.072 194.556 375.031 193.559 376.294 192.729C377.559 191.903 378.856 191.422 379.814 191.206C380.775 190.988 381.387 190.99 381.393 191.046Z" fill="#263238"/>
<path d="M313.958 191.353L318.278 188.705H325.961L332.824 194.954L334.873 195.978L334.111 206.767L329.649 206.222C329.649 206.222 320.122 206.632 319.2 206.017C318.278 205.402 316.946 203.456 316.946 203.456C316.946 203.456 311.517 201.919 311.209 201.305C310.902 200.69 311.209 200.076 311.209 200.076L309.16 198.744C309.16 198.744 307.931 196.49 307.828 195.876C307.726 195.261 307.726 195.261 307.726 195.261C307.726 195.261 306.329 194.837 306.087 193.212C305.993 192.582 308.573 192.721 308.573 192.721L315.024 192.806L313.958 191.353Z" fill="#FFBE9D"/>
<path d="M315.152 192.98L310.694 186.907H301.439V187.694L306.1 193.103L315.152 192.98Z" fill="#455A64"/>
<path d="M325.631 244.76C325.497 244.84 324.203 242.631 323.057 239.729C321.913 236.833 320.85 234.566 320.964 234.499C321.098 234.419 322.392 236.627 323.538 239.531C324.682 242.425 325.745 244.692 325.631 244.76Z" fill="#455A64"/>
<path d="M331.354 263.476C331.319 263.485 331.192 263.11 330.992 262.426C330.79 261.742 330.526 260.744 330.221 259.506C329.61 257.03 328.865 253.584 328.215 249.746C327.568 245.906 327.14 242.406 326.905 239.867C326.787 238.597 326.709 237.568 326.675 236.856C326.639 236.144 326.636 235.748 326.672 235.745C326.708 235.742 326.779 236.131 326.877 236.836C326.985 237.654 327.117 238.651 327.271 239.825C327.6 242.349 328.084 245.83 328.729 249.658C329.376 253.485 330.062 256.931 330.58 259.423C330.819 260.583 331.022 261.568 331.189 262.376C331.329 263.076 331.389 263.467 331.354 263.476Z" fill="#455A64"/>
<path d="M371.566 251.512C371.581 251.545 371.263 251.71 370.67 251.981C370.376 252.123 370.01 252.281 369.568 252.421C369.129 252.566 368.635 252.762 368.064 252.885C366.938 253.198 365.557 253.419 364.013 253.521C362.468 253.59 360.76 253.52 358.998 253.22C357.239 252.897 355.61 252.375 354.183 251.78C352.768 251.154 351.547 250.472 350.597 249.791C350.103 249.479 349.707 249.126 349.344 248.839C348.977 248.556 348.688 248.281 348.46 248.047C347.997 247.588 347.755 247.324 347.78 247.298C347.851 247.221 348.87 248.241 350.801 249.484C351.76 250.114 352.974 250.748 354.368 251.337C355.775 251.896 357.369 252.391 359.088 252.707C360.811 253 362.478 253.083 363.991 253.042C365.502 252.968 366.86 252.79 367.977 252.528C370.218 252.024 371.525 251.416 371.566 251.512Z" fill="#455A64"/>
<path d="M378.401 141.502C378.415 141.592 377.378 141.711 375.834 142.296C374.299 142.868 372.26 144.006 370.597 145.885C368.935 147.765 368.054 149.928 367.673 151.522C367.281 153.126 367.289 154.169 367.198 154.166C367.165 154.166 367.127 153.907 367.121 153.435C367.114 152.963 367.158 152.277 367.313 151.443C367.611 149.784 368.47 147.503 370.207 145.54C371.943 143.578 374.102 142.447 375.712 141.949C376.521 141.693 377.196 141.565 377.665 141.515C378.135 141.463 378.397 141.469 378.401 141.502Z" fill="#263238"/>
<path d="M322.386 157.432C322.386 157.432 322.377 157.425 322.373 157.411C322.389 157.408 322.329 157.385 322.409 157.389L322.422 157.427C322.437 157.48 322.452 157.559 322.469 157.663C322.503 157.871 322.541 158.178 322.584 158.573C322.669 159.364 322.771 160.51 322.884 161.928C323.11 164.762 323.378 168.68 323.639 173.009C323.9 177.34 324.105 181.261 324.227 184.101C324.274 185.438 324.313 186.564 324.344 187.466C324.36 188.261 324.352 188.702 324.316 188.704C324.28 188.706 324.22 188.269 324.142 187.478C324.066 186.579 323.972 185.456 323.86 184.123C323.644 181.288 323.381 177.37 323.12 173.04C322.859 168.711 322.649 164.79 322.517 161.951C322.463 160.615 322.418 159.489 322.382 158.587C322.376 158.243 322.37 157.943 322.365 157.671C322.367 157.588 322.368 157.509 322.37 157.433L322.372 157.401C322.442 157.387 322.387 157.408 322.401 157.411C322.395 157.425 322.386 157.432 322.386 157.432Z" fill="#263238"/>
<path d="M362.677 136.073C362.706 136.079 362.658 136.521 362.476 137.303C362.294 138.085 361.938 139.203 361.289 140.495C360.648 141.788 359.65 143.221 358.287 144.569C356.91 145.9 355.162 147.125 353.135 148.012C349.009 149.803 344.689 149.221 342.108 147.98C340.792 147.372 339.839 146.668 339.253 146.115C338.667 145.561 338.397 145.206 338.417 145.189C338.496 145.086 339.642 146.54 342.255 147.643C344.797 148.763 348.965 149.256 352.926 147.536C354.893 146.676 356.6 145.496 357.954 144.224C359.295 142.935 360.295 141.566 360.963 140.324C362.309 137.83 362.564 136.038 362.677 136.073Z" fill="#263238"/>
<path d="M366.994 161.95C367.005 161.949 367.032 162.121 367.073 162.457C367.114 162.822 367.17 163.315 367.242 163.944C367.379 165.283 367.575 167.195 367.824 169.626C368.302 174.573 368.984 181.627 369.812 190.193L369.781 190.1C370.621 191.44 371.528 192.888 372.462 194.378L372.544 194.509L372.451 194.633C371.831 195.464 371.148 196.38 370.454 197.311L370.374 197.419L370.24 197.403C361.485 196.344 351.445 195.129 340.815 193.843C338.782 193.595 336.771 193.349 334.789 193.107L335.079 192.868C334.694 198.302 334.323 203.527 333.976 208.42L333.795 208.165C346.366 211.601 357.149 214.548 364.824 216.646C368.618 217.702 371.642 218.544 373.751 219.132C374.763 219.423 375.555 219.651 376.125 219.815C376.374 219.891 376.574 219.952 376.734 220.001C376.87 220.045 376.939 220.071 376.937 220.078C376.935 220.085 376.863 220.073 376.723 220.042C376.561 220.004 376.357 219.956 376.103 219.896C375.529 219.751 374.73 219.548 373.708 219.29C371.59 218.735 368.553 217.94 364.744 216.941C357.057 214.888 346.257 212.003 333.666 208.641L333.471 208.589L333.485 208.386C333.824 203.492 334.185 198.267 334.561 192.832L334.58 192.56L334.851 192.593C336.833 192.834 338.844 193.079 340.877 193.327C351.504 194.633 361.542 195.866 370.295 196.941L370.081 197.032C370.78 196.104 371.467 195.191 372.09 194.362L372.079 194.616C371.153 193.121 370.253 191.669 369.42 190.325L369.393 190.281L369.389 190.231C368.637 181.658 368.017 174.598 367.582 169.647C367.382 167.211 367.225 165.296 367.115 163.955C367.07 163.324 367.035 162.829 367.009 162.462C366.989 162.125 366.984 161.951 366.994 161.95Z" fill="#263238"/>
</svg>
