<svg width="222" height="192" viewBox="0 0 222 192" fill="none" xmlns="http://www.w3.org/2000/svg">
<path d="M67.7657 66.5917C67.7621 65.7985 68.4022 65.1527 69.1957 65.1491C69.9889 65.1455 70.6351 65.7856 70.6387 66.5787C70.6423 67.3719 70.0022 68.0181 69.2087 68.0217C68.4151 68.0253 67.7693 67.3852 67.7657 66.5917Z" fill="#E6E6E6"/>
<path d="M25.1315 29.876C25.1279 29.0829 25.768 28.437 26.5611 28.4334C27.3543 28.4299 28.0005 29.0699 28.0041 29.8631C28.0077 30.6562 27.3676 31.3025 26.5741 31.306C25.7809 31.3096 25.1351 30.6696 25.1315 29.876Z" fill="#E6E6E6"/>
<path d="M182.86 47.4017C182.857 46.6086 183.497 45.9627 184.29 45.9591C185.083 45.9556 185.729 46.5956 185.733 47.3888C185.737 48.1819 185.097 48.8282 184.303 48.8317C183.51 48.8353 182.864 48.1949 182.86 47.4017Z" fill="#E6E6E6"/>
<path d="M96.0384 25.539C96.0348 24.7459 96.6749 24.0996 97.4684 24.096C98.2616 24.0925 98.9078 24.7325 98.9114 25.526C98.915 26.3196 98.2749 26.9654 97.4814 26.969C96.6879 26.9722 96.042 26.3322 96.0384 25.539Z" fill="#E6E6E6"/>
<path d="M99.1644 71.0828C99.1608 70.2896 99.8009 69.6434 100.594 69.6398C101.387 69.6362 102.033 70.2763 102.037 71.0698C102.041 71.863 101.401 72.5088 100.607 72.5124C99.8142 72.5164 99.168 71.8759 99.1644 71.0828Z" fill="#E6E6E6"/>
<path d="M111.881 49.9956C111.877 49.2024 112.517 48.5562 113.311 48.5526C114.104 48.549 114.75 49.1891 114.754 49.9826C114.758 50.7761 114.117 51.422 113.324 51.4256C112.53 51.4291 111.885 50.7891 111.881 49.9956Z" fill="#E6E6E6"/>
<path d="M184.103 4.52778C184.099 3.73462 184.739 3.08839 185.533 3.08481C186.326 3.08123 186.972 3.72128 186.975 4.51481C186.979 5.30797 186.339 5.9542 185.546 5.95778C184.753 5.96136 184.106 5.3213 184.103 4.52778Z" fill="#E6E6E6"/>
<path d="M159.288 68.0737C159.285 67.2805 159.925 66.6347 160.718 66.6311C161.512 66.6275 162.158 67.2675 162.161 68.0607C162.165 68.8539 161.525 69.5001 160.731 69.5037C159.938 69.5073 159.292 68.8672 159.288 68.0737Z" fill="#E6E6E6"/>
<path d="M25.709 2.17119C25.7054 1.37803 26.3454 0.731793 27.139 0.728211C27.9325 0.724628 28.5783 1.36469 28.5819 2.15822C28.5855 2.95174 27.9455 3.59723 27.1519 3.60082C26.3584 3.6044 25.7125 2.96471 25.709 2.17119Z" fill="#E6E6E6"/>
<path d="M125.361 26.3345C127.441 26.3251 129.141 28.0095 129.15 30.089C129.16 32.1684 127.475 33.8686 125.395 33.878C123.316 33.8874 121.616 32.2029 121.606 30.1231C121.597 28.0436 123.281 26.3438 125.361 26.3345ZM125.392 33.2805C127.143 33.2726 128.561 31.8423 128.553 30.0917C128.545 28.3411 127.115 26.9236 125.364 26.9315C123.613 26.9394 122.196 28.3698 122.203 30.1204C122.211 31.8713 123.642 33.2884 125.392 33.2805Z" fill="#E6E6E6"/>
<path d="M184.926 61.0117C187.007 61.0023 188.706 62.6868 188.716 64.7666C188.725 66.8461 187.041 68.5458 184.96 68.5552C182.881 68.5646 181.181 66.8801 181.172 64.8007C181.162 62.7209 182.847 61.0211 184.926 61.0117ZM184.958 67.9578C186.708 67.9499 188.126 66.5195 188.119 64.769C188.111 63.0184 186.68 61.6009 184.929 61.6088C183.178 61.6167 181.761 63.0471 181.769 64.7976C181.777 66.5482 183.207 67.9657 184.958 67.9578Z" fill="#E6E6E6"/>
<path d="M88.0867 40.2175C90.1669 40.2082 91.8667 41.8926 91.8761 43.9725C91.8855 46.0523 90.201 47.7517 88.1208 47.761C86.0413 47.7704 84.3412 46.086 84.3318 44.0065C84.3224 41.9271 86.0069 40.2269 88.0867 40.2175ZM88.1181 47.164C89.8687 47.1561 91.2865 45.7257 91.2786 43.9752C91.2707 42.2246 89.84 40.8071 88.0894 40.815C86.3389 40.8229 84.9214 42.2532 84.9293 44.0038C84.9372 45.7544 86.3675 47.1719 88.1181 47.164Z" fill="#E6E6E6"/>
<path d="M29.8739 59.0434C31.9541 59.034 33.6538 60.7184 33.6632 62.7983C33.6726 64.8781 31.9881 66.5775 29.9079 66.5869C27.8285 66.5962 26.1284 64.9118 26.119 62.8323C26.1096 60.7529 27.7944 59.0527 29.8739 59.0434ZM29.9052 65.9894C31.6558 65.9815 33.0736 64.5512 33.0657 62.8006C33.0578 61.05 31.6271 59.6325 29.8766 59.6404C28.126 59.6483 26.7085 61.0787 26.7164 62.8293C26.7243 64.5798 28.1547 65.9973 29.9052 65.9894Z" fill="#E6E6E6"/>
<path d="M135.89 54.8227C137.97 54.8133 139.67 56.4978 139.679 58.5776C139.688 60.657 138.004 62.3572 135.924 62.3665C133.844 62.3759 132.144 60.6915 132.135 58.6116C132.126 56.5318 133.81 54.8321 135.89 54.8227ZM135.921 61.7691C137.672 61.7612 139.089 60.3308 139.081 58.5803C139.074 56.8297 137.642 55.4122 135.892 55.4201C134.142 55.428 132.724 56.8584 132.732 58.6089C132.74 60.3595 134.17 61.777 135.921 61.7691Z" fill="#E6E6E6"/>
<path d="M32.738 75.1377C-10.5575 100.135 -10.5566 140.662 32.7403 165.659C76.0371 190.656 146.234 190.656 189.529 165.659C232.824 140.662 232.824 100.134 189.527 75.1377C146.23 50.1409 76.0335 50.1409 32.738 75.1377Z" fill="#F5F5F5"/>
<path opacity="0.15" d="M45.1887 79.3236C8.23679 100.659 8.23908 135.249 45.1923 156.583C82.1465 177.917 142.059 177.915 179.012 156.581C215.964 135.247 215.962 100.657 179.009 79.3222C142.054 57.9873 82.1414 57.9882 45.1887 79.3236Z" fill="black"/>
<path opacity="0.15" d="M7.32831 135.388L67.7485 171.828C73.3159 168.92 80.742 168.634 88.6674 172.472C97.0097 176.512 104.336 185.804 97.4782 189.764C90.6207 193.723 74.5257 189.494 67.5285 184.677C62.1389 180.967 61.444 177.446 64.0591 174.533L0.433595 139.369C-1.78335 138.089 5.11183 134.108 7.32831 135.388Z" fill="black"/>
<path d="M112.484 176.189L206.338 182.924L214.799 117.117L112.484 176.189Z" fill="#BA68C8"/>
<g opacity="0.35">
<path d="M112.484 176.189L206.338 182.924L214.799 117.117L112.484 176.189Z" fill="white"/>
</g>
<path d="M214.798 176.189H112.484L214.799 117.117L214.798 176.189Z" fill="#BA68C8"/>
<g opacity="0.55">
<path d="M214.798 176.189H112.484L214.799 117.117L214.798 176.189Z" fill="white"/>
</g>
<g opacity="0.25">
<path d="M121.537 170.962C142.141 169.64 162.138 164.421 177.936 155.3C193.735 146.178 202.775 134.633 205.063 122.738L121.537 170.962Z" fill="#BA68C8"/>
</g>
<g opacity="0.3">
<path d="M211.462 172.649H118.615L112.484 176.189H214.798L214.799 117.117L211.462 119.044V172.649Z" fill="white"/>
</g>
<path d="M112.484 176.189L206.861 178.861L207.204 176.189H112.484Z" fill="#BA68C8"/>
<path d="M47.3992 74.3271C83.1312 53.6958 141.064 53.6958 176.798 74.3257V70.6097C195.484 81.3977 204.378 95.691 203.522 109.824C204.378 123.955 195.484 138.246 176.801 149.033C141.069 169.662 83.1358 169.663 47.4024 149.033C11.6699 128.405 11.6681 94.9575 47.3992 74.3271Z" fill="#263238"/>
<path d="M47.3992 70.6112C11.6681 91.2416 11.6699 124.689 47.4029 145.318C83.1363 165.947 141.069 165.946 176.801 145.317C212.534 124.688 212.531 91.2397 176.799 70.6098C141.064 49.9798 83.1312 49.9807 47.3992 70.6112Z" fill="#455A64"/>
<path d="M112.093 55.6564H112.094C136.451 55.6574 159.336 61.1274 176.539 71.0589C193.654 80.9403 203.08 94.0468 203.08 107.965C203.08 121.881 193.655 134.987 176.542 144.867C159.337 154.8 136.451 160.27 112.1 160.27C87.7502 160.27 64.8657 154.8 47.6619 144.868C30.5469 134.988 21.121 121.881 21.1206 107.964C21.1201 94.0472 30.545 80.9412 47.6583 71.0603C64.8629 61.1269 87.7461 55.6564 112.093 55.6564ZM112.1 55.1375C88.6803 55.1365 65.2675 60.2943 47.3992 70.6106C11.6681 91.241 11.67 124.689 47.4029 145.318C65.2675 155.631 88.6867 160.789 112.1 160.789C135.52 160.789 158.933 155.632 176.802 145.316C212.534 124.687 212.531 91.2392 176.799 70.6092C158.934 60.2961 135.514 55.1388 112.1 55.1375Z" fill="#37474F"/>
<path d="M164.334 79.6029C193.51 96.4465 193.511 123.756 164.336 140.6C135.162 157.444 87.8595 157.444 58.6846 140.601C29.5097 123.758 29.5079 96.4484 58.6823 79.6042C87.8563 62.7583 135.158 62.7583 164.334 79.6029Z" fill="#37474F"/>
<path d="M160.739 82.7186C187.928 97.8405 187.929 122.361 160.741 137.483C133.552 152.606 89.4702 152.606 62.2794 137.484C35.0895 122.361 35.0886 97.8423 62.2766 82.7191C89.4651 67.5959 133.549 67.5959 160.739 82.7186Z" fill="#455A64"/>
<path opacity="0.25" d="M79.758 144.473C69.9722 146.84 60.0383 145.768 53.8313 141.675C51.5067 140.142 49.7794 138.282 48.6963 136.147C46.496 131.805 41.1339 128.702 33.9849 127.63C30.6324 127.128 27.5263 126.255 24.7538 125.035C18.1561 122.132 13.9638 117.401 12.9498 111.714C11.8271 105.419 14.6273 98.7495 20.8336 92.9356C26.4583 87.6669 34.3742 83.5998 43.1227 81.4831C44.0304 81.2635 44.9556 81.0635 45.8712 80.8879C47.0835 80.656 48.3119 80.3902 49.5218 80.0975C57.1587 78.2493 64.7849 75.1541 71.5753 71.1465C73.5658 69.9716 75.7147 68.8996 77.9621 67.9605C80.683 66.8236 83.5354 65.8907 86.4408 65.1877C102.15 61.387 117.786 64.6342 124.465 73.0838C128.607 78.3229 129.01 84.7716 125.6 91.242C123.387 95.4434 123.345 99.7189 125.481 103.607C127.925 108.056 126.68 113.476 122.149 118.106C119.945 120.358 117.155 122.272 113.856 123.795C107.344 126.799 101.932 130.474 98.2068 134.423C96.2588 136.488 93.8393 138.367 91.0159 140.009C87.6114 141.988 83.8239 143.49 79.7589 144.473C79.7587 144.472 79.758 144.473 79.758 144.473Z" fill="black"/>
<path d="M78.0488 66.2582C75.7919 67.2012 73.6875 68.2562 71.748 69.4009C64.0463 73.9466 55.151 77.4424 45.8213 79.227C36.5354 81.0031 27.5209 85.1116 21.132 91.0959C9.3433 102.138 10.9697 115.742 24.8088 121.83C27.5816 123.05 30.636 123.889 33.8539 124.371C41.1767 125.469 46.7957 128.684 49.147 133.322C50.1334 135.268 51.7425 137.043 54 138.532C62.8245 144.351 78.7732 143.611 90.4303 136.835C93.2615 135.189 95.6111 133.338 97.4589 131.379C101.485 127.111 107.063 123.48 113.328 120.59C116.429 119.16 119.219 117.291 121.41 115.052C125.854 110.511 126.803 105.503 124.626 101.54C122.444 97.5693 122.318 92.9464 124.732 88.3662C127.837 82.473 127.746 76.2684 123.689 71.136C115.799 61.1553 95.4601 58.9829 78.0488 66.2582Z" fill="#BA68C8"/>
<g opacity="0.9">
<path d="M78.0488 66.2582C75.7919 67.2012 73.6875 68.2562 71.748 69.4009C64.0463 73.9466 55.151 77.4424 45.8213 79.227C36.5354 81.0031 27.5209 85.1116 21.132 91.0959C9.3433 102.138 10.9697 115.742 24.8088 121.83C27.5816 123.05 30.636 123.889 33.8539 124.371C41.1767 125.469 46.7957 128.684 49.147 133.322C50.1334 135.268 51.7425 137.043 54 138.532C62.8245 144.351 78.7732 143.611 90.4303 136.835C93.2615 135.189 95.6111 133.338 97.4589 131.379C101.485 127.111 107.063 123.48 113.328 120.59C116.429 119.16 119.219 117.291 121.41 115.052C125.854 110.511 126.803 105.503 124.626 101.54C122.444 97.5693 122.318 92.9464 124.732 88.3662C127.837 82.473 127.746 76.2684 123.689 71.136C115.799 61.1553 95.4601 58.9829 78.0488 66.2582Z" fill="white"/>
</g>
<path opacity="0.5" d="M20.8702 95.1653C19.9234 96.4304 18.2112 99.3711 19.9889 100.773C21.8139 102.212 24.1767 99.7517 25.4177 98.5303C30.1719 93.8518 34.641 89.124 40.782 86.4771C41.7608 86.0552 42.7932 85.6587 43.5211 84.8477C43.6248 84.7324 43.7244 84.6017 43.751 84.4423C43.8102 84.0886 43.495 83.7779 43.1876 83.6161C42.3047 83.1518 41.2814 83.2397 40.3287 83.3946C32.8273 84.6114 25.5598 88.8975 20.8702 95.1653Z" fill="white"/>
<path opacity="0.5" d="M102.188 67.2628C102.12 68.3128 103.214 69.0066 104.139 69.3999C108.583 71.2889 113.37 72.8355 116.777 76.4769C117.254 76.9857 117.71 77.5415 118.304 77.8734C118.897 78.2054 119.683 78.2552 120.153 77.7766C120.507 77.4159 120.603 76.8476 120.607 76.3143C120.628 73.4218 118.522 70.9506 116.331 69.1769C114.025 67.3102 111.38 65.7975 108.553 65.2201C106.968 64.8964 102.356 64.6888 102.188 67.2628Z" fill="white"/>
<path opacity="0.5" d="M16.2015 104.081C16.1727 104.169 16.149 104.259 16.1305 104.352C16.0164 104.93 16.1397 105.581 16.5095 106.039C17.3855 107.124 19.6468 106.64 20.1837 105.449C20.4795 104.793 20.2846 103.968 19.8934 103.343C19.1305 102.126 17.9859 102.057 17.0024 102.903C16.645 103.211 16.353 103.616 16.2015 104.081Z" fill="white"/>
<path opacity="0.3" d="M123.255 86.1569C119.729 92.8874 119.568 95.4236 121.976 100.787C124.378 106.139 123.238 112.47 114.306 117.159C104.918 122.089 103.44 121.952 95.7681 129.983C88.0975 138.013 77.9845 140.698 67.6671 140.292C60.3414 140.02 54.5798 137.9 51.49 132.917C48.3999 127.934 44.5792 123.352 34.3903 122.453C24.2043 121.555 18.205 117.837 15.0051 113.46C16.8449 116.85 20.1269 119.771 24.8093 121.831C27.582 123.05 30.6364 123.89 33.8539 124.372C41.1767 125.469 46.7958 128.684 49.1471 133.323C50.1334 135.269 51.7426 137.044 54.0001 138.533C62.8246 144.352 78.7733 143.612 90.4304 136.836C93.2616 135.19 95.6112 133.338 97.4591 131.379C101.485 127.112 107.063 123.481 113.328 120.591C116.429 119.161 119.22 117.292 121.41 115.053C125.854 110.512 126.803 105.504 124.626 101.541C122.444 97.5701 122.318 92.9472 124.732 88.367C127.837 82.4738 127.747 76.2691 123.689 71.1368C121.392 68.2308 118.039 65.9886 114.011 64.4467C126.386 70.667 126.78 79.4278 123.255 86.1569Z" fill="#BA68C8"/>
<path opacity="0.15" d="M25.4802 112.278C23.8716 111.743 21.606 112.291 20.4201 113.503C19.2338 114.715 19.5766 116.131 21.1857 116.667C22.7944 117.203 25.06 116.655 26.2462 115.443C27.4316 114.231 27.0889 112.814 25.4802 112.278ZM94.5952 64.6238C92.3822 63.887 89.2654 64.6411 87.634 66.308C86.0027 67.9753 86.4741 69.9238 88.6872 70.661C90.9003 71.3982 94.017 70.6437 95.6484 68.9767C97.2798 67.3098 96.8083 65.3609 94.5952 64.6238ZM109.087 111.773C106.874 111.036 103.758 111.79 102.126 113.457C100.495 115.124 100.966 117.073 103.179 117.81C105.392 118.547 108.509 117.793 110.141 116.126C111.772 114.459 111.301 112.51 109.087 111.773ZM34.377 112.998C33.423 112.68 32.0797 113.005 31.3761 113.724C30.6728 114.442 30.8761 115.282 31.8301 115.6C32.7841 115.918 34.1277 115.593 34.831 114.874C35.5343 114.156 35.3309 113.315 34.377 112.998ZM57.0084 127.606C56.0544 127.288 54.7108 127.613 54.0075 128.332C53.3042 129.05 53.5075 129.89 54.4615 130.208C55.4155 130.526 56.7588 130.201 57.4624 129.482C58.1656 128.763 57.9623 127.923 57.0084 127.606ZM83.9158 67.4232C82.6022 66.9858 80.7525 67.4334 79.7841 68.4229C78.8157 69.4124 79.0956 70.5692 80.4093 71.0066C81.7229 71.444 83.5725 70.9965 84.5409 70.007C85.5093 69.0175 85.2294 67.8606 83.9158 67.4232ZM118.812 83.1489C117.499 82.7116 115.649 83.1591 114.681 84.1486C113.712 85.1381 113.992 86.2949 115.306 86.7323C116.619 87.1697 118.469 86.7222 119.437 85.7327C120.406 84.7428 120.126 83.5863 118.812 83.1489ZM117.475 106.442C116.161 106.004 114.312 106.452 113.343 107.441C112.375 108.431 112.655 109.588 113.968 110.025C115.282 110.462 117.132 110.015 118.1 109.025C119.068 108.036 118.789 106.879 117.475 106.442ZM63.3072 130.624C61.9936 130.187 60.1439 130.634 59.1755 131.624C58.2071 132.613 58.487 133.77 59.8007 134.207C61.1143 134.645 62.9639 134.197 63.9323 133.208C64.9007 132.218 64.6208 131.061 63.3072 130.624ZM89.5515 128.949C88.2378 128.512 86.3882 128.959 85.4198 129.949C84.4514 130.939 84.7313 132.095 86.0449 132.533C87.3585 132.97 89.2082 132.523 90.1766 131.533C91.145 130.544 90.8647 129.387 89.5515 128.949ZM80.1767 71.9435C79.258 71.6375 77.9643 71.9505 77.2867 72.6427C76.6094 73.3349 76.8052 74.1439 77.7239 74.4499C78.6426 74.7559 79.9364 74.4428 80.614 73.7506C81.2912 73.0585 81.0954 72.2495 80.1767 71.9435ZM111.537 90.1638C110.86 90.8559 111.056 91.6649 111.975 91.9709C112.893 92.2769 114.187 91.9639 114.865 91.2717C115.542 90.5796 115.346 89.7706 114.427 89.4646C113.509 89.1586 112.215 89.4717 111.537 90.1638ZM115.082 104.405C116 104.711 117.294 104.398 117.972 103.706C118.649 103.013 118.453 102.204 117.535 101.898C116.616 101.592 115.322 101.905 114.644 102.598C113.967 103.289 114.163 104.099 115.082 104.405ZM88.0706 72.0422C87.3596 71.8055 86.3582 72.0478 85.8341 72.5833C85.3097 73.119 85.4612 73.7452 86.1725 73.9818C86.8834 74.2186 87.8848 73.9763 88.4093 73.4406C88.9334 72.9051 88.7819 72.2789 88.0706 72.0422ZM108.303 88.3251C109.014 88.5619 110.015 88.3196 110.539 87.784C111.063 87.2485 110.912 86.6223 110.201 86.3855C109.49 86.1488 108.488 86.3911 107.964 86.9266C107.44 87.4623 107.591 88.0885 108.303 88.3251ZM108.318 107.178C109.029 107.414 110.031 107.172 110.555 106.636C111.079 106.101 110.927 105.475 110.216 105.238C109.505 105.001 108.504 105.244 107.98 105.779C107.455 106.314 107.607 106.941 108.318 107.178ZM29.4499 116.33C28.6567 116.066 27.5394 116.336 26.9546 116.934C26.3698 117.531 26.5389 118.23 27.3321 118.494C28.1253 118.758 29.2426 118.488 29.8274 117.89C30.412 117.292 30.2431 116.594 29.4499 116.33ZM64.2113 126.665C63.4181 126.401 62.3008 126.672 61.7161 127.269C61.1313 127.867 61.3004 128.565 62.0936 128.83C62.8868 129.094 64.0041 128.823 64.5888 128.226C65.174 127.628 65.005 126.93 64.2113 126.665Z" fill="#BA68C8"/>
<path opacity="0.2" d="M67.3702 116.241C80.2653 113.121 89.1373 104.055 87.1863 95.9919C85.2354 87.9283 73.2003 83.9207 60.3052 87.0406C47.4101 90.1605 38.5381 99.2264 40.4891 107.29C42.44 115.354 54.4751 119.361 67.3702 116.241Z" fill="#FFD13B"/>
<path d="M83.723 104.722C76.4041 112.199 62.423 115.582 52.4992 112.276C46.5087 110.282 43.3631 106.308 43.4183 101.826C43.4287 101.523 43.4461 101.219 43.4727 100.92C44.2921 90.428 51.2442 81.4349 61.3271 79.1479C71.2078 76.9053 81.176 81.7595 86.5684 90.5142C86.6405 90.6242 86.71 90.7391 86.7798 90.8538C86.8483 90.9647 86.9135 91.0764 86.9747 91.1891C89.1294 95.1648 88.1688 100.174 83.723 104.722Z" fill="#FFD13B"/>
<g opacity="0.3">
<path d="M83.723 104.722C76.4041 112.199 62.423 115.582 52.4992 112.276C46.5087 110.282 43.3631 106.308 43.4183 101.826C43.4287 101.523 43.4461 101.219 43.4727 100.92C44.2921 90.428 51.2442 81.4349 61.3271 79.1479C71.2078 76.9053 81.176 81.7595 86.5684 90.5142C86.6405 90.6242 86.71 90.7391 86.7798 90.8538C86.8483 90.9647 86.9135 91.0764 86.9747 91.1891C89.1294 95.1648 88.1688 100.174 83.723 104.722Z" fill="white"/>
</g>
<path opacity="0.5" d="M84.6048 103.756C80.2668 107.37 68.921 111.878 60.2267 108.764C57.1933 107.678 54.9002 106.079 52.966 103.315C49.5532 98.4413 49.3077 91.8333 51.2005 86.4361C51.3505 86.0082 52.0487 84.481 52.5897 83.3361C52.5872 83.3368 52.5846 83.3374 52.5821 83.338C47.3713 87.4532 44.0258 93.8443 43.4731 100.92C43.4466 101.219 43.4292 101.524 43.4187 101.826C43.3635 106.308 46.5091 110.282 52.4997 112.277C62.4235 115.582 76.4046 112.199 83.7234 104.722C84.0354 104.402 84.3263 104.08 84.6048 103.756Z" fill="#FFD13B"/>
<g opacity="0.3">
<path d="M59.9309 87.9148C60.2599 88.6619 60.765 89.3254 61.4029 89.793C62.4111 90.5324 63.6389 90.7954 64.8308 90.996C69.9507 91.8579 75.2979 92.032 80.0415 94.6671C80.8043 95.091 81.562 95.5685 82.3967 95.7506C83.2314 95.9327 84.1851 95.7551 84.6983 95.0529C85.4382 94.0409 84.961 92.5201 84.352 91.3618C82.1604 87.1953 78.3506 83.7052 74.1836 82.0357C70.4964 80.5581 65.7543 79.8037 62.2118 81.7425C61.0876 82.3576 60.1007 83.3437 59.6925 84.631C59.3581 85.6874 59.4759 86.881 59.9309 87.9148Z" fill="white"/>
</g>
<g opacity="0.3">
<path d="M62.8296 85.8493C63.7648 86.0159 65.0796 85.4487 65.7356 85.2829C66.9068 84.9865 68.1192 84.9339 69.3257 84.8932C69.9063 84.8735 71.1174 84.6896 70.8136 83.7751C70.7126 83.471 70.4687 83.2442 70.2181 83.0619C68.2718 81.6475 65.4287 81.6475 63.4506 82.7588C62.9774 83.0246 62.5279 83.2625 62.1881 83.7242C61.9111 84.1005 61.7256 84.6147 61.8925 85.075C62.0647 85.5508 62.409 85.7743 62.8296 85.8493Z" fill="white"/>
</g>
<path d="M98.09 182.691L98.113 182.704C95.9323 184.475 93.4311 186.182 87.5252 186.456C81.6193 186.729 73.564 185.498 67.4096 181.044C61.5106 176.774 61.9584 171.734 62.848 169.434C62.9335 169.31 63.9595 167.601 64.0582 167.486L67.7467 164.78C70.467 163.494 74.7581 162.554 78.8112 162.949C87.2661 163.77 97.1035 169.289 99.7994 176.735C100.741 179.337 99.9152 181.307 98.09 182.691Z" fill="#E0E0E0"/>
<path opacity="0.15" d="M98.09 182.691L98.113 182.704C95.9323 184.475 93.4311 186.182 87.5252 186.456C81.6193 186.729 73.564 185.498 67.4096 181.044C61.5106 176.774 61.9584 171.734 62.848 169.434C62.9335 169.31 63.9595 167.601 64.0582 167.486L67.7467 164.78C70.467 163.494 74.7581 162.554 78.8112 162.949C87.2661 163.77 97.1035 169.289 99.7994 176.735C100.741 179.337 99.9152 181.307 98.09 182.691Z" fill="black"/>
<path opacity="0.15" d="M73.1093 183.488C65.7888 180.05 63.119 174.955 66.644 175.757C66.644 175.757 67.856 170.046 68.1141 169.657C68.2634 169.433 65.7397 168.764 63.5815 168.239C63.2632 168.757 62.8972 169.362 62.848 169.434C61.9584 171.734 61.5106 176.774 67.4096 181.044C73.5644 185.498 81.6193 186.729 87.5252 186.456C88.931 186.391 90.1389 186.242 91.2008 186.033C88.0093 186.545 79.6357 186.553 73.1093 183.488Z" fill="black"/>
<path d="M0.433803 133.28L65.1529 169.049C66.3323 168.14 67.723 167.353 69.2827 166.665V165.706L7.32852 128.341C5.41378 127.235 0.00942817 130.055 0.00575392 131.668C0.00575392 131.825 0.00207995 132.465 0.00207995 132.631C0.00116138 132.884 0.133434 133.106 0.433803 133.28Z" fill="#E0E0E0"/>
<path opacity="0.25" d="M0.433742 133.28L65.1528 169.049C66.3322 168.14 67.7229 167.353 69.2826 166.665V165.706L7.32846 128.341C5.41372 127.235 0.00936713 130.055 0.00569289 131.668C0.00569289 131.825 0.00201891 132.465 0.00201891 132.631C0.00110035 132.884 0.133373 133.106 0.433742 133.28Z" fill="black"/>
<path d="M7.32834 128.341C5.11231 127.061 -1.78287 131.042 0.433617 132.321L65.1527 168.091C66.2866 167.199 67.6829 166.413 69.2825 165.706L7.32834 128.341Z" fill="#F0F0F0"/>
<path d="M64.7687 167.083C64.7687 167.083 10.7321 137.366 6.70694 135.163C2.2905 132.746 -0.399502 131.641 2.40808 130.021C5.69837 128.121 6.50027 128.962 6.50027 128.962C6.50027 128.962 4.91116 129.066 3.4162 130.021C1.76049 131.08 3.20172 132.495 6.4401 134.047C9.67849 135.599 64.7687 167.083 64.7687 167.083Z" fill="#FAFAFA"/>
<path d="M90.0264 184.165C82.0166 184.165 72.3308 180.792 67.5947 177.533C64.2631 175.239 62.6175 172.957 62.7052 170.751C62.7833 168.78 64.3104 166.88 67.1203 165.258C70.0316 163.577 73.4611 162.689 77.0371 162.689C80.8243 162.689 84.7199 163.645 88.6146 165.532C94.8893 168.57 99.9207 174.144 100.069 178.222C100.137 180.082 99.2446 181.559 97.4176 182.614C95.6352 183.643 93.1482 184.165 90.0264 184.165C90.0273 184.165 90.0269 184.165 90.0264 184.165Z" fill="#E6E6E6"/>
<path d="M77.0375 162.807C80.8068 162.807 84.685 163.76 88.5636 165.638C94.8025 168.659 99.805 174.188 99.9515 178.226C100.017 180.039 99.145 181.48 97.3593 182.512C95.5947 183.53 93.1279 184.047 90.0264 184.047C82.0395 184.047 72.3832 180.685 67.6613 177.435C64.365 175.166 62.7373 172.919 62.8232 170.756C62.8999 168.828 64.4059 166.962 67.1795 165.361C70.0734 163.69 73.4822 162.807 77.0375 162.807ZM77.0375 162.571C73.3114 162.571 69.9196 163.506 67.0615 165.156C61.4256 168.41 60.6044 172.864 67.5276 177.63C72.5829 181.11 82.3881 184.283 90.0264 184.283C92.9608 184.283 95.5741 183.815 97.4773 182.717C104.335 178.757 97.0089 169.466 88.6665 165.426C84.5977 163.455 80.6598 162.571 77.0375 162.571Z" fill="#E0E0E0"/>
<path d="M99.4995 180.828C98.321 176.917 92.7789 171.91 87.3378 169.192C79.637 165.345 73.3114 165.533 69.2904 168.282C65.2698 171.03 65.5059 175.007 72.2564 179.504C73.4432 180.294 74.8656 181.074 76.4147 181.811C83.8615 184.308 92.8087 185.412 97.4773 182.716C98.4092 182.179 99.0582 181.537 99.4995 180.828Z" fill="#F0F0F0"/>
<path d="M75.4364 178.745C80.2745 181.968 90.4007 185.016 93.8706 182.643C97.3404 180.272 91.6513 174.189 86.1321 171.432C80.6708 168.704 76.1846 168.837 73.3329 170.787C70.4812 172.736 70.6489 175.556 75.4364 178.745Z" fill="#FAFAFA"/>
<path opacity="0.25" d="M128.04 154.56C118.192 153.821 109.223 150.081 104.632 144.798C102.913 142.82 101.849 140.729 101.468 138.584C100.695 134.225 96.6013 130.033 90.2357 127.083C87.2506 125.7 84.6054 124.068 82.3748 122.232C77.0662 117.863 74.5471 112.602 75.2817 107.421C76.0947 101.685 80.685 96.7407 88.2063 93.4984C95.0227 90.5602 103.625 89.3058 112.429 89.966C113.342 90.0345 114.266 90.1248 115.174 90.2335C116.376 90.3778 117.603 90.4975 118.82 90.5888C126.506 91.1647 134.55 90.6646 142.083 89.1422C144.291 88.6958 146.617 88.3828 148.996 88.2122C151.875 88.0058 154.817 88.0121 157.741 88.2313C173.55 89.4168 187.204 96.6461 190.949 105.812C193.27 111.495 191.739 117.158 186.638 121.759C183.326 124.746 182.022 128.413 182.868 132.364C183.837 136.886 181.07 141.197 175.465 143.896C172.738 145.209 169.564 146.064 166.029 146.438C159.054 147.176 152.908 148.804 148.258 151.145C145.826 152.37 143.008 153.3 139.884 153.912C136.116 154.649 132.131 154.867 128.04 154.56C128.04 154.56 128.04 154.56 128.04 154.56Z" fill="black"/>
<path d="M149.58 86.772C147.192 86.9433 144.912 87.2542 142.761 87.689C134.217 89.416 124.868 89.9009 115.619 88.7901C106.414 87.6845 96.7719 88.6628 89.0295 92C74.7434 98.1578 72.2391 110.325 83.3743 119.49C85.6053 121.325 88.212 122.914 91.0774 124.242C97.5977 127.263 101.899 131.623 102.725 136.282C103.071 138.236 104.05 140.22 105.72 142.142C112.247 149.652 127.374 153.539 140.275 151.015C143.408 150.402 146.152 149.475 148.459 148.313C153.485 145.783 159.773 144.241 166.484 143.532C169.806 143.18 172.967 142.364 175.677 141.058C181.174 138.412 183.544 134.371 182.681 130.343C181.816 126.308 183.066 122.294 186.677 119.037C191.323 114.847 193.074 109.483 190.799 103.915C186.377 93.089 168.008 85.4505 149.58 86.772Z" fill="#BA68C8"/>
<g opacity="0.9">
<path d="M149.58 86.772C147.192 86.9433 144.912 87.2542 142.761 87.689C134.217 89.416 124.868 89.9009 115.619 88.7901C106.414 87.6845 96.7719 88.6628 89.0295 92C74.7434 98.1578 72.2391 110.325 83.3743 119.49C85.6053 121.325 88.212 122.914 91.0774 124.242C97.5977 127.263 101.899 131.623 102.725 136.282C103.071 138.236 104.05 140.22 105.72 142.142C112.247 149.652 127.374 153.539 140.275 151.015C143.408 150.402 146.152 149.475 148.459 148.313C153.485 145.783 159.773 144.241 166.484 143.532C169.806 143.18 172.967 142.364 175.677 141.058C181.174 138.412 183.544 134.371 182.681 130.343C181.816 126.308 183.066 122.294 186.677 119.037C191.323 114.847 193.074 109.483 190.799 103.915C186.377 93.089 168.008 85.4505 149.58 86.772Z" fill="white"/>
</g>
<path opacity="0.5" d="M87.581 95.4274C86.3216 96.2475 83.8512 98.2923 85.0982 100.003C86.3783 101.759 89.3149 100.312 90.8363 99.6129C96.6643 96.9356 102.24 94.1351 108.764 93.5994C109.803 93.514 110.886 93.4656 111.806 92.9743C111.937 92.9044 112.069 92.8202 112.141 92.6906C112.301 92.4031 112.098 92.0463 111.859 91.8199C111.171 91.1699 110.188 90.9553 109.252 90.8183C101.88 89.7376 93.8188 91.3643 87.581 95.4274Z" fill="white"/>
<path opacity="0.5" d="M171.847 94.4837C171.473 95.368 172.29 96.2751 173.039 96.8762C176.634 99.762 180.651 102.451 182.759 106.551C183.053 107.123 183.315 107.731 183.772 108.185C184.229 108.639 184.949 108.905 185.529 108.627C185.967 108.417 186.225 107.955 186.387 107.497C187.262 105.014 186.024 102.29 184.501 100.142C182.898 97.8822 180.872 95.8301 178.401 94.5314C177.015 93.8033 172.765 92.3162 171.847 94.4837Z" fill="white"/>
<path opacity="0.5" d="M80.5794 101.775C80.5263 101.843 80.4775 101.914 80.4328 101.988C80.1552 102.453 80.0777 103.049 80.2878 103.548C80.7857 104.73 83.0428 104.954 83.897 104.082C84.3676 103.601 84.4294 102.836 84.2486 102.187C83.8955 100.924 82.8459 100.54 81.6764 100.989C81.2514 101.152 80.8585 101.418 80.5794 101.775Z" fill="white"/>
<path opacity="0.3" d="M185.95 116.718C180.663 121.509 179.762 123.646 180.426 128.944C181.089 134.231 178.149 139.355 168.414 140.856C158.179 142.435 156.839 141.898 147.291 146.633C137.746 151.367 127.499 150.808 117.975 147.532C111.207 145.22 106.449 141.762 105.035 136.598C103.62 131.434 101.405 126.407 92.1463 122.743C82.8906 119.081 78.3827 114.18 76.6865 109.506C77.4032 112.945 79.6071 116.389 83.3746 119.49C85.6057 121.326 88.2124 122.915 91.0774 124.242C97.5977 127.263 101.899 131.624 102.725 136.282C103.071 138.237 104.05 140.221 105.72 142.142C112.247 149.652 127.374 153.54 140.275 151.015C143.408 150.402 146.152 149.475 148.459 148.314C153.485 145.784 159.773 144.242 166.484 143.532C169.806 143.181 172.967 142.364 175.677 141.059C181.174 138.412 183.543 134.372 182.681 130.344C181.816 126.309 183.066 122.295 186.677 119.038C191.323 114.848 193.074 109.483 190.799 103.916C189.512 100.764 187.04 97.8833 183.731 95.414C193.459 104.277 191.235 111.927 185.95 116.718Z" fill="#BA68C8"/>
<path opacity="0.15" d="M86.8276 111.461C85.4824 110.543 83.2025 110.372 81.7355 111.079C80.2681 111.785 80.1694 113.101 81.515 114.019C82.8602 114.936 85.1402 115.107 86.6075 114.401C88.0742 113.694 88.1729 112.378 86.8276 111.461ZM165.53 90.0591C163.68 88.7973 160.543 88.5621 158.525 89.5338C156.507 90.5057 156.371 92.3161 158.222 93.5782C160.073 94.8403 163.209 95.0751 165.227 94.1035C167.245 93.1319 167.381 91.3212 165.53 90.0591ZM165.129 134.741C163.278 133.479 160.142 133.244 158.124 134.216C156.106 135.187 155.97 136.998 157.82 138.26C159.671 139.522 162.808 139.757 164.826 138.786C166.844 137.814 166.98 136.003 165.129 134.741ZM94.9311 114.603C94.1334 114.059 92.7815 113.958 91.9112 114.377C91.0413 114.795 90.9828 115.576 91.7805 116.12C92.5782 116.664 93.9304 116.766 94.8003 116.347C95.6703 115.928 95.7288 115.147 94.9311 114.603ZM111.764 133.593C110.966 133.049 109.614 132.948 108.744 133.366C107.874 133.785 107.816 134.566 108.614 135.11C109.411 135.654 110.763 135.755 111.633 135.336C112.503 134.917 112.562 134.137 111.764 133.593ZM154.72 89.4387C153.621 88.6897 151.76 88.5502 150.562 89.1269C149.364 89.7037 149.283 90.7786 150.382 91.5276C151.48 92.2766 153.342 92.4161 154.54 91.8394C155.738 91.2626 155.818 90.1877 154.72 89.4387ZM182.687 112.869C181.588 112.12 179.727 111.98 178.529 112.557C177.331 113.134 177.251 114.209 178.349 114.958C179.448 115.707 181.309 115.846 182.507 115.27C183.705 114.693 183.785 113.618 182.687 112.869ZM174.546 132.533C173.448 131.784 171.586 131.644 170.388 132.221C169.191 132.798 169.11 133.873 170.208 134.622C171.307 135.371 173.168 135.51 174.366 134.934C175.564 134.357 175.645 133.282 174.546 132.533ZM116.759 137.977C115.661 137.228 113.799 137.088 112.601 137.665C111.403 138.242 111.323 139.316 112.421 140.065C113.52 140.814 115.381 140.954 116.579 140.377C117.777 139.8 117.858 138.726 116.759 137.977ZM141.786 143.98C140.688 143.231 138.827 143.091 137.629 143.668C136.431 144.245 136.35 145.32 137.449 146.069C138.547 146.818 140.408 146.957 141.606 146.381C142.804 145.804 142.885 144.729 141.786 143.98ZM149.887 92.2678C149.119 91.7439 147.817 91.6462 146.979 92.0497C146.141 92.4531 146.085 93.2048 146.853 93.7287C147.621 94.2526 148.923 94.3503 149.762 93.9468C150.599 93.5433 150.656 92.7917 149.887 92.2678ZM173.812 116.842C172.974 117.245 172.917 117.997 173.686 118.521C174.454 119.045 175.756 119.142 176.594 118.739C177.432 118.335 177.488 117.584 176.72 117.06C175.952 116.536 174.649 116.438 173.812 116.842ZM172.912 130.101C173.68 130.625 174.982 130.723 175.82 130.319C176.658 129.916 176.714 129.164 175.946 128.64C175.178 128.116 173.876 128.019 173.038 128.422C172.2 128.825 172.144 129.577 172.912 130.101ZM157.237 94.5919C156.642 94.1865 155.635 94.1109 154.986 94.4231C154.338 94.7352 154.294 95.3171 154.889 95.7225C155.483 96.1278 156.491 96.2034 157.14 95.8912C157.788 95.5791 157.832 94.9973 157.237 94.5919ZM171.332 114.342C171.926 114.747 172.934 114.823 173.582 114.511C174.231 114.199 174.274 113.617 173.68 113.211C173.085 112.806 172.078 112.73 171.429 113.043C170.781 113.355 170.737 113.937 171.332 114.342ZM165.769 130.569C166.364 130.974 167.372 131.05 168.02 130.738C168.668 130.425 168.712 129.844 168.117 129.438C167.523 129.033 166.515 128.957 165.867 129.269C165.218 129.581 165.174 130.163 165.769 130.569ZM89.3397 116.073C88.6764 115.621 87.552 115.536 86.8286 115.885C86.1053 116.233 86.0566 116.882 86.7199 117.334C87.3832 117.787 88.5076 117.871 89.231 117.523C89.9543 117.174 90.003 116.525 89.3397 116.073ZM118.775 134.827C118.112 134.375 116.988 134.29 116.264 134.639C115.541 134.987 115.492 135.636 116.156 136.088C116.819 136.541 117.943 136.625 118.667 136.277C119.39 135.928 119.439 135.279 118.775 134.827Z" fill="#BA68C8"/>
<path opacity="0.2" d="M124.812 126.753C137.788 127.726 148.763 122.442 149.325 114.949C149.887 107.457 139.823 100.595 126.846 99.6221C113.87 98.649 102.895 103.934 102.333 111.426C101.771 118.918 111.835 125.78 124.812 126.753Z" fill="#FFD13B"/>
<path d="M143.505 121.479C134.452 125.837 120.383 124.782 112.084 119.123C107.074 115.707 105.31 111.395 106.687 107.555C106.787 107.297 106.893 107.04 107.006 106.791C110.876 97.9947 120.035 92.2282 130.136 93.1204C140.036 93.9933 147.918 100.998 150.368 110.061C150.403 110.176 150.434 110.294 150.465 110.413C150.497 110.528 150.524 110.642 150.548 110.757C151.386 114.789 149.007 118.827 143.505 121.479Z" fill="#FFD13B"/>
<g opacity="0.3">
<path d="M143.505 121.479C134.452 125.837 120.383 124.782 112.084 119.123C107.074 115.707 105.31 111.395 106.687 107.555C106.787 107.297 106.893 107.04 107.006 106.791C110.876 97.9947 120.035 92.2282 130.136 93.1204C140.036 93.9933 147.918 100.998 150.368 110.061C150.403 110.176 150.434 110.294 150.465 110.413C150.497 110.528 150.524 110.642 150.548 110.757C151.386 114.789 149.007 118.827 143.505 121.479Z" fill="white"/>
</g>
<path opacity="0.5" d="M144.615 120.898C139.491 122.777 127.552 123.438 120.346 118.293C117.832 116.498 116.162 114.471 115.171 111.545C113.423 106.382 115.149 100.627 118.514 96.5194C118.781 96.1937 119.886 95.0776 120.73 94.2459C120.728 94.2457 120.725 94.2455 120.722 94.2453C114.634 96.3084 109.616 100.859 107.006 106.791C106.893 107.04 106.787 107.298 106.688 107.555C105.31 111.396 107.075 115.708 112.084 119.123C120.383 124.783 134.452 125.838 143.506 121.48C143.892 121.293 144.259 121.098 144.615 120.898Z" fill="#FFD13B"/>
<g opacity="0.3">
<path d="M126.238 100.268C126.324 101.004 126.6 101.719 127.058 102.302C127.782 103.224 128.852 103.799 129.906 104.309C134.437 106.503 139.384 108.17 143.039 111.783C143.626 112.364 144.193 112.99 144.92 113.383C145.646 113.777 146.59 113.894 147.277 113.436C148.268 112.775 148.272 111.331 148.046 110.161C147.23 105.954 144.701 101.871 141.3 99.252C138.29 96.9346 134.081 94.9405 130.196 95.6039C128.963 95.8143 127.749 96.3828 126.986 97.3748C126.361 98.189 126.118 99.2494 126.238 100.268Z" fill="white"/>
</g>
<g opacity="0.3">
<path d="M129.558 99.313C130.383 99.7217 131.78 99.6065 132.442 99.6499C133.625 99.7272 134.774 100.026 135.913 100.333C136.462 100.481 137.648 100.666 137.635 99.7929C137.631 99.5026 137.47 99.2382 137.289 99.0103C135.888 97.2412 133.231 96.4347 131.053 96.8299C130.532 96.9243 130.042 97.0016 129.587 97.3025C129.217 97.5477 128.892 97.9376 128.911 98.381C128.932 98.8392 129.187 99.1292 129.558 99.313Z" fill="white"/>
</g>
</svg>
