<svg width="227" height="192" viewBox="0 0 227 192" fill="none" xmlns="http://www.w3.org/2000/svg">
<path d="M42.0465 63.1788C43.8129 64.7132 47.1609 65.5697 49.5245 65.0914C50.7068 64.8533 51.4193 64.3257 51.6152 63.6672L52.1036 62.0255C52.2994 61.3669 51.9795 60.5751 51.096 59.8086C49.3308 58.2745 45.9827 57.4181 43.6176 57.896C42.436 58.1352 41.7239 58.6621 41.528 59.3206L41.0397 60.9619C40.8442 61.6209 41.1641 62.4127 42.0465 63.1788ZM43.13 59.5377C45.4952 59.0597 48.8432 59.9162 50.608 61.4503C51.119 61.8937 51.4416 62.3461 51.5849 62.7755C51.2252 63.0773 50.6972 63.312 50.0132 63.4501C47.6493 63.9281 44.3012 63.072 42.5348 61.5375C42.0238 61.0941 41.7012 60.6417 41.5595 60.2115C41.9201 59.9105 42.4469 59.6758 43.13 59.5377Z" fill="#F0F0F0"/>
<path opacity="0.1" d="M41.0401 60.9623C41.1224 60.6852 41.297 60.4309 41.5596 60.2116C41.7012 60.6418 42.0238 61.0941 42.5349 61.5375C44.3013 63.072 47.6493 63.9285 50.0132 63.4501C50.6972 63.3124 51.2256 63.0776 51.5849 62.7755C51.6892 63.0888 51.698 63.3901 51.6156 63.6672C51.4197 64.3258 50.7069 64.8537 49.5249 65.0914C47.161 65.5698 43.8129 64.7133 42.0469 63.1788C41.1641 62.4127 40.8442 61.6209 41.0401 60.9623Z" fill="black"/>
<path d="M107.95 61.7947C109.351 63.5957 112.427 65.0162 114.821 64.9679C116.018 64.9449 116.818 64.5578 117.143 63.9522L117.954 62.4438C118.279 61.8386 118.13 61.0131 117.429 60.1133C116.028 58.3127 112.952 56.8922 110.557 56.9401C109.361 56.9646 108.561 57.351 108.236 57.9562L107.426 59.4646C107.101 60.0705 107.249 60.8956 107.95 61.7947ZM109.747 58.4488C112.142 58.4006 115.218 59.8214 116.619 61.6221C117.024 62.1427 117.245 62.6386 117.296 63.0809C116.885 63.3109 116.324 63.4458 115.631 63.4595C113.238 63.5082 110.161 62.0877 108.76 60.2867C108.354 59.766 108.133 59.2701 108.084 58.8271C108.495 58.5986 109.055 58.463 109.747 58.4488Z" fill="#F0F0F0"/>
<path opacity="0.1" d="M107.426 59.4649C107.562 59.2103 107.784 58.9936 108.084 58.8271C108.133 59.2698 108.354 59.7656 108.76 60.2867C110.161 62.0877 113.238 63.5082 115.631 63.4595C116.324 63.4462 116.885 63.3109 117.296 63.0809C117.333 63.4032 117.28 63.6976 117.143 63.9522C116.818 64.5574 116.018 64.9445 114.821 64.9679C112.427 65.0166 109.351 63.5961 107.95 61.7947C107.249 60.8956 107.101 60.0705 107.426 59.4649Z" fill="black"/>
<path d="M182.655 62.0202C184.056 63.8212 187.133 65.2417 189.527 65.1931C190.724 65.17 191.524 64.7829 191.849 64.1773L192.659 62.669C192.984 62.0638 192.835 61.2383 192.134 60.3385C190.734 58.5378 187.657 57.1173 185.263 57.1656C184.066 57.1901 183.267 57.5765 182.942 58.1817L182.131 59.6901C181.806 60.2956 181.955 61.1211 182.655 62.0202ZM184.452 58.6743C186.847 58.6261 189.924 60.0469 191.324 61.8472C191.73 62.3679 191.95 62.8638 192.002 63.306C191.591 63.5361 191.03 63.6709 190.337 63.6847C187.943 63.7333 184.867 62.3129 183.465 60.5118C183.059 59.9912 182.839 59.4953 182.789 59.0523C183.201 58.8237 183.761 58.6885 184.452 58.6743Z" fill="#F0F0F0"/>
<path opacity="0.1" d="M182.131 59.6907C182.268 59.4361 182.489 59.2194 182.789 59.0529C182.838 59.4955 183.059 59.9914 183.465 60.5124C184.867 62.3135 187.943 63.7339 190.337 63.6853C191.03 63.6719 191.591 63.5366 192.002 63.3066C192.039 63.6289 191.986 63.9233 191.849 64.1779C191.524 64.7831 190.724 65.1703 189.527 65.1937C187.133 65.2423 184.056 63.8218 182.655 62.0208C181.955 61.1214 181.806 60.2959 182.131 59.6907Z" fill="black"/>
<path d="M181.568 33.2852C182.79 35.0822 185.635 36.609 187.923 36.6954C189.067 36.7394 189.856 36.4145 190.206 35.8548L191.076 34.4599C191.426 33.9002 191.337 33.1042 190.726 32.2064C189.505 30.4098 186.66 28.8833 184.37 28.7962C183.227 28.7533 182.438 29.0778 182.089 29.6375L181.218 31.0324C180.869 31.5917 180.958 32.3878 181.568 33.2852ZM183.5 30.1907C185.789 30.2774 188.634 31.8043 189.855 33.6009C190.209 34.1206 190.388 34.6062 190.408 35.0311C190.001 35.2278 189.457 35.3257 188.794 35.3001C186.506 35.2138 183.661 33.6869 182.439 31.8899C182.086 31.3703 181.907 30.8846 181.888 30.4594C182.296 30.2641 182.839 30.1659 183.5 30.1907Z" fill="#F0F0F0"/>
<path opacity="0.1" d="M181.218 31.0321C181.365 30.7968 181.591 30.6023 181.888 30.4599C181.906 30.8851 182.085 31.3708 182.439 31.8904C183.661 33.6874 186.506 35.2143 188.794 35.3006C189.456 35.3262 190 35.2283 190.408 35.0316C190.422 35.3414 190.352 35.6195 190.206 35.8549C189.856 36.4147 189.067 36.7399 187.923 36.6955C185.635 36.6091 182.79 35.0823 181.568 33.2853C180.958 32.3879 180.869 31.5919 181.218 31.0321Z" fill="black"/>
<path d="M28.1673 37.278L27.8274 35.7237C27.6912 35.0999 27.0658 34.5683 25.985 34.2753C23.821 33.6901 20.6509 34.2854 18.9044 35.6052C18.0306 36.2642 17.678 36.9809 17.8146 37.6047L18.1545 39.159C18.2907 39.7827 18.9161 40.3155 19.9981 40.6074C22.1612 41.1929 25.3309 40.5973 27.0786 39.2775C27.9512 38.6181 28.3035 37.9014 28.1673 37.278ZM27.7369 36.549C27.5755 36.9403 27.2444 37.3412 26.7387 37.7224C24.9911 39.0426 21.8209 39.6379 19.6582 39.0523C19.0321 38.8834 18.5579 38.6339 18.2445 38.3318C18.4076 37.9413 18.7383 37.5404 19.2443 37.1591C20.9908 35.8393 24.1609 35.2437 26.3249 35.8293C26.9498 35.9985 27.4231 36.2484 27.7369 36.549Z" fill="#F0F0F0"/>
<path opacity="0.1" d="M28.1673 37.2778C28.1099 37.0155 27.9655 36.7685 27.7369 36.5492C27.5755 36.9404 27.2443 37.3413 26.7387 37.7226C24.991 39.0428 21.8209 39.638 19.6582 39.0525C19.0321 38.8836 18.5579 38.634 18.2445 38.3319C18.1259 38.6165 18.0966 38.896 18.154 39.1583C18.2902 39.7821 18.9157 40.3149 19.9976 40.6067C22.1608 41.1923 25.3305 40.5967 27.0782 39.2769C27.9512 38.6179 28.3034 37.9012 28.1673 37.2778Z" fill="black"/>
<path d="M148.2 46.3968L147.861 44.8425C147.724 44.2187 147.099 43.6871 146.018 43.3941C143.854 42.8089 140.684 43.4042 138.938 44.724C138.064 45.383 137.711 46.0997 137.848 46.7235L138.188 48.2778C138.324 48.9015 138.949 49.4343 140.031 49.7262C142.194 50.3117 145.364 49.7161 147.112 48.3963C147.984 47.7369 148.337 47.0206 148.2 46.3968ZM147.77 45.6682C147.609 46.0595 147.278 46.4603 146.772 46.8416C145.024 48.1618 141.854 48.7571 139.691 48.1715C139.065 48.0026 138.591 47.7531 138.278 47.451C138.441 47.0605 138.772 46.6596 139.278 46.2783C141.024 44.9585 144.194 44.3628 146.358 44.9484C146.983 45.1177 147.456 45.3672 147.77 45.6682Z" fill="#F0F0F0"/>
<path opacity="0.1" d="M148.2 46.3966C148.143 46.1342 147.999 45.8873 147.77 45.6679C147.609 46.0592 147.278 46.4601 146.772 46.8414C145.024 48.1615 141.854 48.7568 139.691 48.1712C139.065 48.0023 138.591 47.7528 138.278 47.4507C138.159 47.7353 138.13 48.0148 138.188 48.2771C138.324 48.9009 138.949 49.4337 140.031 49.7255C142.194 50.3111 145.364 49.7155 147.112 48.3956C147.984 47.7367 148.337 47.0204 148.2 46.3966Z" fill="black"/>
<path d="M94.8783 33.5634L94.2961 32.1711C94.0626 31.6123 93.3908 31.2107 92.3373 31.0986C90.2282 30.8746 87.3882 31.8948 85.9939 33.3774C85.296 34.1182 85.0919 34.8353 85.3253 35.3941L85.9071 36.7865C86.1406 37.3453 86.8128 37.7476 87.8667 37.8589C89.9746 38.0833 92.8146 37.0631 94.2101 35.5801C94.908 34.8389 95.1122 34.1222 94.8783 33.5634ZM94.3541 32.9505C94.2712 33.3375 94.0328 33.7582 93.6287 34.187C92.2332 35.67 89.3932 36.6902 87.2853 36.4658C86.6751 36.4013 86.1923 36.2395 85.8499 36.0055C85.934 35.6193 86.1724 35.1982 86.5765 34.7694C87.9708 33.2868 90.8108 32.2666 92.9199 32.4906C93.5289 32.5555 94.0109 32.7177 94.3541 32.9505Z" fill="#F0F0F0"/>
<path opacity="0.1" d="M94.8783 33.5632C94.7803 33.3284 94.6037 33.1204 94.3537 32.9503C94.2709 33.3373 94.0324 33.758 93.6283 34.1868C92.2328 35.6698 89.3928 36.69 87.2849 36.4656C86.6747 36.4011 86.192 36.2393 85.8496 36.0053C85.7884 36.2872 85.8091 36.5507 85.9075 36.7859C86.141 37.3447 86.8132 37.747 87.8671 37.8583C89.975 38.0827 92.815 37.0625 94.2105 35.5795C94.9081 34.8387 95.1122 34.122 94.8783 33.5632Z" fill="black"/>
<path d="M44.4594 46.7801C44.458 46.2533 44.9176 45.8251 45.4857 45.8239C46.0539 45.8226 46.5157 46.2487 46.5171 46.7755C46.5185 47.3022 46.0589 47.7304 45.4908 47.7317C44.9226 47.7329 44.4608 47.3068 44.4594 46.7801Z" fill="#EBEBEB"/>
<path d="M111.204 42.2943C111.203 41.7676 111.663 41.3394 112.231 41.3381C112.799 41.3368 113.261 41.763 113.262 42.2897C113.263 42.8165 112.804 43.2446 112.236 43.2459C111.668 43.2472 111.206 42.821 111.204 42.2943Z" fill="#EBEBEB"/>
<path d="M23.232 65.2422C22.6638 65.2435 22.2043 65.6716 22.2057 66.1984C22.2071 66.7252 22.6689 67.1513 23.2371 67.15C23.8053 67.1488 24.2648 66.7207 24.2635 66.1938C24.2621 65.667 23.8003 65.241 23.232 65.2422Z" fill="#EBEBEB"/>
<path d="M82.0802 66.0652C82.0788 65.5385 82.5384 65.1103 83.1065 65.109C83.6747 65.1077 84.1365 65.5339 84.1379 66.0606C84.1393 66.5874 83.6797 67.0156 83.1116 67.0168C82.5434 67.0181 82.0815 66.592 82.0802 66.0652Z" fill="#EBEBEB"/>
<path d="M168.516 42.9445C168.515 42.4178 168.975 41.9896 169.543 41.9883C170.111 41.9871 170.573 42.4132 170.574 42.9399C170.576 43.4667 170.116 43.8949 169.548 43.8961C168.98 43.8974 168.518 43.4713 168.516 42.9445Z" fill="#EBEBEB"/>
<path d="M156.354 60.8735C155.786 60.8747 155.327 61.3028 155.328 61.8296C155.33 62.3565 155.791 62.7825 156.36 62.7813C156.928 62.78 157.387 62.3519 157.386 61.8251C157.385 61.2982 156.923 60.8722 156.354 60.8735Z" fill="#EBEBEB"/>
<path d="M196.271 0.923205C196.29 0.396791 196.767 -0.0155199 197.335 0.00283114C197.902 0.021183 198.347 0.462537 198.327 0.989321C198.308 1.51611 197.832 1.92805 197.263 1.9097C196.695 1.89134 196.251 1.44962 196.271 0.923205Z" fill="#EBEBEB"/>
<path d="M33.2422 79.2978C-11.0816 103.658 -11.0806 143.153 33.2446 167.513C77.5697 191.873 149.434 191.873 193.758 167.513C238.082 143.153 238.081 103.657 193.755 79.2978C149.43 54.9376 77.5659 54.9376 33.2422 79.2978Z" fill="#F5F5F5"/>
<path d="M116.352 175.934C164.398 175.934 203.346 154.053 203.346 127.062C203.346 100.07 164.398 78.1895 116.352 78.1895C68.3065 78.1895 29.3578 100.07 29.3578 127.062C29.3578 154.053 68.3065 175.934 116.352 175.934Z" fill="#E0E0E0"/>
<path d="M131.334 178.348L41.7035 139.573L44.9998 137.762L56.0894 131.667L39.4773 122.537L28.0721 128.805L23.1124 131.531L8.78883 125.334C8.19841 125.07 7.49485 125.312 7.21818 125.875C6.94104 126.437 7.19536 127.107 7.78626 127.37L20.2488 133.105L18.1015 134.285L17.8885 134.402L2.65835 127.399C2.07459 127.122 1.36533 127.348 1.07487 127.904C0.783939 128.46 1.0221 129.135 1.60587 129.412L15.04 135.968L4.91878 141.53L21.5309 150.66L32.6385 144.555L121.389 187.866C122.763 188.517 124.431 187.984 125.115 186.677C125.798 185.369 125.239 183.781 123.865 183.131L35.9781 142.72L36.9212 142.201L38.3321 141.426L128.975 183.137C130.365 183.757 132.019 183.187 132.67 181.865C133.322 180.542 132.723 178.968 131.334 178.348Z" fill="#E0E0E0"/>
<path d="M112.376 113.714C92.1936 113.729 73.248 109.678 59.0294 102.306C47.1767 96.1601 39.8786 88.3597 38.0167 79.9957C37.7035 78.5887 37.5443 77.1661 37.5425 75.7322C37.5336 65.775 45.1459 56.3266 58.9787 49.126C73.1836 41.7318 92.1208 37.6513 112.303 37.6362C132.485 37.6207 151.431 41.6717 165.649 49.0439C179.495 56.223 187.126 65.6602 187.136 75.6174C187.145 85.5745 179.532 95.023 165.699 102.224C151.496 109.618 132.558 113.698 112.376 113.714Z" fill="#BA68C8"/>
<path opacity="0.45" d="M112.376 113.714C92.1936 113.729 73.248 109.678 59.0294 102.306C47.1767 96.1601 39.8786 88.3597 38.0167 79.9957C37.7035 78.5887 37.5443 77.1661 37.5425 75.7322C37.5336 65.775 45.1459 56.3266 58.9787 49.126C73.1836 41.7318 92.1208 37.6513 112.303 37.6362C132.485 37.6207 151.431 41.6717 165.649 49.0439C179.495 56.223 187.126 65.6602 187.136 75.6174C187.145 85.5745 179.532 95.023 165.699 102.224C151.496 109.618 132.558 113.698 112.376 113.714Z" fill="white"/>
<path opacity="0.3" d="M165.65 49.0445C179.426 88.6731 89.2063 81.4242 77.6661 78.7921C71.1195 77.2992 63.4445 74.2114 60.5949 68.2569C58.0018 62.8391 60.3528 56.3893 62.7706 51.294C63.6288 49.4861 64.6063 47.7485 65.6505 46.0517C63.333 47.0042 61.0977 48.0238 58.9793 49.1266C45.1465 56.3266 37.5336 65.7756 37.5431 75.7327C37.5449 77.1666 37.7042 78.5892 38.0173 79.9963C39.8792 88.3602 47.1773 96.1601 59.03 102.306C73.2486 109.678 92.1942 113.73 112.376 113.714C132.558 113.699 151.496 109.618 165.7 102.224C179.534 95.0235 187.147 85.5751 187.137 75.6179C187.127 65.6607 179.497 56.2235 165.65 49.0445Z" fill="#BA68C8"/>
<path d="M112.376 113.714C129.236 113.701 145.224 110.849 158.313 105.6C155.934 103.199 152.807 100.97 148.991 98.9913C139.226 93.9282 126.215 91.1463 112.355 91.1565C98.4939 91.1673 85.4884 93.9695 75.7331 99.0471C71.9204 101.032 68.7971 103.266 66.4229 105.671C79.522 110.9 95.5161 113.727 112.376 113.714Z" fill="#263238"/>
<path d="M191.96 76.7631C191.956 76.8071 191.96 76.8554 191.956 76.8994C191.364 87.0572 183.605 97.1287 168.692 104.892C137.599 121.076 87.1677 121.115 56.0444 104.978C41.1161 97.2377 33.3385 87.1785 32.7272 77.0212C32.723 76.9772 32.7272 76.9289 32.723 76.8849C32.7045 76.5001 32.6866 76.1191 32.686 75.7338C32.6866 76.1186 32.7099 77.3979 32.7105 77.5862C32.7481 117.158 68.4321 144.042 112.41 144.008C156.389 143.974 192.012 117.036 191.974 77.4639C191.974 77.2755 191.995 75.9962 191.995 75.6115C191.995 75.9968 191.977 76.3778 191.96 76.7631Z" fill="#37474F"/>
<path d="M168.636 46.372C137.512 30.2356 87.0807 30.2742 55.9883 46.4584C40.4422 54.5508 32.6753 65.1471 32.6855 75.7338C32.6861 76.1186 32.704 76.4996 32.7224 76.8849C32.7266 76.9289 32.7224 76.9772 32.7266 77.0212C33.3379 87.1785 41.1155 97.2377 56.0438 104.978C87.1666 121.115 137.599 121.076 168.691 104.892C183.605 97.1287 191.364 87.0572 191.955 76.8994C191.959 76.8554 191.955 76.8071 191.959 76.7631C191.977 76.3783 191.995 75.9967 191.994 75.612C191.984 65.0253 184.197 54.4408 168.636 46.372ZM165.7 102.223C151.495 109.618 132.559 113.7 112.376 113.715C92.193 113.731 73.2497 109.678 59.0305 102.305C45.1823 95.126 37.5526 85.691 37.5431 75.7311C37.5335 65.775 45.1447 56.3282 58.9798 49.1276C73.1847 41.7329 92.1202 37.6507 112.304 37.6352C132.487 37.6196 151.43 41.6728 165.649 49.0455C179.498 56.2251 187.127 65.6596 187.136 75.6157C187.146 85.5756 179.535 95.0219 165.7 102.223Z" fill="#455A64"/>
<path d="M40.7171 86.6355C44.1738 92.4563 50.3828 97.8221 59.0294 102.306C73.248 109.678 92.1936 113.729 112.376 113.714C132.558 113.698 151.496 109.618 165.7 102.224C174.315 97.7394 180.515 92.3822 183.966 86.5743C182.023 78.6568 175.046 71.2808 163.8 65.4503C150.074 58.3341 131.786 54.4231 112.305 54.4382C92.8228 54.4532 74.5427 58.392 60.8311 65.5292C49.6195 71.3651 42.6613 78.7336 40.7171 86.6355Z" fill="#BA68C8"/>
<path d="M71.5024 82.8511C72.3158 82.966 74.0323 83.3668 74.6943 83.8074C75.5644 84.387 76.9182 85.7328 76.9194 87.8939C76.9206 89.8751 75.9825 92.0248 73.7865 92.796C66.5213 91.8477 59.3795 92.5953 52.1846 93.9084L47.1785 84.8635C47.1785 84.8635 51.4457 83.4462 53.6159 83.084C59.5065 82.1004 65.5832 82.0151 71.5024 82.8511Z" fill="#FFBDA7"/>
<path opacity="0.1" d="M76.9099 87.7742C75.9759 88.7852 74.5422 89.4528 73.0864 89.7356C71.0891 90.1241 69.0178 89.9331 66.9751 89.8698C62.2529 89.7249 57.505 90.2819 52.982 91.5119C52.3719 91.6777 51.7659 91.8655 51.1671 92.0689L52.1852 93.9079C59.3801 92.5953 66.5219 91.8478 73.7871 92.7955C75.9831 92.0238 76.9212 89.8741 76.9206 87.8934C76.9194 87.852 76.911 87.8156 76.9099 87.7742Z" fill="black"/>
<path d="M54.2677 90.6457C54.1031 88.2561 50.4234 83.5455 47.1784 84.8635C46.6631 85.0728 46.2814 85.486 46.0095 85.9314C45.2049 87.2499 45.2622 88.914 45.957 90.2818C46.6518 91.6497 47.9257 92.7353 49.3767 93.4812C49.9779 93.7903 50.6375 94.0517 51.3293 94.0522C53.1215 94.0538 54.3787 92.2545 54.2677 90.6457Z" fill="#FCF389"/>
<path d="M119.903 74.8859C120.716 75.0008 122.433 75.4016 123.095 75.8422C123.965 76.4218 125.318 77.7676 125.32 79.9286C125.321 81.9099 124.383 84.0596 122.186 84.8308C114.921 83.8825 107.779 84.6301 100.584 85.9432L95.5787 76.8983C95.5787 76.8983 99.8459 75.481 102.016 75.1188C107.907 74.1352 113.983 74.0498 119.903 74.8859Z" fill="#FFBDA7"/>
<path opacity="0.1" d="M125.31 79.8094C124.376 80.8205 122.942 81.488 121.486 81.7708C119.489 82.1588 117.417 81.9678 115.375 81.905C110.653 81.7596 105.905 82.3171 101.382 83.5471C100.772 83.7129 100.166 83.9007 99.5668 84.1041L100.584 85.9431C107.779 84.6305 114.921 83.8825 122.186 84.8307C124.382 84.059 125.321 81.9093 125.32 79.9286C125.32 79.8873 125.311 79.8502 125.31 79.8094Z" fill="black"/>
<path d="M102.668 82.6805C102.503 80.2909 98.8237 75.5803 95.5787 76.8983C95.0641 77.1076 94.6818 77.5208 94.4098 77.9662C93.6053 79.2847 93.6625 80.9488 94.3573 82.3166C95.0515 83.6845 96.326 84.7701 97.777 85.516C98.3782 85.8251 99.0378 86.0865 99.7296 86.087C101.522 86.0891 102.779 84.2893 102.668 82.6805Z" fill="#FCF389"/>
<path d="M101.027 87.7468C101.839 87.867 103.552 88.2781 104.211 88.723C105.077 89.3079 106.42 90.6623 106.404 92.8234C106.39 94.8046 105.435 96.9484 103.233 97.7062C95.9759 96.7123 88.8281 97.4153 81.6237 98.6834L76.6879 89.6073C76.6879 89.6073 80.9665 88.2169 83.1391 87.8681C89.0368 86.9204 95.1141 86.8737 101.027 87.7468Z" fill="#FFBDA7"/>
<path opacity="0.1" d="M106.396 92.7037C105.454 93.7088 104.015 94.3672 102.557 94.6409C100.557 95.0166 98.4873 94.8126 96.4446 94.737C91.7242 94.562 86.9715 95.0895 82.4395 96.2916C81.8282 96.4536 81.2205 96.6372 80.6205 96.8373L81.6243 98.6828C88.8287 97.4153 95.9765 96.7123 103.234 97.7056C105.436 96.9479 106.391 94.804 106.405 92.8233C106.405 92.7815 106.397 92.745 106.396 92.7037Z" fill="black"/>
<path d="M83.7325 95.4329C83.5864 93.0428 79.9431 88.3092 76.6879 89.6067C76.1715 89.8128 75.7862 90.2233 75.5107 90.6671C74.6954 91.9803 74.7407 93.6449 75.4248 95.017C76.1088 96.3892 77.3744 97.4829 78.82 98.2379C79.4188 98.5508 80.076 98.8164 80.7685 98.8212C82.5594 98.8341 83.8309 97.0423 83.7325 95.4329Z" fill="#FCF389"/>
<path d="M160.56 77.3207C161.373 77.4409 163.086 77.8519 163.745 78.2968C164.61 78.8817 165.954 80.2362 165.938 82.3972C165.924 84.3784 164.969 86.5223 162.767 87.28C155.51 86.2862 148.362 86.9892 141.157 88.2572L136.222 79.1812C136.222 79.1812 140.5 77.7908 142.673 77.442C148.57 76.4948 154.648 76.4476 160.56 77.3207Z" fill="#FFBDA7"/>
<path opacity="0.1" d="M165.929 82.2774C164.988 83.2825 163.548 83.9415 162.09 84.2152C160.09 84.5908 158.02 84.3869 155.978 84.3112C151.257 84.1363 146.505 84.6638 141.973 85.8659C141.361 86.0279 140.754 86.2114 140.154 86.4116L141.157 88.2571C148.362 86.9896 155.509 86.2866 162.767 87.2799C164.968 86.5221 165.923 84.3783 165.938 82.3971C165.938 82.3552 165.93 82.3187 165.929 82.2774Z" fill="black"/>
<path d="M143.266 85.0067C143.12 82.6161 139.477 77.883 136.221 79.1805C135.705 79.3866 135.319 79.7971 135.044 80.2409C134.229 81.5541 134.274 83.2187 134.958 84.5909C135.642 85.963 136.908 87.0567 138.353 87.8117C138.952 88.1246 139.609 88.3902 140.302 88.395C142.093 88.4084 143.364 86.6161 143.266 85.0067Z" fill="#FCF389"/>
<path d="M114.838 93.3111C115.636 93.1297 117.39 92.892 118.191 93.0643C119.244 93.2902 121.076 94.0501 122.019 96.0378C122.884 97.8596 122.958 100.168 121.274 101.653C114.178 103.346 107.935 106.554 101.889 110.301L93.3416 103.749C93.3416 103.749 96.6486 100.939 98.4873 99.8392C103.476 96.855 109.029 94.6318 114.838 93.3111Z" fill="#FFBDA7"/>
<path opacity="0.1" d="M121.958 95.9315C121.54 97.191 120.512 98.3115 119.297 99.0853C117.628 100.148 115.64 100.703 113.733 101.367C109.327 102.9 105.202 105.088 101.578 107.816C101.09 108.184 100.614 108.571 100.152 108.969L101.89 110.302C107.935 106.555 114.179 103.346 121.275 101.654C122.958 100.169 122.884 97.8602 122.02 96.0383C122.001 95.9991 121.977 95.9685 121.958 95.9315Z" fill="black"/>
<path d="M102.383 106.564C101.19 104.425 95.7516 101.391 93.3415 103.748C92.9593 104.123 92.7881 104.637 92.732 105.143C92.5668 106.639 93.3451 108.15 94.5808 109.163C95.816 110.176 97.4614 110.725 99.1218 110.899C99.8094 110.971 100.53 110.979 101.167 110.735C102.815 110.104 103.187 108.005 102.383 106.564Z" fill="#FCF389"/>
<path d="M102.505 53.2248C103.153 53.0772 104.579 52.8841 105.231 53.0241C106.087 53.2077 107.576 53.8258 108.343 55.4416C109.046 56.9227 109.107 58.7999 107.738 60.0073C101.968 61.3832 96.8925 63.9923 91.9771 67.0388L85.0273 61.7111C85.0273 61.7111 87.7164 59.4267 89.211 58.5326C93.2671 56.106 97.7811 54.2981 102.505 53.2248Z" fill="#FFBDA7"/>
<path opacity="0.1" d="M108.294 55.3547C107.954 56.3786 107.118 57.2898 106.129 57.9188C104.773 58.7827 103.156 59.234 101.606 59.7734C98.0233 61.0199 94.6697 62.7994 91.7236 65.0173C91.3264 65.3162 90.9393 65.6307 90.5636 65.9548L91.9764 67.0383C96.8919 63.9918 101.968 61.3827 107.737 60.0068C109.106 58.7994 109.046 56.9228 108.343 55.4411C108.328 55.41 108.309 55.3853 108.294 55.3547Z" fill="black"/>
<path d="M92.3784 64.0004C91.4081 62.2606 86.9864 59.7937 85.0267 61.7106C84.716 62.0148 84.5764 62.4334 84.5311 62.845C84.3963 64.0621 85.0297 65.2899 86.034 66.1136C87.0383 66.9374 88.376 67.3833 89.7257 67.525C90.2851 67.5835 90.8707 67.5899 91.3884 67.3913C92.7291 66.8783 93.0315 65.1718 92.3784 64.0004Z" fill="#FCF389"/>
<path d="M117.352 81.267C116.554 81.0856 114.8 80.8484 113.999 81.0202C112.946 81.2461 111.114 82.006 110.17 83.9936C109.305 85.8155 109.231 88.1241 110.915 89.6089C118.011 91.3015 124.255 94.51 130.3 98.2573L138.848 91.7045C138.848 91.7045 135.541 88.8947 133.703 87.7951C128.714 84.8109 123.161 82.5871 117.352 81.267Z" fill="#FFBDA7"/>
<path opacity="0.1" d="M110.232 83.8868C110.65 85.1463 111.678 86.2667 112.893 87.0406C114.561 88.1031 116.55 88.658 118.456 89.3212C122.863 90.8544 126.988 93.0433 130.611 95.771C131.1 96.1391 131.576 96.5255 132.038 96.9242L130.3 98.2567C124.255 94.5094 118.011 91.3003 110.915 89.6083C109.231 88.1235 109.305 85.8149 110.17 83.993C110.189 83.9549 110.212 83.9243 110.232 83.8868Z" fill="black"/>
<path d="M129.806 94.5201C131 92.3806 136.438 89.3464 138.848 91.7039C139.231 92.0784 139.402 92.5931 139.458 93.0986C139.623 94.5952 138.845 96.1058 137.609 97.119C136.374 98.1322 134.728 98.6806 133.068 98.855C132.38 98.9269 131.66 98.935 131.022 98.6908C129.375 98.0603 129.003 95.961 129.806 94.5201Z" fill="#FCF389"/>
<path d="M84.1958 106.046C84.9491 106.029 86.5599 105.848 87.219 105.519C88.0855 105.086 89.4918 104.009 89.7781 102.047C90.0405 100.25 89.4727 98.1977 87.581 97.2629C80.8614 97.3477 74.4776 95.9057 68.1201 93.9454L62.3828 101.621C62.3828 101.621 66.0691 103.363 67.9912 103.924C73.2079 105.446 78.7126 106.173 84.1958 106.046Z" fill="#FFBDA7"/>
<path opacity="0.1" d="M86.8396 102.823C86.0113 103.059 85.1304 103.085 84.262 103.086C77.3981 103.1 70.5444 101.663 64.3777 98.9522L62.3828 101.621C62.3828 101.621 66.0691 103.363 67.9912 103.924C73.2085 105.446 78.7126 106.173 84.1958 106.046C84.9491 106.028 86.5599 105.848 87.219 105.518C88.0855 105.085 89.4912 104.008 89.7781 102.047C89.8329 101.672 89.8413 101.287 89.8198 100.902C88.9855 101.758 88.0312 102.485 86.8396 102.823Z" fill="black"/>
<path d="M69.5801 97.1298C69.1155 99.2811 65.1543 103.164 62.3822 101.621C61.9427 101.376 61.6505 100.96 61.462 100.527C60.9056 99.2441 61.1775 97.7399 61.9886 96.5722C62.7997 95.4045 64.0992 94.5556 65.5151 94.0334C66.1013 93.8172 66.7347 93.6503 67.3627 93.7238C68.9897 93.9138 69.8932 95.6814 69.5801 97.1298Z" fill="#FCF389"/>
<path d="M163.28 100.735C164.033 100.718 165.645 100.537 166.303 100.209C167.17 99.7749 168.576 98.6984 168.862 96.7371C169.125 94.9393 168.557 92.8873 166.665 91.9525C159.946 92.0367 153.562 90.5953 147.205 88.635L141.467 96.3104C141.467 96.3104 145.154 98.0523 147.076 98.6137C152.292 100.136 157.797 100.862 163.28 100.735Z" fill="#FFBDA7"/>
<path opacity="0.1" d="M165.924 97.513C165.096 97.748 164.215 97.7743 163.347 97.7759C156.483 97.7904 149.629 96.3522 143.462 93.6417L141.467 96.3104C141.467 96.3104 145.154 98.0523 147.076 98.6136C152.293 100.135 157.797 100.862 163.281 100.736C164.034 100.718 165.645 100.538 166.304 100.208C167.17 99.7754 168.576 98.6984 168.863 96.737C168.918 96.3624 168.927 95.9771 168.905 95.5929C168.07 96.4478 167.115 97.1744 165.924 97.513Z" fill="black"/>
<path d="M148.665 91.8193C148.2 93.9707 144.238 97.8532 141.467 96.3104C141.027 96.0651 140.735 95.6498 140.547 95.2162C139.99 93.9336 140.262 92.4294 141.073 91.2617C141.884 90.094 143.184 89.2451 144.6 88.7229C145.186 88.5067 145.819 88.3398 146.448 88.4133C148.074 88.6033 148.978 90.3709 148.665 91.8193Z" fill="#FCF389"/>
<path d="M164.014 67.6344C164.598 67.4498 165.808 66.9433 166.232 66.5359C166.788 66.0004 167.587 64.8386 167.261 63.2389C166.962 61.7723 165.943 60.296 164.201 59.9933C158.966 61.5845 153.567 61.9048 148.043 61.8136L145.705 69.1209C145.705 69.1209 149.078 69.6479 150.739 69.6506C155.248 69.6581 159.758 68.9776 164.014 67.6344Z" fill="#FFBDA7"/>
<path opacity="0.1" d="M165.18 64.5123C164.597 64.8842 163.915 65.1048 163.236 65.3033C157.87 66.8719 152.104 67.3017 146.518 66.5805L145.706 69.1214C145.706 69.1214 149.079 69.6484 150.74 69.6511C155.248 69.6586 159.76 68.9781 164.015 67.635C164.599 67.4504 165.809 66.9438 166.233 66.5365C166.79 66.0009 167.588 64.8391 167.262 63.2394C167.2 62.9341 167.099 62.6303 166.974 62.3347C166.56 63.1922 166.017 63.9773 165.18 64.5123Z" fill="black"/>
<path d="M150.078 63.9735C150.317 65.7621 148.306 69.6994 145.705 69.1209C145.292 69.0291 144.948 68.7699 144.679 68.4737C143.884 67.5963 143.675 66.3578 143.983 65.2598C144.29 64.1624 145.069 63.2029 146.031 62.4731C146.429 62.1705 146.877 61.8968 147.39 61.8115C148.715 61.5909 149.917 62.7693 150.078 63.9735Z" fill="#FCF389"/>
<path d="M76.7876 69.7901C77.4073 69.7761 78.7313 69.6275 79.2734 69.357C79.9855 69.0007 81.1419 68.1158 81.3769 66.5032C81.5927 65.0248 81.1258 63.3382 79.5704 62.5697C74.0466 62.6389 68.7977 61.4541 63.5715 59.8426L58.8553 66.1523C58.8553 66.1523 61.8861 67.5845 63.466 68.0455C67.754 69.2969 72.2795 69.8942 76.7876 69.7901Z" fill="#FFBDA7"/>
<path opacity="0.1" d="M78.9614 67.1407C78.2804 67.3339 77.5563 67.3554 76.8425 67.357C71.1994 67.3688 65.5647 66.1866 60.4947 63.9579L58.8546 66.1522C58.8546 66.1522 61.8855 67.5845 63.4654 68.0455C67.7546 69.2969 72.2795 69.8942 76.7876 69.79C77.4066 69.7761 78.7312 69.6275 79.2728 69.357C79.9849 69.0007 81.1413 68.1158 81.3762 66.5032C81.4216 66.1952 81.4287 65.8785 81.4102 65.5625C80.7256 66.2649 79.9407 66.8622 78.9614 67.1407Z" fill="black"/>
<path d="M64.772 62.4597C64.3897 64.2285 61.1328 67.4203 58.8546 66.1517C58.4932 65.9505 58.2529 65.6087 58.0984 65.2523C57.641 64.1979 57.864 62.9609 58.5314 62.0014C59.1981 61.0414 60.2669 60.3438 61.4304 59.9139C61.9129 59.7363 62.433 59.5989 62.95 59.659C64.286 59.8157 65.0291 61.2695 64.772 62.4597Z" fill="#FCF389"/>
<path d="M144.761 103.513C145.35 103.089 146.512 102.069 146.815 101.448C147.214 100.632 147.611 99.0091 146.521 97.2908C145.522 95.7158 143.691 94.3909 141.556 94.6753C136.26 98.3984 130.207 100.723 123.826 102.621L124.414 111.855C124.414 111.855 128.521 111.237 130.429 110.638C135.607 109.012 140.479 106.597 144.761 103.513Z" fill="#FFBDA7"/>
<path opacity="0.1" d="M144.702 99.5071C144.2 100.145 143.516 100.645 142.826 101.119C137.368 104.865 130.942 107.448 124.209 108.644L124.414 111.856C124.414 111.856 128.521 111.238 130.428 110.638C135.607 109.012 140.479 106.597 144.761 103.513C145.35 103.089 146.512 102.069 146.815 101.448C147.214 100.632 147.61 99.0091 146.52 97.2908C146.312 96.963 146.06 96.6512 145.784 96.3566C145.695 97.491 145.423 98.5895 144.702 99.5071Z" fill="black"/>
<path d="M127.129 104.362C128.204 106.328 127.658 111.576 124.414 111.855C123.899 111.899 123.387 111.727 122.945 111.484C121.64 110.765 120.846 109.419 120.708 108.048C120.569 106.677 121.034 105.294 121.81 104.108C122.132 103.617 122.524 103.139 123.074 102.856C124.497 102.122 126.405 103.038 127.129 104.362Z" fill="#FCF389"/>
<path d="M67.2846 67.115C67.8793 66.779 69.2331 66.1726 69.9332 66.1233C70.8535 66.0583 72.5615 66.2424 73.9058 67.6323C75.1386 68.9062 75.8721 70.7619 74.9382 72.3643C69.6738 75.4118 65.5432 79.4886 61.7304 83.9555L52.8847 80.6558C52.8847 80.6558 54.7491 77.5954 55.9204 76.2699C59.0992 72.6718 62.956 69.5572 67.2846 67.115Z" fill="#FFBDA7"/>
<path opacity="0.1" d="M73.8253 67.5604C73.8533 68.6814 73.3458 69.833 72.5848 70.7474C71.5411 72.0031 70.0895 72.9229 68.7363 73.9109C65.6076 76.1948 62.8988 78.9439 60.7535 82.0124C60.4643 82.4261 60.1911 82.8522 59.9323 83.2847L61.731 83.9555C65.5444 79.4886 69.6744 75.4118 74.9388 72.3643C75.8721 70.7619 75.1391 68.9062 73.9064 67.6323C73.8796 67.6054 73.8515 67.5861 73.8253 67.5604Z" fill="black"/>
<path d="M61.0422 80.8076C59.4504 79.3528 54.1532 78.1749 52.8847 80.6563C52.6837 81.0502 52.6945 81.5085 52.797 81.9319C53.0988 83.1854 54.1711 84.227 55.4689 84.7572C56.7666 85.2879 58.2612 85.3448 59.6592 85.0942C60.2383 84.9906 60.8251 84.8264 61.2706 84.4787C62.424 83.5777 62.1139 81.787 61.0422 80.8076Z" fill="#FCF389"/>
<path d="M106.927 70.1641C107.526 70.4931 108.735 71.3114 109.097 71.8524C109.573 72.5639 110.153 74.0209 109.372 75.7247C108.656 77.2863 107.139 78.7062 105.129 78.6708C99.7464 75.7961 93.8474 74.2935 87.7022 73.2208L87.0289 64.6261C87.0289 64.6261 90.9048 64.7592 92.7459 65.1091C97.7443 66.0589 102.564 67.7713 106.927 70.1641Z" fill="#FFBDA7"/>
<path opacity="0.1" d="M109.408 75.6275C108.306 76.1507 106.934 76.257 105.685 76.0536C103.97 75.7745 102.406 75.0174 100.819 74.3696C97.1502 72.8724 93.2063 71.921 89.1967 71.5658C88.6564 71.518 88.1107 71.4879 87.565 71.4734L87.7021 73.2207C93.8474 74.2935 99.7469 75.7955 105.129 78.6707C107.139 78.7056 108.656 77.2862 109.372 75.7246C109.388 75.6919 109.394 75.6608 109.408 75.6275Z" fill="black"/>
<path d="M90.5243 71.2594C91.259 69.3281 90.0627 64.5375 87.0288 64.6261C86.5469 64.6406 86.0967 64.8542 85.7215 65.1257C84.6104 65.929 84.054 67.2577 84.1065 68.5392C84.159 69.8207 84.7703 71.0496 85.6446 72.0627C86.0066 72.4824 86.4318 72.8816 86.9769 73.0845C88.388 73.6104 90.0299 72.5596 90.5243 71.2594Z" fill="#FCF389"/>
<path d="M80.4965 73.1542C79.9019 72.8188 78.5481 72.2125 77.8479 72.1625C76.9277 72.0976 75.2196 72.2817 73.8747 73.6716C72.642 74.9455 71.909 76.8012 72.8424 78.4036C78.1067 81.4511 82.2374 85.5279 86.0501 89.9948L94.8958 86.695C94.8958 86.695 93.0315 83.6346 91.8602 82.3092C88.682 78.7105 84.8251 75.5964 80.4965 73.1542Z" fill="#FFBDA7"/>
<path opacity="0.1" d="M73.9553 73.5996C73.9273 74.7206 74.4354 75.8722 75.1958 76.7867C76.2401 78.0424 77.6911 78.9622 79.0449 79.9501C82.1736 82.234 84.8824 84.9832 87.0277 88.0516C87.3169 88.4654 87.5907 88.8914 87.8489 89.324L86.0502 89.9948C82.2368 85.5278 78.1068 81.4511 72.8424 78.403C71.9091 76.8012 72.6421 74.9455 73.8748 73.671C73.901 73.6447 73.9291 73.6254 73.9553 73.5996Z" fill="black"/>
<path d="M86.739 86.8463C88.3307 85.392 93.6279 84.2131 94.8958 86.695C95.0968 87.0889 95.0861 87.5466 94.9841 87.9706C94.6817 89.2241 93.61 90.2657 92.3123 90.7965C91.0145 91.3272 89.5199 91.3841 88.122 91.1335C87.5429 91.0299 86.9561 90.8657 86.5106 90.5174C85.3565 89.6169 85.6672 87.8257 86.739 86.8463Z" fill="#FCF389"/>
<path d="M164.597 68.5633C164.002 68.2279 162.649 67.6215 161.948 67.5716C161.028 67.5067 159.32 67.6908 157.976 69.0806C156.743 70.3546 156.01 72.2103 156.943 73.8127C162.207 76.8602 166.338 80.937 170.151 85.4044L178.997 82.1047C178.997 82.1047 177.133 79.0443 175.961 77.7183C172.782 74.1196 168.926 71.0055 164.597 68.5633Z" fill="#FFBDA7"/>
<path opacity="0.1" d="M158.056 69.0088C158.028 70.1298 158.536 71.2814 159.297 72.1958C160.34 73.4515 161.792 74.3713 163.145 75.3592C166.274 77.6431 168.983 80.3923 171.128 83.4608C171.417 83.8745 171.69 84.3006 171.949 84.7331L170.15 85.4039C166.337 80.937 162.207 76.8597 156.943 73.8121C156.009 72.2103 156.742 70.3546 157.975 69.0801C158.001 69.0538 158.029 69.0345 158.056 69.0088Z" fill="black"/>
<path d="M170.839 82.2555C172.431 80.8012 177.728 79.6222 178.996 82.1042C179.197 82.498 179.186 82.9558 179.084 83.3797C178.782 84.6333 177.71 85.6749 176.412 86.2056C175.114 86.7364 173.62 86.7932 172.222 86.5426C171.643 86.4391 171.056 86.2749 170.61 85.9271C169.457 85.0261 169.768 83.2348 170.839 82.2555Z" fill="#FCF389"/>
<path d="M119.614 52.9812C118.912 52.9919 117.41 53.1486 116.793 53.4507C115.982 53.8478 114.663 54.8412 114.379 56.6662C114.119 58.3389 114.629 60.2541 116.383 61.1385C122.643 61.1074 128.577 62.4956 134.481 64.3669L139.892 57.2587C139.892 57.2587 136.473 55.6096 134.688 55.0735C129.843 53.6187 124.722 52.9023 119.614 52.9812Z" fill="#FFBDA7"/>
<path opacity="0.1" d="M114.403 56.5664C115.059 57.519 116.183 58.2348 117.375 58.6282C119.012 59.168 120.785 59.226 122.519 59.3891C126.526 59.7669 130.463 60.7403 134.122 62.2585C134.615 62.4635 135.103 62.6862 135.582 62.9212L134.481 64.3664C128.577 62.4951 122.643 61.1069 116.384 61.138C114.63 60.2536 114.119 58.3389 114.379 56.6657C114.385 56.6308 114.397 56.6008 114.403 56.5664Z" fill="black"/>
<path d="M133.149 61.3907C133.601 59.3902 137.325 55.8017 139.893 57.2587C140.3 57.49 140.569 57.879 140.741 58.2842C141.248 59.483 140.981 60.882 140.216 61.9638C139.45 63.0457 138.232 63.827 136.909 64.3036C136.361 64.501 135.77 64.6518 135.185 64.5788C133.671 64.3905 132.844 62.7371 133.149 61.3907Z" fill="#FCF389"/>
<path d="M140.03 64.0465C139.435 63.7111 138.081 63.1047 137.381 63.0548C136.461 62.9899 134.753 63.1739 133.408 64.5638C132.175 65.8378 131.442 67.6934 132.376 69.2958C137.64 72.3433 141.771 76.4201 145.583 80.887L154.429 77.5873C154.429 77.5873 152.565 74.5269 151.394 73.2014C148.215 69.6033 144.358 66.4887 140.03 64.0465Z" fill="#FFBDA7"/>
<path opacity="0.1" d="M133.489 64.4924C133.461 65.6129 133.969 66.7645 134.73 67.6795C135.773 68.9352 137.225 69.855 138.578 70.8429C141.707 73.1268 144.416 75.876 146.561 78.9444C146.85 79.3582 147.124 79.7843 147.382 80.2168L145.584 80.8876C141.771 76.4207 137.64 72.3439 132.376 69.2958C131.443 67.694 132.176 65.8383 133.408 64.5638C133.434 64.5375 133.462 64.5182 133.489 64.4924Z" fill="black"/>
<path d="M146.272 77.7391C147.864 76.2849 153.161 75.1064 154.429 77.5878C154.63 77.9817 154.619 78.44 154.517 78.8634C154.216 80.117 153.143 81.1586 151.845 81.6888C150.548 82.2195 149.053 82.2764 147.655 82.0257C147.076 81.9222 146.489 81.758 146.044 81.4102C144.89 80.5092 145.2 78.7185 146.272 77.7391Z" fill="#FCF389"/>
<path d="M117.563 62.3937C116.968 62.0577 115.615 61.4514 114.914 61.402C113.994 61.3371 112.286 61.5211 110.941 62.911C109.709 64.185 108.976 66.0406 109.909 67.643C115.173 70.6905 119.304 74.7673 123.117 79.2342L131.962 75.9345C131.962 75.9345 130.097 72.8741 128.927 71.5486C125.749 67.95 121.892 64.8359 117.563 62.3937Z" fill="#FFBDA7"/>
<path opacity="0.1" d="M111.022 62.8391C110.994 63.9596 111.502 65.1112 112.263 66.0262C113.307 67.2819 114.758 68.2017 116.111 69.1896C119.24 71.4735 121.949 74.2227 124.094 77.2911C124.383 77.7049 124.657 78.1309 124.915 78.5635L123.117 79.2343C119.304 74.7673 115.173 70.6906 109.909 67.6425C108.976 66.0407 109.709 64.185 110.942 62.9105C110.967 62.8842 110.996 62.8654 111.022 62.8391Z" fill="black"/>
<path d="M123.805 76.0864C125.397 74.6316 130.694 73.4537 131.962 75.935C132.163 76.3289 132.153 76.7872 132.051 77.2106C131.749 78.4642 130.677 79.5058 129.379 80.0365C128.081 80.5672 126.586 80.6241 125.189 80.3735C124.609 80.2699 124.023 80.1057 123.577 79.7575C122.423 78.8564 122.734 77.0657 123.805 76.0864Z" fill="#FCF389"/>
<path d="M104.534 73.8722C103.971 75.7885 103.835 77.8063 104.17 79.7955C104.492 81.7199 105.249 83.6158 106.468 85.3695C110.037 90.5045 116.556 92.9527 122.807 92.0613C124.643 91.7994 126.454 91.2526 128.162 90.3945C128.403 90.277 128.642 90.1482 128.883 90.0125C129.119 89.8788 129.351 89.7441 129.577 89.5966C130.392 89.1147 131.16 88.6022 131.911 88.0656C133.859 86.6741 135.579 85.1141 137.078 83.421C138.347 81.985 139.454 80.4567 140.389 78.8521C141.254 77.3839 141.977 75.8561 142.552 74.2843C142.847 73.4542 143.108 72.6165 143.325 71.7708C143.543 70.925 143.611 70.0455 143.534 69.1729C143.421 67.8405 142.961 66.5096 142.12 65.2979C142.032 65.1745 141.941 65.0538 141.848 64.9352C141.804 64.8804 141.759 64.8257 141.715 64.771C140.329 63.0629 138.335 61.9375 136.176 61.4895C135.535 61.3574 134.889 61.249 134.242 61.1508C131.995 60.816 129.712 60.6867 127.424 60.7752C125.377 60.86 123.336 61.116 121.314 61.5533C119.283 61.9917 117.275 62.6099 115.325 63.417C114.318 63.8361 113.327 64.3003 112.349 64.8192C112.105 64.9427 111.865 65.0677 111.629 65.2013C111.388 65.3366 111.158 65.4755 110.932 65.6204C110.409 65.9413 109.929 66.2918 109.469 66.6599C108.982 67.0468 108.529 67.4536 108.103 67.8834L108.098 67.8856C106.379 69.621 105.177 71.6822 104.534 73.8722Z" fill="#FFD13B"/>
<path opacity="0.5" d="M104.534 73.8722C103.971 75.7885 103.835 77.8063 104.17 79.7955C104.492 81.7199 105.249 83.6158 106.468 85.3695C110.037 90.5045 116.556 92.9527 122.807 92.0613C124.643 91.7994 126.454 91.2526 128.162 90.3945C128.403 90.277 128.642 90.1482 128.883 90.0125C129.119 89.8788 129.351 89.7441 129.577 89.5966C130.392 89.1147 131.16 88.6022 131.911 88.0656C133.859 86.6741 135.579 85.1141 137.078 83.421C138.347 81.985 139.454 80.4567 140.389 78.8521C141.254 77.3839 141.977 75.8561 142.552 74.2843C142.847 73.4542 143.108 72.6165 143.325 71.7708C143.543 70.925 143.611 70.0455 143.534 69.1729C143.421 67.8405 142.961 66.5096 142.12 65.2979C142.032 65.1745 141.941 65.0538 141.848 64.9352C141.804 64.8804 141.759 64.8257 141.715 64.771C140.329 63.0629 138.335 61.9375 136.176 61.4895C135.535 61.3574 134.889 61.249 134.242 61.1508C131.995 60.816 129.712 60.6867 127.424 60.7752C125.377 60.86 123.336 61.116 121.314 61.5533C119.283 61.9917 117.275 62.6099 115.325 63.417C114.318 63.8361 113.327 64.3003 112.349 64.8192C112.105 64.9427 111.865 65.0677 111.629 65.2013C111.388 65.3366 111.158 65.4755 110.932 65.6204C110.409 65.9413 109.929 66.2918 109.469 66.6599C108.982 67.0468 108.529 67.4536 108.103 67.8834L108.098 67.8856C106.379 69.621 105.177 71.6822 104.534 73.8722Z" fill="white"/>
<path d="M104.534 73.8723C103.971 75.7886 103.615 78.6751 104.751 80.7025C107.78 86.1091 114.842 88.2867 121.093 87.3954C122.926 87.1324 124.74 86.5867 126.445 85.7275C126.689 85.6116 126.928 85.4823 127.169 85.347C127.405 85.2134 127.637 85.0787 127.864 84.9311C128.675 84.4482 129.449 83.9336 130.198 83.4007C132.142 82.0076 133.863 80.4481 135.361 78.7545C136.635 77.3201 137.74 75.7918 138.675 74.1867C139.541 72.7185 140.262 71.187 140.835 69.6179C141.133 68.7888 141.366 67.7692 141.427 66.902C141.654 63.6054 138.335 61.9387 136.177 61.4906C135.535 61.3586 134.889 61.2502 134.242 61.152C131.995 60.8171 129.712 60.6878 127.424 60.7763C125.377 60.8611 123.336 61.1171 121.314 61.5544C119.283 61.9929 117.275 62.6111 115.325 63.4182C114.318 63.8373 113.328 64.3015 112.349 64.8204C112.106 64.9438 111.865 65.0688 111.629 65.2025C111.388 65.3377 111.158 65.4767 110.932 65.6216C110.409 65.9425 109.929 66.2929 109.469 66.661C108.982 67.0479 108.53 67.4547 108.103 67.8845L108.098 67.8867C106.379 69.6211 105.177 71.6823 104.534 73.8723Z" fill="#FAFAFA"/>
<path d="M113.558 67.2138C118.08 64.815 123.907 66.1695 126.573 70.2387L126.574 70.2393C127.287 71.3281 127.086 72.938 126.354 74.7497C124.584 79.1275 119.038 81.7462 115.009 81.1785C112.891 80.8801 110.909 80.0135 110.196 78.9246C107.53 74.8559 109.035 69.6125 113.558 67.2138Z" fill="#FFD13B"/>
<path opacity="0.1" d="M109.521 71.496C108.908 75.173 112.669 78.03 117.824 78.278C122.21 78.4889 125.858 75.7413 126.883 73.0394C126.771 73.5814 126.594 74.1529 126.353 74.7496C124.583 79.1275 119.037 81.7462 115.007 81.1785C112.89 80.8801 110.908 80.0134 110.195 78.9246C108.661 76.5817 108.511 73.8502 109.521 71.496Z" fill="black"/>
<path opacity="0.2" d="M123.791 68.7104C124.629 69.568 124.257 70.2286 123.933 70.4357C123.234 70.8811 122.503 70.4051 120.803 69.2186C119.103 68.0327 116.28 68.2173 116.416 67.6034C116.473 67.3415 116.599 67.1848 117.119 67.0023C117.672 66.8086 118.49 66.7469 119.34 66.8408C121.242 67.0512 122.883 67.7837 123.791 68.7104Z" fill="white"/>
<path opacity="0.3" d="M106.468 85.37C105.249 83.6158 104.492 81.7204 104.17 79.796C104.117 79.4827 104.08 79.1687 104.051 78.8548C104.337 80.9648 106.146 86.3032 114.036 89.3003C122.872 92.6569 131.201 88.5619 136.551 84.0016C135.18 85.4725 133.635 86.8356 131.911 88.0671C131.161 88.6038 130.393 89.1163 129.577 89.5981C129.351 89.7457 129.118 89.8804 128.883 90.014C128.642 90.1493 128.404 90.2786 128.162 90.3961C126.454 91.2542 124.643 91.801 122.807 92.0629C116.556 92.9532 110.037 90.5051 106.468 85.37Z" fill="#FFD13B"/>
<path d="M116.267 80.6601C116.786 82.5866 116.875 84.6059 116.496 86.5893C116.13 88.5078 115.331 90.3887 114.072 92.1198C110.387 97.1883 103.813 99.5157 97.5838 98.5095C95.7541 98.2138 93.9566 97.6337 92.2682 96.7445C92.0296 96.6227 91.794 96.4891 91.5567 96.3495C91.3235 96.2116 91.0945 96.0726 90.8714 95.9208C90.0675 95.4239 89.3113 94.8974 88.5729 94.3474C86.6573 92.9199 84.9725 91.3294 83.5125 89.6084C82.2762 88.1493 81.2051 86.6011 80.3063 84.9794C79.475 83.4956 78.7861 81.955 78.2476 80.373C77.972 79.5374 77.7293 78.6949 77.5313 77.8454C77.3333 76.996 77.285 76.1153 77.3828 75.2439C77.5259 73.9136 78.0162 72.5918 78.8845 71.3957C78.9746 71.2744 79.0688 71.1547 79.1642 71.0383C79.2096 70.9846 79.2555 70.9304 79.3008 70.8768C80.7256 69.1944 82.7444 68.1061 84.9129 67.6978C85.5564 67.5776 86.2058 67.481 86.8547 67.3951C89.1085 67.1016 91.3939 67.0146 93.6792 67.1445C95.7243 67.2674 97.7592 67.5604 99.7714 68.0353C101.792 68.5108 103.786 69.166 105.716 70.009C106.713 70.4464 107.693 70.9288 108.659 71.4654C108.9 71.5937 109.138 71.723 109.371 71.8604C109.609 71.9999 109.836 72.1437 110.057 72.2924C110.573 72.623 111.045 72.982 111.496 73.3587C111.975 73.7547 112.418 74.1695 112.834 74.6069L112.839 74.609C114.52 76.3761 115.674 78.4588 116.267 80.6601Z" fill="#BA68C8"/>
<path opacity="0.5" d="M116.267 80.6601C116.786 82.5866 116.875 84.6059 116.496 86.5893C116.13 88.5078 115.331 90.3887 114.072 92.1198C110.387 97.1883 103.813 99.5157 97.5838 98.5095C95.7541 98.2138 93.9566 97.6337 92.2682 96.7445C92.0296 96.6227 91.794 96.4891 91.5567 96.3495C91.3235 96.2116 91.0945 96.0726 90.8714 95.9208C90.0675 95.4239 89.3113 94.8974 88.5729 94.3474C86.6573 92.9199 84.9725 91.3294 83.5125 89.6084C82.2762 88.1493 81.2051 86.6011 80.3063 84.9794C79.475 83.4956 78.7861 81.955 78.2476 80.373C77.972 79.5374 77.7293 78.6949 77.5313 77.8454C77.3333 76.996 77.285 76.1153 77.3828 75.2439C77.5259 73.9136 78.0162 72.5918 78.8845 71.3957C78.9746 71.2744 79.0688 71.1547 79.1642 71.0383C79.2096 70.9846 79.2555 70.9304 79.3008 70.8768C80.7256 69.1944 82.7444 68.1061 84.9129 67.6978C85.5564 67.5776 86.2058 67.481 86.8547 67.3951C89.1085 67.1016 91.3939 67.0146 93.6792 67.1445C95.7243 67.2674 97.7592 67.5604 99.7714 68.0353C101.792 68.5108 103.786 69.166 105.716 70.009C106.713 70.4464 107.693 70.9288 108.659 71.4654C108.9 71.5937 109.138 71.723 109.371 71.8604C109.609 71.9999 109.836 72.1437 110.057 72.2924C110.573 72.623 111.045 72.982 111.496 73.3587C111.975 73.7547 112.418 74.1695 112.834 74.6069L112.839 74.609C114.52 76.3761 115.674 78.4588 116.267 80.6601Z" fill="white"/>
<path d="M116.267 80.6601C116.786 82.5866 117.076 85.479 115.894 87.4849C112.743 92.8346 105.632 94.8819 99.4034 93.8757C97.5766 93.5789 95.7761 93.0004 94.0913 92.1096C93.8492 91.9889 93.6142 91.8553 93.3762 91.7157C93.143 91.5778 92.914 91.4388 92.691 91.2875C91.8906 90.7895 91.1296 90.2609 90.3925 89.7141C88.4805 88.2856 86.7956 86.695 85.3357 84.974C84.0952 83.516 83.0246 81.9678 82.1259 80.3461C81.2945 78.8629 80.6081 77.3174 80.0707 75.7386C79.7916 74.9047 79.5811 73.8808 79.5411 73.0125C79.3878 69.7128 82.7449 68.1067 84.9134 67.6988C85.5569 67.5786 86.2064 67.482 86.8553 67.3962C89.1091 67.1026 91.3944 67.0157 93.6798 67.1456C95.7248 67.2685 97.7597 67.5614 99.772 68.0364C101.793 68.5118 103.786 69.1671 105.717 70.0101C106.714 70.4475 107.694 70.9299 108.66 71.4665C108.901 71.5948 109.138 71.7241 109.372 71.8615C109.609 72.001 109.837 72.1448 110.058 72.2935C110.574 72.624 111.046 72.983 111.497 73.3598C111.976 73.7558 112.418 74.1706 112.835 74.6079L112.84 74.6101C114.52 76.3761 115.674 78.4588 116.267 80.6601Z" fill="#FAFAFA"/>
<path d="M107.396 73.8368C102.929 71.3554 97.0721 72.602 94.3144 76.6214L94.3138 76.6219C93.5766 77.6973 93.7406 79.3104 94.4313 81.1355C96.1006 85.545 101.586 88.2652 105.628 87.772C107.752 87.5128 109.753 86.6827 110.491 85.6073C113.249 81.5884 111.864 76.3182 107.396 73.8368Z" fill="#F2E00D"/>
<path opacity="0.1" d="M111.334 78.1926C111.864 81.8804 108.039 84.6671 102.879 84.82C98.4885 84.9504 94.9047 82.1363 93.9404 79.4161C94.0406 79.9598 94.204 80.5345 94.4312 81.136C96.1005 85.5455 101.586 88.2657 105.628 87.7726C107.752 87.5134 109.753 86.6832 110.491 85.6078C112.08 83.2933 112.291 80.5651 111.334 78.1926Z" fill="black"/>
<path opacity="0.2" d="M97.1317 75.1451C96.2735 75.9871 96.6307 76.6547 96.951 76.8677C97.6398 77.326 98.3811 76.8634 100.108 75.7086C101.834 74.5538 104.653 74.791 104.531 74.1744C104.479 73.9114 104.356 73.7526 103.841 73.5605C103.292 73.3565 102.475 73.2798 101.624 73.3582C99.7171 73.5331 98.0597 74.235 97.1317 75.1451Z" fill="white"/>
<path opacity="0.3" d="M114.072 92.1198C115.331 90.3887 116.13 88.5072 116.496 86.5893C116.556 86.277 116.6 85.9636 116.636 85.6502C116.302 87.7549 114.372 93.0584 106.416 95.91C97.5062 99.1035 89.2707 94.8556 84.026 90.1976C85.3637 91.6932 86.8773 93.0847 88.5723 94.3474C89.3106 94.8974 90.0668 95.4239 90.8708 95.9208C91.0938 96.0726 91.3234 96.2116 91.556 96.3495C91.794 96.4891 92.029 96.6227 92.2675 96.7445C93.9559 97.6337 95.7534 98.2138 97.5832 98.5095C103.813 99.5157 110.387 97.1883 114.072 92.1198Z" fill="#BA68C8"/>
<path d="M119.709 96.9956C119.657 96.5362 119.643 96.0726 119.659 95.6116C118.361 95.925 117.15 95.8193 115.839 95.7576C113.938 95.6674 111.946 95.2886 110.545 94.1284C110.292 93.9191 110.049 93.6588 110.04 93.3497C110.031 93.0406 110.387 92.7245 110.702 92.8485C109.889 92.4594 108.994 91.977 108.791 91.1694C109.35 91.083 109.909 90.9971 110.468 90.9113C109.571 90.7084 108.698 90.4213 107.868 90.0548C107.678 89.9705 107.457 89.816 107.525 89.6352C107.563 89.5321 107.684 89.4763 107.794 89.4323C108.597 89.1141 109.453 88.9043 110.325 88.8109C109.88 88.6751 109.434 88.5399 108.988 88.4041C110.209 87.7677 111.669 87.5085 113.068 87.6802C112.85 87.6217 112.677 87.4446 112.641 87.2423C113.697 87.0411 114.838 87.2327 115.742 87.7623C114.819 86.3767 114.291 84.7856 114.185 83.1747C114.133 82.3853 114.183 81.5905 114.337 80.8124C114.381 80.5876 114.43 79.8862 114.721 79.7923C114.991 79.7048 115.602 80.2956 115.81 80.4421C116.422 79.2626 116.941 78.0445 117.361 76.799C118.127 77.8008 118.769 78.88 119.27 80.0096C119.51 79.5454 119.87 79.1317 120.313 78.8097C122.684 80.8301 123.828 83.9517 123.258 86.8447C124.058 85.8643 125.206 85.1173 126.491 84.7395C126.213 85.392 125.935 86.044 125.657 86.6966C126.95 86.0542 128.47 85.7886 129.936 85.949C129.812 86.7288 129.344 87.4597 128.658 87.9485C130.145 87.6153 131.728 87.6405 133.2 88.0204C132.81 88.5045 132.383 88.9756 131.969 89.4425C131.774 89.6636 130.849 90.7422 130.509 90.6918C130.753 90.7277 130.997 90.7642 131.242 90.8002C131.322 90.812 131.414 90.8318 131.448 90.8984C131.482 90.9644 131.439 91.0401 131.396 91.1018C130.526 92.3521 129.117 93.2907 127.534 93.676C127.859 93.7935 128.185 93.911 128.511 94.0286C128.451 94.0071 127.109 94.8957 126.916 94.9773C126.331 95.2242 125.702 95.3433 125.105 95.5413C123.851 95.9572 122.397 95.7093 121.182 95.2C120.556 94.9376 120.68 96.7906 120.704 97.0289C120.791 97.8751 121.135 98.7005 121.695 99.3847C122.418 100.266 123.495 100.905 124.679 101.157C124.795 101.182 124.941 101.234 124.935 101.341C124.933 101.382 124.906 101.419 124.879 101.451C124.274 102.165 123.358 102.132 122.575 101.685C121.492 101.066 120.695 100.088 120.229 99.0117C119.953 98.3667 119.788 97.6862 119.709 96.9956Z" fill="#11FF00"/>
<path opacity="0.3" d="M119.709 96.9956C119.657 96.5362 119.643 96.0726 119.659 95.6116C118.361 95.925 117.15 95.8193 115.839 95.7576C113.938 95.6674 111.946 95.2886 110.545 94.1284C110.292 93.9191 110.049 93.6588 110.04 93.3497C110.031 93.0406 110.387 92.7245 110.702 92.8485C109.889 92.4594 108.994 91.977 108.791 91.1694C109.35 91.083 109.909 90.9971 110.468 90.9113C109.571 90.7084 108.698 90.4213 107.868 90.0548C107.678 89.9705 107.457 89.816 107.525 89.6352C107.563 89.5321 107.684 89.4763 107.794 89.4323C108.597 89.1141 109.453 88.9043 110.325 88.8109C109.88 88.6751 109.434 88.5399 108.988 88.4041C110.209 87.7677 111.669 87.5085 113.068 87.6802C112.85 87.6217 112.677 87.4446 112.641 87.2423C113.697 87.0411 114.838 87.2327 115.742 87.7623C114.819 86.3767 114.291 84.7856 114.185 83.1747C114.133 82.3853 114.183 81.5905 114.337 80.8124C114.381 80.5876 114.43 79.8862 114.721 79.7923C114.991 79.7048 115.602 80.2956 115.81 80.4421C116.422 79.2626 116.941 78.0445 117.361 76.799C118.127 77.8008 118.769 78.88 119.27 80.0096C119.51 79.5454 119.87 79.1317 120.313 78.8097C122.684 80.8301 123.828 83.9517 123.258 86.8447C124.058 85.8643 125.206 85.1173 126.491 84.7395C126.213 85.392 125.935 86.044 125.657 86.6966C126.95 86.0542 128.47 85.7886 129.936 85.949C129.812 86.7288 129.344 87.4597 128.658 87.9485C130.145 87.6153 131.728 87.6405 133.2 88.0204C132.81 88.5045 132.383 88.9756 131.969 89.4425C131.774 89.6636 130.849 90.7422 130.509 90.6918C130.753 90.7277 130.997 90.7642 131.242 90.8002C131.322 90.812 131.414 90.8318 131.448 90.8984C131.482 90.9644 131.439 91.0401 131.396 91.1018C130.526 92.3521 129.117 93.2907 127.534 93.676C127.859 93.7935 128.185 93.911 128.511 94.0286C128.451 94.0071 127.109 94.8957 126.916 94.9773C126.331 95.2242 125.702 95.3433 125.105 95.5413C123.851 95.9572 122.397 95.7093 121.182 95.2C120.556 94.9376 120.68 96.7906 120.704 97.0289C120.791 97.8751 121.135 98.7005 121.695 99.3847C122.418 100.266 123.495 100.905 124.679 101.157C124.795 101.182 124.941 101.234 124.935 101.341C124.933 101.382 124.906 101.419 124.879 101.451C124.274 102.165 123.358 102.132 122.575 101.685C121.492 101.066 120.695 100.088 120.229 99.0117C119.953 98.3667 119.788 97.6862 119.709 96.9956Z" fill="black"/>
<path d="M127.317 89.1742C125.508 89.4179 123.86 90.233 122.552 91.3723C121.892 91.9465 121.325 92.6001 120.878 93.3213C120.837 93.3868 120.801 93.455 120.763 93.5215C120.844 89.4453 119.993 85.2703 118.273 81.5391C118.197 81.3743 118.06 81.5616 118.095 81.6722C119.325 85.5992 119.977 89.5349 120.092 93.5773C119.687 92.9371 119.083 92.3973 118.371 92.0082C116.948 91.2301 115.203 91.0321 113.568 91.017C113.409 91.0154 113.469 91.3315 113.604 91.3535C115.065 91.5945 116.621 91.7007 117.942 92.3688C118.949 92.8781 119.853 93.742 119.971 94.8158C119.983 94.9146 120.034 95.0058 120.107 95.082C120.106 95.1808 120.11 95.2779 120.109 95.3766C120.108 95.4196 120.125 95.4641 120.148 95.5081C120.147 95.5827 120.139 95.6551 120.141 95.7313C120.141 95.8075 120.281 96.0308 120.371 95.8923C120.399 95.8489 120.422 95.8022 120.45 95.7587C120.548 95.7802 120.633 95.7415 120.649 95.5913C120.655 95.528 120.655 95.4636 120.661 95.4002C120.773 95.2156 120.896 95.0364 120.991 94.84C121.162 94.4885 121.327 94.1402 121.537 93.8054C121.976 93.1013 122.523 92.4445 123.155 91.8719C124.345 90.7943 125.839 90.0232 127.448 89.5756C127.654 89.5182 127.524 89.1463 127.317 89.1742Z" fill="black"/>
<path d="M133.149 106.145C133.097 106.739 132.52 107.183 131.86 107.136C131.2 107.09 130.706 106.57 130.758 105.976C130.809 105.382 131.387 104.937 132.048 104.984C132.708 105.031 133.201 105.551 133.149 106.145Z" fill="#455A64"/>
<path d="M78.6012 65.5711C78.5463 66.2011 77.9338 66.6717 77.2337 66.6224C76.5335 66.573 76.0105 66.0219 76.0653 65.3919C76.1202 64.7619 76.7327 64.2913 77.4329 64.3406C78.133 64.39 78.6561 64.9411 78.6012 65.5711Z" fill="#455A64"/>
<path d="M60.5835 85.7726C60.5084 86.6317 59.674 87.2735 58.7186 87.2059C57.7638 87.1383 57.0505 86.387 57.125 85.5279C57.2002 84.6687 58.0351 84.0269 58.99 84.094C59.9454 84.1616 60.6587 84.9129 60.5835 85.7726Z" fill="#455A64"/>
<path d="M176.966 87.6754C176.913 88.2829 176.323 88.7369 175.647 88.6891C174.972 88.6414 174.468 88.1101 174.521 87.5026C174.574 86.8952 175.164 86.4412 175.839 86.4889C176.515 86.5367 177.019 87.0679 176.966 87.6754Z" fill="#455A64"/>
<path d="M84.8836 100.872C84.8084 101.731 83.9735 102.373 83.0186 102.306C82.0638 102.239 81.3505 101.487 81.4251 100.628C81.5002 99.7684 82.3352 99.1266 83.29 99.1942C84.2448 99.2613 84.9581 100.013 84.8836 100.872Z" fill="#455A64"/>
<path d="M152.809 81.1956C152.733 82.0548 151.899 82.6966 150.944 82.629C149.989 82.5614 149.276 81.8101 149.351 80.9509C149.426 80.0918 150.261 79.45 151.216 79.5176C152.17 79.5852 152.884 80.3359 152.809 81.1956Z" fill="#455A64"/>
<path d="M122.615 57.0156C122.556 57.6917 121.899 58.1972 121.147 58.1441C120.396 58.091 119.834 57.4996 119.893 56.8235C119.952 56.1473 120.609 55.6418 121.361 55.6949C122.113 55.7481 122.674 56.3394 122.615 57.0156Z" fill="#455A64"/>
<path d="M163.505 86.5109C161.477 86.234 158.695 87.1007 157.292 88.4466C156.589 89.119 156.365 89.7844 156.569 90.3157L157.079 91.6395C157.283 92.1708 157.917 92.569 158.931 92.7069C160.958 92.9838 163.74 92.1177 165.144 90.7718C165.845 90.0989 166.069 89.434 165.865 88.9032L165.356 87.5794C165.152 87.0476 164.518 86.6489 163.505 86.5109ZM164.635 89.4474C163.231 90.7933 160.449 91.6599 158.422 91.383C157.835 91.3031 157.376 91.1362 157.053 90.907C157.148 90.5469 157.395 90.1595 157.802 89.7704C159.205 88.4246 161.986 87.5585 164.015 87.8348C164.602 87.9148 165.061 88.0817 165.383 88.3119C165.286 88.6714 165.041 89.0583 164.635 89.4474Z" fill="#11FF00"/>
<path opacity="0.3" d="M163.505 86.5109C161.477 86.234 158.695 87.1007 157.292 88.4466C156.589 89.119 156.365 89.7844 156.569 90.3157L157.079 91.6395C157.283 92.1708 157.917 92.569 158.931 92.7069C160.958 92.9838 163.74 92.1177 165.144 90.7718C165.845 90.0989 166.069 89.434 165.865 88.9032L165.356 87.5794C165.152 87.0476 164.518 86.6489 163.505 86.5109ZM164.635 89.4474C163.231 90.7933 160.449 91.6599 158.422 91.383C157.835 91.3031 157.376 91.1362 157.053 90.907C157.148 90.5469 157.395 90.1595 157.802 89.7704C159.205 88.4246 161.986 87.5585 164.015 87.8348C164.602 87.9148 165.061 88.0817 165.383 88.3119C165.286 88.6714 165.041 89.0583 164.635 89.4474Z" fill="black"/>
<path opacity="0.3" d="M165.356 87.5783C165.442 87.8015 165.452 88.0494 165.382 88.3119C165.06 88.0816 164.601 87.9142 164.014 87.8348C161.986 87.5579 159.204 88.4245 157.801 89.7704C157.395 90.1595 157.147 90.5469 157.052 90.907C156.817 90.7396 156.655 90.5394 156.569 90.3162C156.365 89.7849 156.59 89.1195 157.292 88.4471C158.695 87.1012 161.477 86.2351 163.505 86.5115C164.518 86.6488 165.152 87.0476 165.356 87.5783Z" fill="black"/>
<path d="M107.34 59.2362C105.311 58.9593 102.529 59.8259 101.126 61.1718C100.424 61.8442 100.2 62.5096 100.404 63.0409L100.913 64.3648C101.118 64.896 101.751 65.2942 102.765 65.4321C104.793 65.7096 107.575 64.8429 108.978 63.497C109.68 62.8241 109.904 62.1592 109.7 61.6285L109.191 60.3046C108.986 59.7723 108.353 59.3741 107.34 59.2362ZM108.469 62.1721C107.065 63.518 104.283 64.3846 102.256 64.1077C101.669 64.0278 101.21 63.8609 100.887 63.6317C100.982 63.2717 101.229 62.8842 101.636 62.4952C103.039 61.1493 105.821 60.2832 107.849 60.5595C108.436 60.6395 108.895 60.8064 109.217 61.0366C109.121 61.3967 108.875 61.7836 108.469 62.1721Z" fill="#11FF00"/>
<path opacity="0.3" d="M107.34 59.2362C105.311 58.9593 102.529 59.8259 101.126 61.1718C100.424 61.8442 100.2 62.5096 100.404 63.0409L100.913 64.3648C101.118 64.896 101.751 65.2942 102.765 65.4321C104.793 65.7096 107.575 64.8429 108.978 63.497C109.68 62.8241 109.904 62.1592 109.7 61.6285L109.191 60.3046C108.986 59.7723 108.353 59.3741 107.34 59.2362ZM108.469 62.1721C107.065 63.518 104.283 64.3846 102.256 64.1077C101.669 64.0278 101.21 63.8609 100.887 63.6317C100.982 63.2717 101.229 62.8842 101.636 62.4952C103.039 61.1493 105.821 60.2832 107.849 60.5595C108.436 60.6395 108.895 60.8064 109.217 61.0366C109.121 61.3967 108.875 61.7836 108.469 62.1721Z" fill="black"/>
<path opacity="0.3" d="M109.191 60.3035C109.277 60.5268 109.287 60.7747 109.217 61.0371C108.895 60.8069 108.436 60.6395 107.849 60.56C105.821 60.2831 103.038 61.1498 101.636 62.4957C101.229 62.8847 100.982 63.2722 100.887 63.6323C100.652 63.4648 100.49 63.2647 100.404 63.0414C100.199 62.5102 100.424 61.8447 101.126 61.1723C102.53 59.8265 105.311 58.9603 107.34 59.2367C108.353 59.3741 108.986 59.7723 109.191 60.3035Z" fill="black"/>
<path d="M149.876 101.318C148.68 99.8183 146.048 98.6318 143.997 98.6678C142.972 98.685 142.286 99.0053 142.006 99.5076L141.309 100.76C141.029 101.263 141.154 101.949 141.753 102.698C142.948 104.198 145.58 105.384 147.632 105.349C148.656 105.331 149.342 105.011 149.622 104.508L150.319 103.256C150.599 102.754 150.474 102.067 149.876 101.318ZM148.329 104.096C146.277 104.132 143.646 102.945 142.45 101.446C142.104 101.012 141.916 100.6 141.873 100.232C142.226 100.042 142.706 99.9305 143.3 99.9203C145.35 99.8843 147.982 101.071 149.178 102.571C149.525 103.004 149.713 103.417 149.754 103.785C149.401 103.975 148.922 104.086 148.329 104.096Z" fill="#11FF00"/>
<path opacity="0.3" d="M149.876 101.318C148.68 99.8183 146.048 98.6318 143.997 98.6678C142.972 98.685 142.286 99.0053 142.006 99.5076L141.309 100.76C141.029 101.263 141.154 101.949 141.753 102.698C142.948 104.198 145.58 105.384 147.632 105.349C148.656 105.331 149.342 105.011 149.622 104.508L150.319 103.256C150.599 102.754 150.474 102.067 149.876 101.318ZM148.329 104.096C146.277 104.132 143.646 102.945 142.45 101.446C142.104 101.012 141.916 100.6 141.873 100.232C142.226 100.042 142.706 99.9305 143.3 99.9203C145.35 99.8843 147.982 101.071 149.178 102.571C149.525 103.004 149.713 103.417 149.754 103.785C149.401 103.975 148.922 104.086 148.329 104.096Z" fill="black"/>
<path opacity="0.3" d="M150.32 103.256C150.202 103.467 150.012 103.647 149.754 103.785C149.713 103.417 149.525 103.004 149.179 102.571C147.983 101.071 145.351 99.8843 143.3 99.9203C142.707 99.9305 142.226 100.042 141.874 100.232C141.843 99.9638 141.889 99.7196 142.006 99.5082C142.286 99.0059 142.972 98.6855 143.997 98.6683C146.048 98.6324 148.68 99.8189 149.876 101.319C150.474 102.067 150.6 102.754 150.32 103.256Z" fill="black"/>
<path d="M102.365 102.001C100.314 101.974 97.6886 103.173 96.5012 104.677C95.9066 105.429 95.7849 106.116 96.067 106.617L96.7707 107.867C97.0534 108.368 97.7411 108.686 98.7669 108.698C100.817 108.725 103.443 107.527 104.631 106.022C105.225 105.27 105.347 104.584 105.064 104.082L104.36 102.833C104.078 102.331 103.39 102.014 102.365 102.001ZM103.927 104.772C102.739 106.278 100.113 107.475 98.0625 107.449C97.4691 107.441 96.9884 107.332 96.6348 107.144C96.6741 106.776 96.8608 106.361 97.2049 105.927C98.3923 104.422 101.018 103.224 103.069 103.251C103.663 103.258 104.143 103.368 104.496 103.556C104.456 103.924 104.27 104.338 103.927 104.772Z" fill="#11FF00"/>
<path opacity="0.3" d="M102.365 102.001C100.314 101.974 97.6886 103.173 96.5012 104.677C95.9066 105.429 95.7849 106.116 96.067 106.617L96.7707 107.867C97.0534 108.368 97.7411 108.686 98.7669 108.698C100.817 108.725 103.443 107.527 104.631 106.022C105.225 105.27 105.347 104.584 105.064 104.082L104.36 102.833C104.078 102.331 103.39 102.014 102.365 102.001ZM103.927 104.772C102.739 106.278 100.113 107.475 98.0625 107.449C97.4691 107.441 96.9884 107.332 96.6348 107.144C96.6741 106.776 96.8608 106.361 97.2049 105.927C98.3923 104.422 101.018 103.224 103.069 103.251C103.663 103.258 104.143 103.368 104.496 103.556C104.456 103.924 104.27 104.338 103.927 104.772Z" fill="black"/>
<path opacity="0.3" d="M104.36 102.833C104.479 103.044 104.526 103.288 104.496 103.556C104.143 103.368 103.663 103.258 103.069 103.251C101.018 103.224 98.3924 104.422 97.205 105.927C96.8609 106.362 96.6742 106.776 96.6348 107.144C96.3766 107.007 96.1858 106.828 96.0671 106.617C95.7844 106.116 95.9066 105.429 96.5012 104.677C97.6887 103.173 100.314 101.975 102.366 102.001C103.39 102.014 104.078 102.331 104.36 102.833Z" fill="black"/>
<path d="M64.4726 71.8733C62.9477 70.638 60.0951 69.9849 58.1008 70.4142C57.103 70.6278 56.509 71.0726 56.3551 71.6173L55.971 72.975C55.8172 73.5197 56.1029 74.1663 56.865 74.7829C58.3888 76.0177 61.2414 76.6713 63.2369 76.242C64.2335 76.0273 64.8281 75.583 64.982 75.0383L65.366 73.6807C65.5199 73.1365 65.2342 72.4899 64.4726 71.8733ZM63.621 74.8843C61.6255 75.3131 58.7729 74.66 57.2491 73.4252C56.8078 73.0684 56.5263 72.7013 56.3975 72.3504C56.6969 72.0965 57.14 71.8953 57.7173 71.7719C59.7116 71.3426 62.5648 71.9956 64.0892 73.231C64.5305 73.5878 64.812 73.9549 64.9402 74.3069C64.6396 74.5591 64.1971 74.7604 63.621 74.8843Z" fill="#11FF00"/>
<path opacity="0.3" d="M64.4726 71.8733C62.9477 70.638 60.0951 69.9849 58.1008 70.4142C57.103 70.6278 56.509 71.0726 56.3551 71.6173L55.971 72.975C55.8172 73.5197 56.1029 74.1663 56.865 74.7829C58.3888 76.0177 61.2414 76.6713 63.2369 76.242C64.2335 76.0273 64.8281 75.583 64.982 75.0383L65.366 73.6807C65.5199 73.1365 65.2342 72.4899 64.4726 71.8733ZM63.621 74.8843C61.6255 75.3131 58.7729 74.66 57.2491 73.4252C56.8078 73.0684 56.5263 72.7013 56.3975 72.3504C56.6969 72.0965 57.14 71.8953 57.7173 71.7719C59.7116 71.3426 62.5648 71.9956 64.0892 73.231C64.5305 73.5878 64.812 73.9549 64.9402 74.3069C64.6396 74.5591 64.1971 74.7604 63.621 74.8843Z" fill="black"/>
<path opacity="0.3" d="M65.366 73.6812C65.301 73.9103 65.1578 74.1223 64.9396 74.3069C64.8113 73.9554 64.5298 73.5883 64.0885 73.231C62.5635 71.9956 59.711 71.3426 57.7166 71.7719C57.1393 71.8958 56.6962 72.0965 56.3968 72.3503C56.3026 72.0944 56.2895 71.8464 56.3545 71.6178C56.5083 71.0732 57.1029 70.6283 58.1001 70.4147C60.0945 69.9854 62.9476 70.639 64.472 71.8738C65.2342 72.4899 65.5198 73.1365 65.366 73.6812Z" fill="black"/>
<path d="M163.093 74.2758C162.337 72.5596 160.104 70.8338 158.106 70.4206C157.107 70.2129 156.355 70.3739 155.947 70.8005L154.933 71.8631C154.526 72.2897 154.462 72.9825 154.841 73.84C155.596 75.5556 157.829 77.2814 159.829 77.6952C160.828 77.9012 161.579 77.7408 161.986 77.3147L163.001 76.2522C163.408 75.8261 163.471 75.1328 163.093 74.2758ZM160.843 76.6326C158.843 76.2189 156.611 74.4931 155.856 72.7775C155.637 72.2811 155.566 71.84 155.624 71.4735C156.017 71.3656 156.513 71.3629 157.092 71.4826C159.09 71.8953 161.324 73.6216 162.079 75.3377C162.298 75.8341 162.369 76.2752 162.31 76.6418C161.916 76.7486 161.42 76.7523 160.843 76.6326Z" fill="#11FF00"/>
<path opacity="0.3" d="M163.093 74.2758C162.337 72.5596 160.104 70.8338 158.106 70.4206C157.107 70.2129 156.355 70.3739 155.947 70.8005L154.933 71.8631C154.526 72.2897 154.462 72.9825 154.841 73.84C155.596 75.5556 157.829 77.2814 159.829 77.6952C160.828 77.9012 161.579 77.7408 161.986 77.3147L163.001 76.2522C163.408 75.8261 163.471 75.1328 163.093 74.2758ZM160.843 76.6326C158.843 76.2189 156.611 74.4931 155.856 72.7775C155.637 72.2811 155.566 71.84 155.624 71.4735C156.017 71.3656 156.513 71.3629 157.092 71.4826C159.09 71.8953 161.324 73.6216 162.079 75.3377C162.298 75.8341 162.369 76.2752 162.31 76.6418C161.916 76.7486 161.42 76.7523 160.843 76.6326Z" fill="black"/>
<path opacity="0.3" d="M163.001 76.2522C162.83 76.4314 162.597 76.564 162.31 76.6418C162.369 76.2758 162.298 75.8342 162.079 75.3378C161.323 73.6216 159.09 71.8958 157.091 71.4826C156.513 71.363 156.017 71.3656 155.623 71.4735C155.665 71.2068 155.776 70.9793 155.947 70.8C156.354 70.3734 157.106 70.213 158.105 70.4201C160.104 70.8328 162.337 72.5591 163.093 74.2753C163.471 75.1328 163.408 75.8261 163.001 76.2522Z" fill="black"/>
<path d="M72.5424 91.8488C70.526 91.5091 67.7122 92.2883 66.2582 93.5896C65.5306 94.2395 65.2807 94.8979 65.4644 95.4351L65.9224 96.774C66.1061 97.3112 66.724 97.7292 67.7325 97.8982C69.7483 98.2385 72.5615 97.4587 74.0167 96.1574C74.7431 95.507 74.9936 94.8496 74.8099 94.3125L74.3518 92.9736C74.1676 92.4359 73.5497 92.0184 72.5424 91.8488ZM73.5586 94.8185C72.1034 96.1198 69.2902 96.8996 67.2744 96.5593C66.6912 96.4611 66.2385 96.2798 65.9248 96.041C66.0333 95.6841 66.2952 95.3047 66.7162 94.9285C68.1702 93.6272 70.984 92.848 73.0004 93.1877C73.5837 93.2859 74.0363 93.4673 74.3494 93.7071C74.2397 94.0635 73.9791 94.4429 73.5586 94.8185Z" fill="#11FF00"/>
<path opacity="0.3" d="M72.5424 91.8488C70.526 91.5091 67.7122 92.2883 66.2582 93.5896C65.5306 94.2395 65.2807 94.8979 65.4644 95.4351L65.9224 96.774C66.1061 97.3112 66.724 97.7292 67.7325 97.8982C69.7483 98.2385 72.5615 97.4587 74.0167 96.1574C74.7431 95.507 74.9936 94.8496 74.8099 94.3125L74.3518 92.9736C74.1676 92.4359 73.5497 92.0184 72.5424 91.8488ZM73.5586 94.8185C72.1034 96.1198 69.2902 96.8996 67.2744 96.5593C66.6912 96.4611 66.2385 96.2798 65.9248 96.041C66.0333 95.6841 66.2952 95.3047 66.7162 94.9285C68.1702 93.6272 70.984 92.848 73.0004 93.1877C73.5837 93.2859 74.0363 93.4673 74.3494 93.7071C74.2397 94.0635 73.9791 94.4429 73.5586 94.8185Z" fill="black"/>
<path opacity="0.3" d="M74.3512 92.9736C74.4288 93.1995 74.4294 93.4474 74.3494 93.7071C74.0363 93.4667 73.5837 93.2854 73.0004 93.1877C70.984 92.848 68.1702 93.6272 66.7162 94.9285C66.2952 95.3047 66.0333 95.6841 65.9248 96.041C65.6964 95.8665 65.5419 95.661 65.4644 95.4351C65.2807 94.8979 65.5306 94.2395 66.2582 93.5896C67.7122 92.2883 70.526 91.5091 72.5424 91.8488C73.5497 92.0184 74.1676 92.4359 74.3512 92.9736Z" fill="black"/>
<path d="M52.1618 129.725V138.101L26.7633 152.059V143.684L30.1737 141.81C32.86 142.972 36.046 143.25 39.463 141.372C42.8796 139.495 46.0655 135.714 48.7519 131.599L52.1618 129.725Z" fill="#263238"/>
<path d="M39.463 122.746V131.121L14.0645 145.08V136.705L17.4749 134.83C20.1612 135.992 23.3472 136.27 26.7638 134.393C30.1803 132.515 33.3663 128.735 36.0531 124.62L39.463 122.746Z" fill="black"/>
<path d="M26.7633 143.684L14.0645 136.705V145.08L26.7633 152.059V143.684Z" fill="#37474F"/>
<path d="M17.4744 134.831C20.1608 135.993 23.3468 136.271 26.7638 134.393C30.1803 132.515 33.3663 128.735 36.0531 124.621L39.4635 122.746L52.1623 129.726L48.7519 131.6C46.0656 135.715 42.8796 139.495 39.463 141.373C36.046 143.25 32.86 142.973 30.1737 141.81L26.7638 143.684L14.065 136.705L17.4744 134.831Z" fill="#455A64"/>
<path d="M26.7638 134.393C30.1803 132.515 33.3663 128.735 36.0531 124.62L48.7519 131.599C46.0655 135.714 42.8796 139.495 39.463 141.372C36.046 143.25 32.86 142.972 30.1737 141.81L17.4749 134.83C20.1608 135.993 23.3472 136.271 26.7638 134.393Z" fill="#37474F"/>
<path d="M137.238 182.152L17.7311 123.188C17.1554 122.896 16.44 123.103 16.1329 123.651C15.8258 124.199 16.0435 124.88 16.6192 125.172L134.623 186.819C135.977 187.507 137.659 187.019 138.382 185.73C139.104 184.442 138.592 182.84 137.238 182.152Z" fill="#BA68C8"/>
<path opacity="0.45" d="M137.238 182.152L17.7311 123.188C17.1554 122.896 16.44 123.103 16.1329 123.651C15.8258 124.199 16.0435 124.88 16.6192 125.172L134.623 186.819C135.977 187.507 137.659 187.019 138.382 185.73C139.104 184.442 138.592 182.84 137.238 182.152Z" fill="white"/>
<path d="M137.238 182.152L105.884 166.682C103.905 167.034 102.82 169.147 103.663 170.646L134.622 186.819C135.976 187.507 137.659 187.019 138.381 185.73C139.104 184.442 138.592 182.84 137.238 182.152Z" fill="#BA68C8"/>
<path opacity="0.3" d="M137.238 182.152L105.884 166.682C103.905 167.034 102.82 169.147 103.663 170.646L134.622 186.819C135.976 187.507 137.659 187.019 138.381 185.73C139.104 184.442 138.592 182.84 137.238 182.152Z" fill="black"/>
<path d="M118.03 172.676L117.11 172.222C117.02 172.296 116.927 172.368 116.842 172.447C116.313 172.936 115.871 173.5 115.534 174.125C115.229 174.691 115.025 175.313 114.944 175.945C114.923 176.113 114.903 176.308 114.893 176.513L115.725 176.947C115.713 176.766 115.709 176.585 115.725 176.405C115.776 175.827 115.948 175.267 116.218 174.747C116.51 174.182 116.927 173.682 117.388 173.234C117.594 173.034 117.81 172.853 118.03 172.676Z" fill="#BA68C8"/>
<path d="M112.725 174.882C112.777 174.303 112.949 173.744 113.218 173.224C113.511 172.659 113.928 172.158 114.389 171.71C114.585 171.521 114.789 171.348 114.998 171.179L114.079 170.726C114 170.791 113.918 170.854 113.843 170.924C113.314 171.413 112.872 171.977 112.535 172.601C112.23 173.168 112.026 173.79 111.945 174.422C111.925 174.578 111.906 174.757 111.895 174.946L112.721 175.378C112.712 175.213 112.711 175.047 112.725 174.882Z" fill="#BA68C8"/>
<path d="M128.46 186.389L10.8419 124.078C10.2757 123.77 9.55412 123.957 9.23039 124.496C8.90618 125.035 9.10299 125.722 9.66916 126.03L125.701 190.98C127.033 191.706 128.73 191.266 129.492 189.998C130.254 188.73 129.792 187.114 128.46 186.389Z" fill="#BA68C8"/>
<path opacity="0.45" d="M128.46 186.389L10.8419 124.078C10.2757 123.77 9.55412 123.957 9.23039 124.496C8.90618 125.035 9.10299 125.722 9.66916 126.03L125.701 190.98C127.033 191.706 128.73 191.266 129.492 189.998C130.254 188.73 129.792 187.114 128.46 186.389Z" fill="white"/>
<path d="M128.46 186.389L97.6018 170.041C95.6128 170.336 94.4633 172.418 95.2586 173.94L125.701 190.98C127.033 191.705 128.73 191.266 129.492 189.998C130.254 188.73 129.792 187.114 128.46 186.389Z" fill="#BA68C8"/>
<path opacity="0.3" d="M128.46 186.389L97.6018 170.041C95.6128 170.336 94.4633 172.418 95.2586 173.94L125.701 190.98C127.033 191.705 128.73 191.266 129.492 189.998C130.254 188.73 129.792 187.114 128.46 186.389Z" fill="black"/>
<path d="M109.556 176.374L108.65 175.894C108.558 175.966 108.463 176.036 108.376 176.112C107.832 176.586 107.373 177.137 107.016 177.752C106.693 178.309 106.47 178.926 106.369 179.555C106.343 179.722 106.316 179.917 106.301 180.121L107.118 180.579C107.111 180.398 107.114 180.217 107.135 180.038C107.204 179.461 107.394 178.906 107.68 178.394C107.99 177.838 108.422 177.349 108.897 176.914C109.109 176.72 109.33 176.545 109.556 176.374Z" fill="#BA68C8"/>
<path d="M104.185 178.43C104.254 177.853 104.444 177.299 104.73 176.786C105.039 176.23 105.472 175.741 105.947 175.307C106.148 175.123 106.357 174.955 106.572 174.793L105.667 174.313C105.586 174.377 105.503 174.437 105.426 174.504C104.882 174.978 104.423 175.53 104.066 176.144C103.744 176.701 103.52 177.318 103.419 177.948C103.395 178.102 103.37 178.282 103.354 178.47L104.166 178.925C104.161 178.76 104.165 178.594 104.185 178.43Z" fill="#BA68C8"/>
</svg>
